<svg width="659" height="516" viewBox="0 0 659 516" fill="none" xmlns="http://www.w3.org/2000/svg">
<path d="M586.128 388.214H347.952C345.905 388.21 343.942 387.338 342.495 385.787C341.047 384.236 340.232 382.134 340.229 379.942V8.27253C340.235 6.08212 341.052 3.98377 342.499 2.43623C343.946 0.888697 345.907 0.017879 347.952 0.0141602H586.128C588.173 0.017879 590.133 0.888697 591.581 2.43623C593.028 3.98377 593.844 6.08212 593.851 8.27253V379.942C593.848 382.134 593.033 384.236 591.585 385.787C590.138 387.338 588.175 388.21 586.128 388.214ZM347.952 0.367082C346.978 0.359639 346.012 0.558519 345.109 0.952298C344.207 1.34608 343.386 1.92699 342.694 2.66163C342.002 3.39628 341.453 4.27017 341.077 5.23308C340.701 6.19599 340.507 7.22894 340.505 8.27253V379.942C340.505 382.042 341.284 384.056 342.671 385.542C344.058 387.027 345.938 387.861 347.899 387.861H586.128C588.089 387.861 589.969 387.027 591.356 385.542C592.743 384.056 593.522 382.042 593.522 379.942V8.27253C593.522 6.17213 592.743 4.15776 591.356 2.67255C589.969 1.18735 588.089 0.352962 586.128 0.352962L347.952 0.367082Z" fill="#F0F0F0"/>
<path d="M311.417 388.214H73.1883C71.141 388.21 69.1785 387.338 67.7308 385.787C66.2832 384.236 65.4683 382.134 65.4648 379.942V8.27249C65.4683 6.07964 66.2832 3.97767 67.7308 2.42708C69.1785 0.876497 71.141 0.00373253 73.1883 0H311.417C313.464 0.00373253 315.427 0.876497 316.874 2.42708C318.322 3.97767 319.137 6.07964 319.14 8.27249V379.942C319.137 382.134 318.322 384.236 316.874 385.787C315.427 387.338 313.464 388.21 311.417 388.214ZM73.1883 0.367042C71.2296 0.367038 69.3509 1.19948 67.9646 2.68164C66.5784 4.16379 65.7978 6.17454 65.7943 8.27249V379.942C65.7943 382.042 66.5734 384.056 67.96 385.542C69.3466 387.027 71.2273 387.861 73.1883 387.861H311.417C313.378 387.861 315.259 387.027 316.645 385.542C318.032 384.056 318.811 382.042 318.811 379.942V8.27249C318.811 6.17209 318.032 4.15772 316.645 2.67252C315.259 1.18731 313.378 0.352922 311.417 0.352922L73.1883 0.367042Z" fill="#F0F0F0"/>
<path d="M659 474.426H0V474.779H659V474.426Z" fill="#F0F0F0"/>
<path d="M116.564 267.289L121.032 269.449L113.243 288.111L118.765 300.252L111.319 312.293L114.561 322.909L108.92 311.305L114.93 300.548L109.289 287.787L116.564 267.289Z" fill="#407BFF"/>
<path d="M116.564 267.289L121.032 269.449L113.243 288.111L118.765 300.252L111.319 312.293L114.561 322.909L108.92 311.305L114.93 300.548L109.289 287.787L116.564 267.289Z" fill="#E0E0E0"/>
<path d="M154.206 318.844C154.114 319.366 154.008 319.888 153.903 320.411C152.31 327.701 148.983 334.426 144.246 339.933C139.509 345.439 133.523 349.54 126.869 351.836C120.215 354.132 113.12 354.545 106.272 353.036C99.4251 351.527 93.0587 348.147 87.7918 343.223C85.398 340.965 83.2573 338.416 81.4127 335.629C80.8591 334.767 80.3187 333.906 79.8179 333.017C77.6038 329.077 75.9805 324.79 75.0072 320.312C74.8227 319.437 74.6645 318.561 74.5195 317.658C73.6452 312.029 73.8244 306.271 75.0467 300.718C75.1522 300.195 75.284 299.687 75.4158 299.165C77.8414 289.598 83.2556 281.212 90.7555 275.403C98.2555 269.595 107.388 266.716 116.63 267.246L113.559 275.9L112.465 279.02L109.302 287.787L110.751 291.104L111.529 292.869L114.837 300.365L114.929 300.548L113.849 302.482L113.48 303.146L112.86 304.261L108.906 311.319L109.565 312.66L110.883 315.385L112.728 319.197L113.77 321.342L114.534 322.923L114.389 321.413L114.218 319.465L113.994 316.952L113.783 314.82L113.559 312.308L116.867 307.381L117.895 305.856L119.648 303.245L120.689 301.692L123.061 298.162L116.959 287.787L116.801 287.518L116.313 286.714L117.196 285.711L117.355 285.514L117.5 285.373L122.073 280.149L124.353 277.552L130.376 270.691C132.959 271.871 135.42 273.338 137.718 275.067C138.508 275.674 139.286 276.309 140.037 276.973C143.318 279.834 146.152 283.237 148.433 287.052C148.934 287.899 149.408 288.732 149.856 289.608C151.46 292.727 152.699 296.046 153.547 299.489C154.432 303.083 154.875 306.784 154.865 310.501C154.898 313.298 154.678 316.092 154.206 318.844Z" fill="#407BFF"/>
<path d="M154.206 318.844C154.114 319.366 154.008 319.888 153.903 320.411C152.31 327.701 148.983 334.426 144.246 339.933C139.509 345.439 133.523 349.54 126.869 351.836C120.215 354.132 113.12 354.545 106.272 353.036C99.4251 351.527 93.0587 348.147 87.7918 343.223C85.398 340.965 83.2573 338.416 81.4127 335.629C80.8591 334.767 80.3187 333.906 79.8179 333.017C77.6038 329.077 75.9805 324.79 75.0072 320.312C74.8227 319.437 74.6645 318.561 74.5195 317.658C73.6452 312.029 73.8244 306.271 75.0467 300.718C75.1522 300.195 75.284 299.687 75.4158 299.165C77.8414 289.598 83.2556 281.212 90.7555 275.403C98.2555 269.595 107.388 266.716 116.63 267.246L113.559 275.9L112.465 279.02L109.302 287.787L110.751 291.104L111.529 292.869L114.837 300.365L114.929 300.548L113.849 302.482L113.48 303.146L112.86 304.261L108.906 311.319L109.565 312.66L110.883 315.385L112.728 319.197L113.77 321.342L114.534 322.923L114.389 321.413L114.218 319.465L113.994 316.952L113.783 314.82L113.559 312.308L116.867 307.381L117.895 305.856L119.648 303.245L120.689 301.692L123.061 298.162L116.959 287.787L116.801 287.518L116.313 286.714L117.196 285.711L117.355 285.514L117.5 285.373L122.073 280.149L124.353 277.552L130.376 270.691C132.959 271.871 135.42 273.338 137.718 275.067C138.508 275.674 139.286 276.309 140.037 276.973C143.318 279.834 146.152 283.237 148.433 287.052C148.934 287.899 149.408 288.732 149.856 289.608C151.46 292.727 152.699 296.046 153.547 299.489C154.432 303.083 154.875 306.784 154.865 310.501C154.898 313.298 154.678 316.092 154.206 318.844Z" fill="#F5F5F5"/>
<path d="M113.493 275.943L112.399 279.062C105.582 279.375 99.0309 281.982 93.678 286.514C88.3252 291.046 84.4436 297.271 82.5859 304.303C82.6782 303.781 82.7836 303.259 82.8891 302.736C84.519 295.281 88.4035 288.612 93.9382 283.767C99.473 278.921 106.348 276.17 113.493 275.943Z" fill="#E0E0E0"/>
<path d="M145.915 318.434C145.797 318.971 145.678 319.479 145.56 319.987C145.704 319.126 145.81 318.265 145.902 317.404C146.667 309.681 144.991 301.907 141.144 295.325C140.657 294.492 140.129 293.659 139.589 292.883C137.001 289.184 133.747 286.079 130.02 283.749C129.098 283.17 128.149 282.634 127.173 282.154C125.521 281.356 123.811 280.704 122.06 280.206L124.353 277.608C132.065 280.289 138.558 285.97 142.55 293.528C146.542 301.087 147.743 309.974 145.915 318.434Z" fill="#E0E0E0"/>
<path d="M145.559 319.987C143.293 328.564 138.031 335.877 130.866 340.411C123.701 344.945 115.181 346.351 107.074 344.339C106.678 344.254 106.323 344.155 105.954 344.042L104.846 343.689L104.57 343.605L103.383 343.167H103.212C101.95 342.67 100.717 342.09 99.5217 341.431C99.1263 341.205 98.7309 340.979 98.3487 340.739C97.5579 340.259 96.8067 339.751 96.0818 339.214L95.37 338.678L95.001 338.381C94.8033 338.24 94.632 338.071 94.4474 337.93L93.5776 337.196C93.2217 336.885 92.879 336.546 92.5495 336.222C92.22 335.897 91.8773 335.558 91.561 335.219L90.7702 334.33C90.6121 334.146 90.4407 333.963 90.2826 333.751L89.8872 333.285L89.439 332.721L88.7537 331.789C88.556 331.507 88.3583 331.238 88.1738 330.942C88.1267 330.883 88.0827 330.822 88.042 330.758C87.7784 330.363 87.5148 329.954 87.2643 329.53C87.0139 329.107 86.803 328.74 86.579 328.344L86.1836 327.61C86.0518 327.37 85.9332 327.102 85.8145 326.862L85.4587 326.142C85.3401 325.874 85.2214 325.62 85.116 325.352C85.0106 325.083 84.8919 324.843 84.7733 324.575C84.6547 324.307 84.5756 324.067 84.4702 323.799C84.2593 323.276 84.0748 322.726 83.8903 322.161C83.8112 321.935 83.7453 321.709 83.6794 321.484C83.4949 320.919 83.3499 320.354 83.2049 319.79C83.1295 319.478 83.0722 319.162 83.0336 318.844C82.8227 317.983 82.6513 317.093 82.5195 316.204C82.5195 315.964 82.5195 315.724 82.4141 315.484C82.4141 314.962 82.2823 314.425 82.2296 313.889V313.818C82.2296 313.282 82.1373 312.745 82.1241 312.209V311.446C82.1178 311.324 82.1178 311.202 82.1241 311.079C82.111 310.816 82.111 310.552 82.1241 310.289V310.162C82.1241 309.865 82.1241 309.555 82.1241 309.258C82.1241 308.962 82.1241 308.595 82.1241 308.256C82.1241 307.917 82.1241 307.607 82.1241 307.268C82.1241 306.929 82.1241 306.746 82.2032 306.477V305.983C82.221 305.746 82.2518 305.511 82.2955 305.277L82.4536 304.289C84.3113 297.257 88.1929 291.032 93.5457 286.5C98.8986 281.968 105.45 279.36 112.267 279.048L109.301 287.787L110.751 291.104L111.529 292.869L114.837 300.365L114.929 300.548L113.848 302.482L113.479 303.146L112.86 304.261L108.906 311.319L109.565 312.66L110.883 315.385L112.728 319.197L113.769 321.342L114.534 322.923L114.389 321.413L114.217 319.465L113.993 316.952L113.783 314.82L113.558 312.308L116.867 307.381L117.895 305.856L119.648 303.245L120.689 301.692L123.061 298.162L116.959 287.787L116.801 287.518L116.313 286.714L117.196 285.711L117.354 285.514L117.499 285.373L122.073 280.149C123.82 280.664 125.526 281.329 127.173 282.14C128.149 282.62 129.098 283.156 130.02 283.735C133.747 286.064 137.001 289.17 139.589 292.869C140.129 293.645 140.657 294.478 141.144 295.311C145 301.905 146.676 309.696 145.902 317.432C145.81 318.265 145.704 319.126 145.559 319.987Z" fill="#F0F0F0"/>
<path d="M128.399 319.804C128.636 312.646 121.598 309.682 116.893 307.367L113.585 312.293L113.809 314.806L114.02 316.938C115.066 317.395 115.996 318.111 116.735 319.027C116.84 319.193 116.912 319.38 116.948 319.576C116.985 319.772 116.984 319.975 116.946 320.171C116.748 321.046 116.023 321.512 114.415 321.399L114.56 322.909L113.796 321.328C113.267 321.26 112.743 321.156 112.227 321.018C108.414 319.998 104.907 317.952 102.039 315.074L97.4392 321.667L96.5693 322.924C99.7759 325.977 103.596 328.199 107.733 329.417L107.917 329.488L107.153 332.961L106.757 334.824L113.347 336.49L114.56 330.843C122.165 331.309 126.883 327.469 128.056 322.006C128.245 321.287 128.36 320.549 128.399 319.804ZM114.837 300.365L111.529 292.869C106.098 293.603 102.738 296.991 101.736 301.579V301.861C100.286 309.4 106.098 312.872 110.962 315.329L109.644 312.604L108.985 311.263L112.939 304.205C112.9 304.023 112.9 303.835 112.939 303.654C113.007 303.341 113.153 303.053 113.361 302.821C113.527 302.656 113.719 302.522 113.927 302.426L114.929 300.492L114.837 300.365ZM130.824 299.08C128.357 296.992 125.564 295.391 122.573 294.351L122.969 292.502L123.747 288.958H123.562L117.104 287.335L116.985 287.885L123.114 298.191L120.741 301.72L119.7 303.273C122.106 304.271 124.335 305.704 126.29 307.508L131.562 299.701L130.824 299.08Z" fill="#E0E0E0"/>
<path d="M117.921 305.842L116.893 307.367L113.585 312.294L113.809 314.806C115.97 315.922 117.433 316.938 117.157 318.265C117.102 318.563 116.953 318.832 116.735 319.027C116.366 319.27 115.956 319.432 115.529 319.504C115.101 319.577 114.665 319.559 114.244 319.451L114.415 321.399L114.56 322.909L113.796 321.328L112.754 319.183L112.438 319.112C108.632 318.089 105.128 316.055 102.25 313.197L96.7803 320.99C96.9912 321.201 97.202 321.427 97.4393 321.639C100.595 324.365 104.237 326.373 108.141 327.54L107.733 329.389L106.968 332.904H107.153L113.624 334.514L114.837 328.867C122.442 329.333 127.16 325.493 128.346 320.03V319.747C129.981 311.687 122.995 308.313 117.921 305.842ZM113.071 301.791C113.229 301.071 113.743 300.52 114.837 300.379L111.529 292.883L110.712 291.104C108.254 291.462 105.996 292.746 104.342 294.724C102.688 296.703 101.745 299.248 101.683 301.904C101.499 307.423 105.558 310.458 109.591 312.646L108.932 311.305L112.886 304.247L113.506 303.132C113.427 303.047 113.374 302.948 113.308 302.863C113.198 302.714 113.12 302.54 113.079 302.355C113.038 302.17 113.035 301.977 113.071 301.791ZM122.943 292.502H122.758L123.536 288.972L123.931 287.095L117.499 285.486L117.354 285.627L117.196 285.824L116.801 287.631L116.959 287.9L123.088 298.205L120.715 301.734C122.817 302.697 124.776 303.986 126.528 305.56L130.877 299.052L131.747 297.753C129.167 295.394 126.174 293.608 122.943 292.502Z" fill="#F5F5F5"/>
<path d="M511.66 89.5009L516.405 88.2587L521.044 108.093L532.392 113.98L533.473 128.365L542.159 134.576L531.022 129.183L529.545 116.761L517.763 110.45L511.66 89.5009Z" fill="#407BFF"/>
<path d="M511.66 89.5009L516.405 88.2587L521.044 108.093L532.392 113.98L533.473 128.365L542.159 134.576L531.022 129.183L529.545 116.761L517.763 110.45L511.66 89.5009Z" fill="#E0E0E0"/>
<path d="M570.931 105.185C571.169 105.679 571.393 106.159 571.603 106.597C574.564 113.383 575.832 120.875 575.286 128.343C574.74 135.81 572.396 142.999 568.485 149.209C564.574 155.418 559.227 160.436 552.967 163.775C546.707 167.114 539.746 168.658 532.762 168.259C529.577 168.067 526.423 167.48 523.365 166.509C522.429 166.212 521.519 165.873 520.61 165.506C516.596 163.886 512.85 161.589 509.512 158.702C508.853 158.137 508.194 157.558 507.588 156.937C503.668 153.095 500.497 148.461 498.257 143.3C498.046 142.82 497.835 142.34 497.65 141.889C494.042 132.757 493.464 122.576 496.014 113.043C498.563 103.511 504.086 95.2017 511.661 89.501L514.297 98.3523L515.233 101.529L517.869 110.45L520.926 112.088L522.547 112.963L529.48 116.662L529.651 116.761L529.915 118.977L530.007 119.754L530.166 121.038L531.128 129.184L532.446 129.805L535.082 131.061L538.746 132.84L540.802 133.842L542.317 134.576L541.329 133.475L540.011 132.063L538.39 130.242L537.006 128.704L535.372 126.868L535.134 120.812L535.068 118.935L534.937 115.716L534.858 113.81L534.686 109.462L523.918 105.425L523.655 105.312L522.798 105.001L522.917 103.59V103.321V103.11L523.496 96.0513L523.8 92.4938L524.564 83.092C527.279 82.3169 530.062 81.8438 532.867 81.6803C533.843 81.6803 534.818 81.6097 535.793 81.6803C540.022 81.77 544.212 82.5703 548.209 84.0519C549.079 84.3907 549.949 84.7295 550.845 85.1248C557.08 87.964 562.547 92.4404 566.74 98.1406C568.347 100.338 569.751 102.697 570.931 105.185Z" fill="#407BFF"/>
<path d="M570.931 105.185C571.169 105.679 571.393 106.159 571.603 106.597C574.564 113.383 575.832 120.875 575.286 128.343C574.74 135.81 572.396 142.999 568.485 149.209C564.574 155.418 559.227 160.436 552.967 163.775C546.707 167.114 539.746 168.658 532.762 168.259C529.577 168.067 526.423 167.48 523.365 166.509C522.429 166.212 521.519 165.873 520.61 165.506C516.596 163.886 512.85 161.589 509.512 158.702C508.853 158.137 508.194 157.558 507.588 156.937C503.668 153.095 500.497 148.461 498.257 143.3C498.046 142.82 497.835 142.34 497.65 141.889C494.042 132.757 493.464 122.576 496.014 113.043C498.563 103.511 504.086 95.2017 511.661 89.501L514.297 98.3523L515.233 101.529L517.869 110.45L520.926 112.088L522.547 112.963L529.48 116.662L529.651 116.761L529.915 118.977L530.007 119.754L530.166 121.038L531.128 129.184L532.446 129.805L535.082 131.061L538.746 132.84L540.802 133.842L542.317 134.576L541.329 133.475L540.011 132.063L538.39 130.242L537.006 128.704L535.372 126.868L535.134 120.812L535.068 118.935L534.937 115.716L534.858 113.81L534.686 109.462L523.918 105.425L523.655 105.312L522.798 105.001L522.917 103.59V103.321V103.11L523.496 96.0513L523.8 92.4938L524.564 83.092C527.279 82.3169 530.062 81.8438 532.867 81.6803C533.843 81.6803 534.818 81.6097 535.793 81.6803C540.022 81.77 544.212 82.5703 548.209 84.0519C549.079 84.3907 549.949 84.7295 550.845 85.1248C557.08 87.964 562.547 92.4404 566.74 98.1406C568.347 100.338 569.751 102.697 570.931 105.185Z" fill="#F5F5F5"/>
<path d="M514.231 98.3523L515.167 101.529C509.996 106.281 506.353 112.658 504.756 119.753C503.159 126.848 503.689 134.301 506.27 141.056C506.046 140.576 505.822 140.11 505.611 139.644C502.598 132.706 501.81 124.896 503.369 117.429C504.928 109.962 508.746 103.255 514.231 98.3523Z" fill="#E0E0E0"/>
<path d="M564.236 110.323C564.447 110.817 564.658 111.297 564.842 111.735C564.46 110.959 564.051 110.196 563.63 109.476C559.778 102.897 553.977 97.891 547.155 95.2607C546.285 94.9219 545.402 94.6254 544.519 94.3572C540.352 93.1705 536.006 92.8826 531.734 93.5102C530.68 93.6655 529.612 93.8772 528.571 94.1455C526.811 94.6021 525.091 95.2208 523.431 95.9948L523.734 92.4373C531.349 89.4428 539.737 89.6191 547.237 92.9312C554.737 96.2434 560.804 102.45 564.236 110.323Z" fill="#E0E0E0"/>
<path d="M564.843 111.777C568.006 120.02 568.087 129.251 565.069 137.556C562.051 145.861 556.165 152.603 548.631 156.387C548.262 156.57 547.933 156.74 547.577 156.895C547.221 157.05 546.865 157.22 546.496 157.361L546.232 157.474L545.046 157.911L544.888 157.982C543.593 158.425 542.272 158.778 540.934 159.041C540.499 159.139 540.051 159.224 539.616 159.281C538.72 159.422 537.837 159.521 536.98 159.577H536.11H533.896C533.435 159.577 532.973 159.577 532.578 159.492L531.26 159.351L530.126 159.182L529.402 159.055L528.835 158.942L528.149 158.787L527.082 158.518C526.752 158.434 526.449 158.349 526.133 158.236H525.922L524.604 157.784C524.195 157.643 523.787 157.474 523.378 157.304C523.128 157.191 522.891 157.078 522.64 156.994L521.915 156.641L521.23 156.302C520.993 156.175 520.742 156.062 520.505 155.921L519.793 155.526L519.108 155.116C518.634 154.848 518.172 154.537 517.698 154.213L517.144 153.817C516.689 153.502 516.25 153.163 515.826 152.801C515.604 152.648 515.393 152.478 515.194 152.293C514.525 151.749 513.883 151.169 513.269 150.556L512.768 150.062L511.701 148.919C511.371 148.524 511.029 148.128 510.699 147.719C510.554 147.535 510.383 147.338 510.238 147.14C510.093 146.943 510.093 146.957 510.027 146.844L509.552 146.237C509.538 146.199 509.516 146.165 509.487 146.138C509.312 145.902 509.15 145.657 508.999 145.404C508.803 145.143 508.622 144.87 508.459 144.585C508.272 144.323 508.101 144.05 507.945 143.766C507.8 143.54 507.668 143.314 507.536 143.089L507.312 142.651L506.969 142.044C506.824 141.733 506.679 141.451 506.521 141.155C503.94 134.4 503.41 126.947 505.007 119.851C506.604 112.756 510.246 106.38 515.418 101.627L518.054 110.549L521.111 112.187L522.732 113.062L529.665 116.761L529.837 116.859L530.1 119.076L530.192 119.852L530.351 121.137L531.313 129.282L532.631 129.903L535.267 131.16L538.931 132.939L540.987 133.941L542.502 134.675L541.514 133.574L540.196 132.162L538.575 130.341L537.191 128.802L535.557 126.967L535.319 120.911L535.253 119.033L535.122 115.815L535.043 113.909L534.871 109.561L524.103 105.524L523.84 105.411L522.983 105.1L523.102 103.688V103.42V103.208L523.681 96.15C525.342 95.3761 527.062 94.7573 528.822 94.3007C529.863 94.0325 530.93 93.8207 531.985 93.6654C536.257 93.0378 540.602 93.3257 544.769 94.5124C545.653 94.7807 546.549 95.0771 547.405 95.4018C554.225 98.0444 560.024 103.053 563.88 109.632C564.105 110.239 564.46 111.001 564.843 111.777Z" fill="#F0F0F0"/>
<path d="M551.253 122.986C547.299 117.212 540.076 119.527 535.042 120.826L535.279 126.868L536.913 128.703L538.297 130.242C539.386 129.911 540.533 129.858 541.645 130.087C541.824 130.145 541.989 130.243 542.13 130.374C542.271 130.505 542.384 130.667 542.462 130.849C542.818 131.668 542.462 132.515 541.144 133.475L542.132 134.576L540.643 133.913C540.186 134.202 539.716 134.466 539.233 134.703C535.645 136.421 531.709 137.135 527.793 136.778L527.951 144.952V146.519C532.236 146.793 536.523 146.016 540.485 144.246L540.669 144.176L542.08 147.408L542.831 149.145L549.026 146.053L546.745 140.83C552.993 136.171 554.482 130.03 552.268 124.963C551.993 124.269 551.653 123.606 551.253 122.986ZM529.374 116.662L522.442 112.963C518.606 117.198 517.908 122.012 519.806 126.289L519.924 126.544C523.127 133.433 529.704 132.317 534.949 131.019L532.313 129.762L530.995 129.141L530.033 120.996C529.9 120.881 529.792 120.736 529.717 120.572C529.591 120.276 529.54 119.95 529.572 119.626C529.61 119.386 529.681 119.153 529.783 118.935L529.519 116.718L529.374 116.662ZM541.236 105.072C538.087 105.058 534.961 105.656 532.01 106.836L531.259 105.128L529.809 101.825L529.651 101.91L523.628 104.902L523.852 105.425L534.62 109.462L534.791 113.81L534.87 115.716C537.341 114.913 539.922 114.569 542.501 114.7L542.106 105.1L541.236 105.072Z" fill="#E0E0E0"/>
<path d="M534.963 118.935L535.029 120.812L535.267 126.868L536.901 128.704C539.234 128.153 540.973 127.984 541.514 129.198C541.637 129.474 541.678 129.785 541.633 130.087C541.514 130.694 540.987 131.343 539.906 132.063L541.224 133.475L542.212 134.576L540.644 133.913L538.588 132.91L538.298 133.066C534.709 134.778 530.772 135.487 526.858 135.127L527.042 144.882L527.952 144.952C532.019 145.022 536.057 144.195 539.814 142.524L540.565 144.246L541.988 147.507L542.16 147.408L548.17 144.402L545.89 139.192C552.137 134.52 553.639 128.379 551.425 123.311L551.293 123.043C547.814 115.561 540.38 117.523 534.963 118.935ZM528.808 118.935C528.652 118.538 528.623 118.097 528.726 117.681C528.828 117.264 529.056 116.896 529.375 116.634L522.442 112.935L520.821 112.06C519.35 113.695 518.373 115.767 518.018 118.006C517.663 120.245 517.946 122.546 518.831 124.61C519.118 125.284 519.471 125.923 519.886 126.515C522.93 130.99 527.873 130.68 532.301 129.734L530.983 129.113L530.021 120.968L529.863 119.683L529.56 119.598C529.4 119.555 529.25 119.476 529.121 119.366C528.991 119.257 528.885 119.119 528.808 118.963V118.935ZM531.22 105.1H531.036L529.612 101.811L528.835 100.06L522.851 103.053V103.265V103.533L523.589 105.213L523.853 105.326L534.621 109.363L534.792 113.711C537 113.111 539.277 112.854 541.553 112.949L541.224 104.973V103.364C537.812 103.22 534.409 103.82 531.22 105.128V105.1Z" fill="#F5F5F5"/>
<path d="M545.877 47.3621C543.359 41.0942 537.033 29.3914 523.971 26.1868C512.004 23.2646 502.976 39.4567 495.555 40.6566C488.135 41.8566 488.965 38.2709 474.138 32.2994C461.446 27.2032 452.944 40.459 449.939 47.3621H545.877Z" fill="#F5F5F5"/>
<path d="M165.686 141.508C165.686 141.508 165.686 129.819 154.97 129.339C149.856 129.099 143.596 133.574 139.642 126.515C135.055 118.271 127.029 113.358 119.872 116.549C111.898 120.078 107.364 133.588 99.5747 132.487C91.7854 131.386 76.9051 125.824 69.2607 141.536L165.686 141.508Z" fill="#F5F5F5"/>
<path d="M584.125 246.001C584.125 246.001 584.125 234.326 573.409 233.832C568.282 233.606 562.035 238.067 558.081 231.009C553.494 222.75 545.468 217.837 538.245 221.042C530.258 224.557 525.737 238.081 517.948 236.966C510.158 235.851 495.278 230.303 487.634 246.015L584.125 246.001Z" fill="#F5F5F5"/>
<path d="M326.192 516C480.509 516 605.608 512.164 605.608 507.431C605.608 502.699 480.509 498.862 326.192 498.862C171.875 498.862 46.7759 502.699 46.7759 507.431C46.7759 512.164 171.875 516 326.192 516Z" fill="#F0F0F0"/>
<path d="M313.301 429.336V415.925C313.303 415.815 313.284 415.705 313.246 415.602C313.208 415.5 313.151 415.406 313.078 415.327C313.006 415.248 312.919 415.186 312.824 415.143C312.729 415.1 312.627 415.078 312.524 415.078H305.775V412.919H312.576C313.32 412.922 314.032 413.24 314.558 413.803C315.083 414.366 315.38 415.129 315.384 415.925V429.336H313.301Z" fill="#263238"/>
<path d="M266.315 415.925V429.336H264.285V415.925C264.289 415.129 264.586 414.366 265.111 413.803C265.637 413.24 266.349 412.922 267.092 412.919H273.893V415.078H267.092C266.885 415.082 266.687 415.173 266.542 415.331C266.396 415.49 266.315 415.703 266.315 415.925Z" fill="#263238"/>
<path d="M237.648 435.012V502.66C237.648 504.157 238.204 505.593 239.193 506.652C240.181 507.711 241.522 508.306 242.92 508.306H334.087C335.485 508.306 336.826 507.711 337.814 506.652C338.803 505.593 339.359 504.157 339.359 502.66V435.012C339.359 433.514 338.803 432.078 337.814 431.019C336.826 429.96 335.485 429.365 334.087 429.365H242.96C242.264 429.359 241.575 429.501 240.93 429.782C240.286 430.064 239.7 430.479 239.207 431.004C238.713 431.529 238.321 432.153 238.053 432.841C237.786 433.529 237.648 434.266 237.648 435.012Z" fill="#407BFF"/>
<g opacity="0.3">
<path d="M237.648 435.012V502.66C237.648 504.157 238.204 505.593 239.193 506.652C240.181 507.711 241.522 508.306 242.92 508.306H334.087C335.485 508.306 336.826 507.711 337.814 506.652C338.803 505.593 339.359 504.157 339.359 502.66V435.012C339.359 433.514 338.803 432.078 337.814 431.019C336.826 429.96 335.485 429.365 334.087 429.365H242.96C242.264 429.359 241.575 429.501 240.93 429.782C240.286 430.064 239.7 430.479 239.207 431.004C238.713 431.529 238.321 432.153 238.053 432.841C237.786 433.529 237.648 434.266 237.648 435.012Z" fill="white"/>
</g>
<path d="M255.073 429.336H251.026V508.363H255.073V429.336Z" fill="#263238"/>
<path d="M326.06 429.336H322.014V508.363H326.06V429.336Z" fill="#263238"/>
<path d="M271.811 417.605H308.53V410.392H271.811V417.605Z" fill="#407BFF"/>
<path d="M371.887 422.391L377.132 422.532L376.697 444.456L386.886 453.985L384.223 469.203L391.564 478.251L381.469 469.301L383.208 456.003L372.678 445.896L371.887 422.391Z" fill="#407BFF"/>
<path opacity="0.6" d="M371.887 422.391L377.132 422.532L376.697 444.456L386.886 453.985L384.223 469.203L391.564 478.251L381.469 469.301L383.208 456.003L372.678 445.896L371.887 422.391Z" fill="black"/>
<path d="M429.088 456.554C429.207 457.118 429.312 457.683 429.391 458.248C430.822 467.085 429.834 476.177 426.549 484.427C423.264 492.677 417.82 499.733 410.875 504.744C403.93 509.755 395.78 512.507 387.407 512.668C379.035 512.829 370.798 510.393 363.689 505.652C362.806 505.059 361.936 504.438 361.053 503.789C357.33 500.891 354.06 497.38 351.366 493.385C350.838 492.608 350.324 491.804 349.837 490.985C346.799 485.818 344.739 480.062 343.774 474.045C343.677 473.48 343.598 472.915 343.537 472.351C342.225 461.813 344.318 451.112 349.468 442.024C354.618 432.937 362.515 426.009 371.847 422.391L372.177 432.273L372.309 435.844L372.638 445.853L375.379 448.479L376.829 449.891L383.011 455.82L383.169 455.975L382.853 458.347L382.76 459.179L382.576 460.591L381.429 469.301L382.589 470.346L384.961 472.435L388.283 475.372L390.154 477.037L391.472 478.251L390.734 476.84L389.812 474.99L388.599 472.605L387.571 470.6L386.372 468.214L387.69 461.876L388.098 459.914L388.823 456.54L389.245 454.535L390.22 449.989L380.137 442.55L379.887 442.352L379.096 441.773L379.571 440.362L379.65 440.093L379.729 439.882L382.22 432.696L383.459 429.111L386.741 419.624C389.754 419.641 392.758 419.995 395.703 420.683C396.731 420.923 397.746 421.191 398.748 421.516C403.097 422.892 407.22 424.988 410.965 427.727C411.783 428.334 412.587 428.955 413.364 429.619C416.155 431.977 418.668 434.688 420.85 437.694C423.12 440.849 425.003 444.303 426.452 447.971C427.596 450.73 428.479 453.606 429.088 456.554Z" fill="#407BFF"/>
<path d="M429.088 456.554C429.207 457.118 429.312 457.683 429.391 458.248C430.822 467.085 429.834 476.177 426.549 484.427C423.264 492.677 417.82 499.733 410.875 504.744C403.93 509.755 395.78 512.507 387.407 512.668C379.035 512.829 370.798 510.393 363.689 505.652C362.806 505.059 361.936 504.438 361.053 503.789C357.33 500.891 354.06 497.38 351.366 493.385C350.838 492.608 350.324 491.804 349.837 490.985C346.799 485.818 344.739 480.062 343.774 474.045C343.677 473.48 343.598 472.915 343.537 472.351C342.225 461.813 344.318 451.112 349.468 442.024C354.618 432.937 362.515 426.009 371.847 422.391L372.177 432.273L372.309 435.844L372.638 445.853L375.379 448.479L376.829 449.891L383.011 455.82L383.169 455.975L382.853 458.347L382.76 459.179L382.576 460.591L381.429 469.301L382.589 470.346L384.961 472.435L388.283 475.372L390.154 477.037L391.472 478.251L390.734 476.84L389.812 474.99L388.599 472.605L387.571 470.6L386.372 468.214L387.69 461.876L388.098 459.914L388.823 456.54L389.245 454.535L390.22 449.989L380.137 442.55L379.887 442.352L379.096 441.773L379.571 440.362L379.65 440.093L379.729 439.882L382.22 432.696L383.459 429.111L386.741 419.624C389.754 419.641 392.758 419.995 395.703 420.683C396.731 420.923 397.746 421.191 398.748 421.516C403.097 422.892 407.22 424.988 410.965 427.727C411.783 428.334 412.587 428.955 413.364 429.619C416.155 431.977 418.668 434.688 420.85 437.694C423.12 440.849 425.003 444.303 426.452 447.971C427.596 450.73 428.479 453.606 429.088 456.554Z" fill="#407BFF"/>
<path opacity="0.6" d="M372.216 432.315L372.348 435.887C365.732 439.238 360.272 444.74 356.746 451.61C353.22 458.479 351.807 466.364 352.71 474.143C352.591 473.593 352.499 473.028 352.407 472.464C351.113 464.368 352.354 456.042 355.937 448.781C359.52 441.52 365.243 435.731 372.216 432.315Z" fill="black"/>
<path opacity="0.6" d="M420.811 459.829C420.907 460.403 420.987 460.968 421.048 461.523C420.864 460.605 420.639 459.702 420.389 458.813C418.143 450.837 413.459 443.901 407.09 439.12C406.286 438.498 405.443 437.934 404.599 437.397C400.602 434.9 396.179 433.282 391.591 432.64C390.457 432.485 389.297 432.386 388.151 432.343C386.211 432.291 384.272 432.414 382.352 432.71L383.59 429.125C392.257 428.323 400.889 431.032 407.78 436.717C414.672 442.402 419.322 450.649 420.811 459.829Z" fill="black"/>
<g opacity="0.3">
<path d="M421.048 461.523C422.151 471.011 419.8 480.589 414.485 488.27C409.169 495.95 401.296 501.144 392.5 502.772C392.1 502.868 391.695 502.939 391.288 502.984L390.049 503.139H389.732L388.414 503.238H388.23C386.789 503.309 385.345 503.281 383.907 503.154L382.483 503.012C381.521 502.885 380.585 502.716 379.65 502.504L378.74 502.293L378.253 502.151C378.012 502.099 377.775 502.033 377.541 501.954C377.172 501.855 376.803 501.742 376.447 501.615C376.091 501.488 375.511 501.29 375.05 501.121L373.732 500.57L372.612 500.048L371.9 499.695L371.32 499.413L370.661 499.046L369.62 498.439C369.317 498.255 369.013 498.072 368.723 497.86L368.513 497.733L367.274 496.872L366.127 496.01L365.442 495.46L364.783 494.881L364.163 494.331L363.504 493.709C363.306 493.498 363.096 493.3 362.872 493.088L362.278 492.467C361.857 492.03 361.461 491.564 361.066 491.055C360.895 490.872 360.736 490.674 360.578 490.477C360.183 490.011 359.814 489.517 359.458 489.065C359.275 488.835 359.104 488.594 358.944 488.345C358.395 487.579 357.885 486.783 357.415 485.959C357.27 485.733 357.151 485.522 357.02 485.296C356.756 484.802 356.479 484.308 356.216 483.799V483.729C355.965 483.221 355.715 482.712 355.478 482.19C355.385 481.95 355.267 481.696 355.161 481.456L355.016 481.075C354.898 480.835 354.805 480.567 354.7 480.313C354.702 480.27 354.702 480.228 354.7 480.185C354.581 479.889 354.476 479.593 354.384 479.282C354.252 478.95 354.138 478.611 354.041 478.266C353.922 477.941 353.817 477.602 353.725 477.263C353.632 476.924 353.566 476.727 353.487 476.445L353.356 475.922C353.29 475.682 353.237 475.428 353.171 475.188C353.105 474.948 353.026 474.482 352.947 474.129C352.045 466.35 353.457 458.465 356.983 451.595C360.509 444.726 365.969 439.224 372.585 435.873L372.915 445.881L375.656 448.507L377.106 449.919L383.287 455.848L383.445 456.003L383.129 458.375L383.037 459.208L382.852 460.619L381.706 469.33L382.866 470.374L385.238 472.464L388.559 475.4L390.431 477.066L391.749 478.28L391.011 476.868L390.088 475.019L388.876 472.633L387.848 470.628L386.648 468.243L387.966 461.904L388.375 459.942L389.1 456.568L389.521 454.563L390.497 450.018L380.414 442.578L380.164 442.38L379.373 441.802L379.847 440.39L379.926 440.122L380.006 439.91L382.497 432.725C384.417 432.428 386.356 432.305 388.296 432.357C389.442 432.357 390.602 432.499 391.736 432.654C396.284 433.317 400.665 434.939 404.626 437.425C405.469 437.962 406.313 438.527 407.117 439.148C413.491 443.918 418.183 450.843 420.442 458.813C420.639 459.702 420.864 460.605 421.048 461.523Z" fill="black"/>
</g>
<g opacity="0.6">
<path d="M404.033 469.005C401.489 461.848 393.37 462.045 387.835 461.876L386.517 468.214L387.716 470.6L388.744 472.605C389.958 472.595 391.157 472.885 392.25 473.452C392.418 473.57 392.562 473.724 392.673 473.903C392.784 474.083 392.86 474.285 392.896 474.496C393.041 475.456 392.514 476.233 390.879 476.84L391.617 478.251L390.299 477.037C389.812 477.179 389.258 477.306 388.625 477.433C384.457 478.12 380.195 477.664 376.236 476.106L374.246 484.576L373.864 486.213C378.23 487.782 382.873 488.265 387.439 487.625H387.492L388.098 491.408L388.428 493.427L395.65 492.1L394.662 486.016C402.359 483.079 405.522 477.179 404.573 471.249C404.457 470.485 404.276 469.734 404.033 469.005ZM383.05 455.848L376.869 449.919C371.781 453.081 369.778 457.923 370.582 462.906V463.203C372.085 471.292 379.175 472.125 384.948 472.379L382.576 470.289L381.416 469.245L382.563 460.535C382.46 460.372 382.389 460.19 382.352 459.998C382.296 459.657 382.328 459.305 382.444 458.982C382.542 458.74 382.676 458.516 382.839 458.318L383.156 455.947L383.05 455.848ZM398.339 447.378C395.085 446.419 391.696 446.099 388.336 446.432L388.006 444.427L387.387 440.573H387.189L380.177 441.858L380.269 442.465L390.352 449.905L389.377 454.45L388.955 456.455C391.722 456.361 394.483 456.786 397.113 457.711L399.235 447.66L398.339 447.378Z" fill="black"/>
</g>
<path d="M388.23 459.9L387.821 461.862L386.503 468.2L387.702 470.586C390.273 470.727 392.118 471.08 392.355 472.506C392.416 472.822 392.374 473.151 392.236 473.438C391.96 474.045 391.248 474.553 389.943 474.976L390.866 476.826L391.604 478.237L390.286 477.023L388.414 475.358L388.071 475.428C383.889 476.137 379.606 475.69 375.63 474.129L373.257 484.265C373.547 484.392 373.837 484.505 374.167 484.618C378.343 485.905 382.72 486.265 387.03 485.677L387.36 487.682L387.966 491.493H388.164L395.175 490.194L394.2 484.11C401.897 481.174 405.06 475.273 404.112 469.344V469.033C402.424 460.267 394.213 460.013 388.23 459.9ZM381.864 458.05C381.808 457.595 381.894 457.132 382.108 456.734C382.323 456.335 382.654 456.024 383.05 455.848L376.868 449.919L375.419 448.507C371.017 451.684 369.29 456.229 370.041 460.902C370.165 461.684 370.363 462.451 370.634 463.189C372.598 468.723 377.804 469.908 382.628 470.247L381.468 469.203L382.615 460.492L382.799 459.081C382.694 459.033 382.593 458.976 382.496 458.911C382.343 458.82 382.207 458.697 382.099 458.549C381.99 458.401 381.91 458.232 381.864 458.05ZM388.006 444.47H387.795L387.188 440.63L386.859 438.597L379.86 439.882L379.781 440.094L379.702 440.362L380.018 442.324L380.269 442.522L390.352 449.961L389.376 454.507C391.82 454.55 394.245 454.978 396.573 455.777L398.339 447.406L398.695 445.726C395.244 444.553 391.61 444.131 388.006 444.484V444.47Z" fill="#407BFF"/>
<path d="M252.621 34.7699L254.941 23.8011C254.986 23.5982 254.968 23.3852 254.889 23.1943C254.811 23.0034 254.677 22.8449 254.507 22.7429C254.338 22.6408 254.142 22.6007 253.949 22.6286C253.756 22.6565 253.577 22.751 253.438 22.8976L245.899 30.7183C245.899 30.7183 248.377 35.1793 252.621 34.7699Z" fill="#407BFF"/>
<g opacity="0.4">
<path d="M252.621 34.7699L254.941 23.8011C254.986 23.5982 254.968 23.3852 254.889 23.1943C254.811 23.0034 254.677 22.8449 254.507 22.7429C254.338 22.6408 254.142 22.6007 253.949 22.6286C253.756 22.6565 253.577 22.751 253.438 22.8976L245.899 30.7183C245.899 30.7183 248.377 35.1793 252.621 34.7699Z" fill="white"/>
</g>
<path d="M259.001 55.9452L263.376 55.0276L265.564 54.5759L269.294 53.7995C269.484 53.7599 269.658 53.6552 269.788 53.5012C269.918 53.3472 269.998 53.1522 270.016 52.9454C270.033 52.7386 269.988 52.5312 269.887 52.3543C269.785 52.1774 269.633 52.0405 269.452 51.9643L264.694 49.8891L259.725 47.7998C259.725 47.7998 257.01 51.9502 259.001 55.9452Z" fill="#407BFF"/>
<g opacity="0.4">
<path d="M259.001 55.9452L263.376 55.0276L265.564 54.5759L269.294 53.7995C269.484 53.7599 269.658 53.6552 269.788 53.5012C269.918 53.3472 269.998 53.1522 270.016 52.9454C270.033 52.7386 269.988 52.5312 269.887 52.3543C269.785 52.1774 269.633 52.0405 269.452 51.9643L264.694 49.8891L259.725 47.7998C259.725 47.7998 257.01 51.9502 259.001 55.9452Z" fill="white"/>
</g>
<path d="M226.038 36.7463L216.153 32.9771C215.981 32.9251 215.798 32.9296 215.628 32.9899C215.458 33.0502 215.309 33.1636 215.2 33.3155C215.091 33.4673 215.026 33.6507 215.015 33.842C215.004 34.0332 215.047 34.2237 215.138 34.3888L221.478 43.3389C221.478 43.3389 225.906 41.306 226.038 36.7463Z" fill="#407BFF"/>
<g opacity="0.4">
<path d="M226.038 36.7463L216.153 32.9771C215.981 32.9251 215.798 32.9296 215.628 32.9899C215.458 33.0502 215.309 33.1636 215.2 33.3155C215.091 33.4673 215.026 33.6507 215.015 33.842C215.004 34.0332 215.047 34.2237 215.138 34.3888L221.478 43.3389C221.478 43.3389 225.906 41.306 226.038 36.7463Z" fill="white"/>
</g>
<path d="M257.327 48.7456L265.96 42.3789C266.119 42.2618 266.238 42.0929 266.3 41.8974C266.362 41.7018 266.364 41.49 266.305 41.2934C266.245 41.0968 266.129 40.9259 265.972 40.8061C265.814 40.6863 265.625 40.624 265.433 40.6284L254.889 40.8966C254.889 40.8966 253.953 45.9646 257.327 48.7456Z" fill="#407BFF"/>
<path opacity="0.4" d="M257.327 48.7456L265.96 42.3789C266.119 42.2618 266.238 42.0929 266.3 41.8974C266.362 41.7018 266.364 41.49 266.305 41.2934C266.245 41.0968 266.129 40.9259 265.972 40.8061C265.814 40.6863 265.625 40.624 265.433 40.6284L254.889 40.8966C254.889 40.8966 253.953 45.9646 257.327 48.7456Z" fill="white"/>
<path d="M228.555 63.3283L225.774 74.1418C225.725 74.3397 225.737 74.5492 225.807 74.7396C225.877 74.9301 226.002 75.0915 226.164 75.2003C226.326 75.309 226.516 75.3595 226.707 75.3443C226.897 75.3292 227.079 75.2491 227.224 75.1159L235.132 67.6763C235.132 67.6763 232.812 63.06 228.555 63.3283Z" fill="#407BFF"/>
<g opacity="0.4">
<path d="M228.555 63.3283L225.774 74.1418C225.725 74.3397 225.737 74.5492 225.807 74.7396C225.877 74.9301 226.002 75.0915 226.164 75.2003C226.326 75.309 226.516 75.3595 226.707 75.3443C226.897 75.3292 227.079 75.2491 227.224 75.1159L235.132 67.6763C235.132 67.6763 232.812 63.06 228.555 63.3283Z" fill="white"/>
</g>
<path d="M239.02 70.5279L244.951 79.7744C245.06 79.9446 245.218 80.0725 245.4 80.139C245.583 80.2055 245.78 80.2072 245.964 80.1438C246.147 80.0804 246.307 79.9553 246.419 79.787C246.531 79.6187 246.589 79.4163 246.585 79.2098L246.334 67.9163C246.334 67.9163 241.616 66.914 239.02 70.5279Z" fill="#407BFF"/>
<g opacity="0.4">
<path d="M239.02 70.5279L244.951 79.7744C245.06 79.9446 245.218 80.0725 245.4 80.139C245.583 80.2055 245.78 80.2072 245.964 80.1438C246.147 80.0804 246.307 79.9553 246.419 79.787C246.531 79.6187 246.589 79.4163 246.585 79.2098L246.334 67.9163C246.334 67.9163 241.616 66.914 239.02 70.5279Z" fill="white"/>
</g>
<path d="M211.75 53.6019L220.383 55.3947C220.672 56.5423 221.051 57.6615 221.517 58.7404L216.627 63.879C216.49 64.0241 216.401 64.2125 216.372 64.4162C216.343 64.6199 216.376 64.8282 216.466 65.0103C216.556 65.1923 216.699 65.3385 216.873 65.4271C217.046 65.5157 217.242 65.5421 217.431 65.5024L224.627 63.9637C225.243 64.7273 225.908 65.4443 226.617 66.1094C227.693 67.1065 228.858 67.9861 230.097 68.7352C233.606 70.8386 237.617 71.7852 241.626 71.4562C245.636 71.1272 249.466 69.5372 252.635 66.8859L253.109 66.4765L253.755 65.8836L253.834 65.7989L255.587 66.2788L259.277 67.2952C259.464 67.3497 259.661 67.3372 259.841 67.2597C260.02 67.1822 260.17 67.0439 260.269 66.8661C260.367 66.6883 260.409 66.4808 260.387 66.2753C260.365 66.0698 260.281 65.8776 260.147 65.7283L256.931 61.9167H257.01C257.313 61.4367 257.59 60.9427 257.854 60.505C259.844 56.7096 260.729 52.3634 260.395 48.025C260.061 43.6866 258.524 39.5543 255.98 36.1591C253.437 32.764 250.003 30.261 246.121 28.972C242.239 27.683 238.086 27.6669 234.196 28.9256L230.795 23.8012C230.682 23.6325 230.52 23.508 230.334 23.4463C230.149 23.3847 229.95 23.3892 229.767 23.4593C229.584 23.5294 229.427 23.6611 229.32 23.8348C229.214 24.0085 229.162 24.2147 229.174 24.4223L229.477 31.0431C228.924 31.4102 228.397 31.7913 227.869 32.2007C225.582 34.0357 223.678 36.3631 222.281 39.0333C220.768 41.8552 219.867 45.0059 219.645 48.2516L211.513 51.809C211.348 51.9007 211.214 52.0448 211.13 52.2215C211.045 52.3982 211.013 52.5987 211.039 52.7954C211.065 52.9921 211.148 53.1753 211.275 53.3198C211.402 53.4642 211.568 53.5628 211.75 53.6019Z" fill="#407BFF"/>
<g opacity="0.5">
<path d="M211.75 53.6019L220.383 55.3947C220.672 56.5423 221.051 57.6615 221.517 58.7404L216.627 63.879C216.49 64.0241 216.401 64.2125 216.372 64.4162C216.343 64.6199 216.376 64.8282 216.466 65.0103C216.556 65.1923 216.699 65.3385 216.873 65.4271C217.046 65.5157 217.242 65.5421 217.431 65.5024L224.627 63.9637C225.243 64.7273 225.908 65.4443 226.617 66.1094C227.693 67.1065 228.858 67.9861 230.097 68.7352C233.606 70.8386 237.617 71.7852 241.626 71.4562C245.636 71.1272 249.466 69.5372 252.635 66.8859L253.109 66.4765L253.755 65.8836L253.834 65.7989L255.587 66.2788L259.277 67.2952C259.464 67.3497 259.661 67.3372 259.841 67.2597C260.02 67.1822 260.17 67.0439 260.269 66.8661C260.367 66.6883 260.409 66.4808 260.387 66.2753C260.365 66.0698 260.281 65.8776 260.147 65.7283L256.931 61.9167H257.01C257.313 61.4367 257.59 60.9427 257.854 60.505C259.844 56.7096 260.729 52.3634 260.395 48.025C260.061 43.6866 258.524 39.5543 255.98 36.1591C253.437 32.764 250.003 30.261 246.121 28.972C242.239 27.683 238.086 27.6669 234.196 28.9256L230.795 23.8012C230.682 23.6325 230.52 23.508 230.334 23.4463C230.149 23.3847 229.95 23.3892 229.767 23.4593C229.584 23.5294 229.427 23.6611 229.32 23.8348C229.214 24.0085 229.162 24.2147 229.174 24.4223L229.477 31.0431C228.924 31.4102 228.397 31.7913 227.869 32.2007C225.582 34.0357 223.678 36.3631 222.281 39.0333C220.768 41.8552 219.867 45.0059 219.645 48.2516L211.513 51.809C211.348 51.9007 211.214 52.0448 211.13 52.2215C211.045 52.3982 211.013 52.5987 211.039 52.7954C211.065 52.9921 211.148 53.1753 211.275 53.3198C211.402 53.4642 211.568 53.5628 211.75 53.6019Z" fill="white"/>
</g>
<g opacity="0.5">
<path d="M228.924 42.153C227.631 44.626 227.052 47.4541 227.26 50.2796C227.468 53.1051 228.454 55.8011 230.092 58.0266C231.731 60.2521 233.949 61.907 236.466 62.7821C238.983 63.6572 241.686 63.7131 244.232 62.9429C246.779 62.1726 249.055 60.6107 250.773 58.4547C252.49 56.2987 253.572 53.6455 253.882 50.8307C254.192 48.0159 253.715 45.1659 252.513 42.6413C251.31 40.1167 249.435 38.0307 247.126 36.6474C245.593 35.7275 243.907 35.1402 242.162 34.919C240.418 34.6979 238.65 34.8473 236.959 35.3586C235.269 35.8699 233.689 36.7332 232.31 37.8991C230.931 39.0649 229.781 40.5105 228.924 42.153Z" fill="white"/>
</g>
<g opacity="0.2">
<path d="M243.593 39.3296C245.069 38.0026 247.442 38.8214 249.313 40.4872C250.25 41.3771 251.007 42.4618 251.54 43.6753C252.072 44.8888 252.368 46.2056 252.411 47.5457C253.043 53.503 248.799 61.4508 242.802 60.5332C236.806 59.6156 238.848 53.4747 243.264 52.6418C247.679 51.8089 248.048 45.6681 244.147 42.5906C242.407 41.1507 242.723 40.0637 243.593 39.3296Z" fill="#407BFF"/>
</g>
<g opacity="0.2">
<path d="M239.139 43.5647C240.186 43.489 241.236 43.6675 242.21 44.087C243.528 44.694 244.964 45.9081 244.147 48.2233C242.829 51.8089 238.163 48.2233 235.936 50.9478C233.3 54.1241 228.529 51.4278 229.939 47.9409C231.349 44.454 236.819 43.7482 239.139 43.5647Z" fill="#407BFF"/>
</g>
<g opacity="0.2">
<path d="M233.287 53.7289C234.077 53.5992 234.885 53.7411 235.596 54.1342C236.306 54.5273 236.882 55.1515 237.241 55.917C237.504 56.4383 237.608 57.0351 237.537 57.6229C237.466 58.2108 237.224 58.7597 236.845 59.1921C234.71 62.0155 230.637 56.8064 231.402 54.957C231.592 54.5974 231.866 54.2958 232.195 54.0808C232.525 53.8659 232.901 53.7447 233.287 53.7289Z" fill="#407BFF"/>
</g>
<g opacity="0.2">
<path d="M239.613 36.6193C240.366 36.6727 241.073 37.031 241.59 37.6216C241.791 37.8397 241.948 38.1003 242.051 38.3868C242.154 38.6734 242.2 38.9796 242.186 39.2862C242.172 39.5927 242.099 39.8929 241.972 40.1677C241.844 40.4425 241.665 40.6859 241.445 40.8826C239.336 43.5506 235.764 39.3579 236.634 37.7063C237.24 36.6334 238.664 36.5063 239.613 36.6193Z" fill="#407BFF"/>
</g>
<g opacity="0.2">
<path d="M234.09 43.5647C233.53 43.7705 232.917 43.7402 232.377 43.48C232.168 43.3861 231.98 43.247 231.823 43.0715C231.667 42.8959 231.546 42.6877 231.468 42.4598C231.39 42.2319 231.357 41.9893 231.37 41.747C231.384 41.5048 231.444 41.2681 231.547 41.0519C232.324 38.4262 236.12 40.3178 235.962 41.8001C235.922 42.7036 234.802 43.24 234.09 43.5647Z" fill="#407BFF"/>
</g>
<path d="M406.275 284.808L408.594 273.867C408.639 273.665 408.621 273.452 408.543 273.261C408.465 273.07 408.331 272.911 408.161 272.809C407.991 272.707 407.795 272.667 407.602 272.695C407.409 272.723 407.23 272.817 407.092 272.964L399.553 280.728C399.553 280.728 401.991 285.217 406.275 284.808Z" fill="#407BFF"/>
<g opacity="0.4">
<path d="M406.275 284.808L408.594 273.867C408.639 273.665 408.621 273.452 408.543 273.261C408.465 273.07 408.331 272.911 408.161 272.809C407.991 272.707 407.795 272.667 407.602 272.695C407.409 272.723 407.23 272.817 407.092 272.964L399.553 280.728C399.553 280.728 401.991 285.217 406.275 284.808Z" fill="white"/>
</g>
<path d="M412.653 305.983L417.029 305.066L419.217 304.614L422.947 303.823C423.139 303.789 423.315 303.687 423.448 303.535C423.581 303.382 423.662 303.186 423.68 302.978C423.698 302.77 423.652 302.562 423.548 302.385C423.444 302.209 423.288 302.074 423.105 302.002L418.347 299.927L413.378 297.781C413.378 297.781 410.597 301.988 412.653 305.983Z" fill="#407BFF"/>
<g opacity="0.4">
<path d="M412.653 305.983L417.029 305.066L419.217 304.614L422.947 303.823C423.139 303.789 423.315 303.687 423.448 303.535C423.581 303.382 423.662 303.186 423.68 302.978C423.698 302.77 423.652 302.562 423.548 302.385C423.444 302.209 423.288 302.074 423.105 302.002L418.347 299.927L413.378 297.781C413.378 297.781 410.597 301.988 412.653 305.983Z" fill="white"/>
</g>
<path d="M379.69 286.784L369.818 283.015C369.637 282.946 369.439 282.942 369.255 283.003C369.071 283.064 368.91 283.186 368.797 283.352C368.683 283.519 368.622 283.72 368.623 283.926C368.624 284.132 368.687 284.333 368.803 284.497L375.143 293.447C375.143 293.447 379.584 291.344 379.69 286.784Z" fill="#407BFF"/>
<g opacity="0.4">
<path d="M379.69 286.784L369.818 283.015C369.637 282.946 369.439 282.942 369.255 283.003C369.071 283.064 368.91 283.186 368.797 283.352C368.683 283.519 368.622 283.72 368.623 283.926C368.624 284.132 368.687 284.333 368.803 284.497L375.143 293.447C375.143 293.447 379.584 291.344 379.69 286.784Z" fill="white"/>
</g>
<path d="M410.979 298.77L419.612 292.403C419.787 292.296 419.923 292.129 419.999 291.929C420.074 291.729 420.085 291.508 420.029 291.3C419.972 291.093 419.852 290.912 419.688 290.787C419.524 290.662 419.325 290.599 419.124 290.61L408.58 290.878C408.58 290.878 407.605 296.003 410.979 298.77Z" fill="#407BFF"/>
<path opacity="0.4" d="M410.979 298.77L419.612 292.403C419.787 292.296 419.923 292.129 419.999 291.929C420.074 291.729 420.085 291.508 420.029 291.3C419.972 291.093 419.852 290.912 419.688 290.787C419.524 290.662 419.325 290.599 419.124 290.61L408.58 290.878C408.58 290.878 407.605 296.003 410.979 298.77Z" fill="white"/>
<path d="M382.22 313.282L379.439 324.109C379.39 324.307 379.402 324.517 379.472 324.707C379.542 324.898 379.667 325.059 379.829 325.168C379.991 325.277 380.181 325.327 380.372 325.312C380.562 325.297 380.744 325.217 380.889 325.083L388.797 317.644C388.797 317.644 386.464 313.098 382.22 313.282Z" fill="#407BFF"/>
<g opacity="0.4">
<path d="M382.22 313.282L379.439 324.109C379.39 324.307 379.402 324.517 379.472 324.707C379.542 324.898 379.667 325.059 379.829 325.168C379.991 325.277 380.181 325.327 380.372 325.312C380.562 325.297 380.744 325.217 380.889 325.083L388.797 317.644C388.797 317.644 386.464 313.098 382.22 313.282Z" fill="white"/>
</g>
<path d="M392.672 320.566L398.603 329.813C398.712 329.983 398.87 330.111 399.052 330.177C399.235 330.244 399.433 330.245 399.616 330.182C399.8 330.118 399.959 329.993 400.071 329.825C400.183 329.657 400.241 329.454 400.237 329.248L399.987 317.954C399.987 317.954 395.268 316.952 392.672 320.566Z" fill="#407BFF"/>
<g opacity="0.4">
<path d="M392.672 320.566L398.603 329.813C398.712 329.983 398.87 330.111 399.052 330.177C399.235 330.244 399.433 330.245 399.616 330.182C399.8 330.118 399.959 329.993 400.071 329.825C400.183 329.657 400.241 329.454 400.237 329.248L399.987 317.954C399.987 317.954 395.268 316.952 392.672 320.566Z" fill="white"/>
</g>
<path d="M365.403 303.64L374.036 305.433C374.325 306.58 374.704 307.7 375.169 308.778L370.293 313.917C370.158 314.061 370.07 314.248 370.041 314.45C370.012 314.652 370.044 314.858 370.133 315.039C370.221 315.22 370.36 315.366 370.532 315.457C370.703 315.547 370.896 315.576 371.084 315.54L378.28 314.002C378.896 314.765 379.561 315.482 380.27 316.147C381.346 317.144 382.511 318.024 383.75 318.773C387.259 320.877 391.27 321.823 395.279 321.494C399.289 321.165 403.118 319.575 406.287 316.924L406.762 316.514L407.408 315.922L407.487 315.837L409.24 316.317L412.93 317.333C413.116 317.388 413.314 317.375 413.493 317.298C413.672 317.22 413.823 317.082 413.922 316.904C414.02 316.726 414.062 316.519 414.04 316.313C414.018 316.108 413.934 315.916 413.8 315.766L410.584 311.983L410.65 311.884C410.953 311.404 411.23 310.91 411.494 310.402C413.484 306.606 414.369 302.26 414.035 297.922C413.701 293.583 412.163 289.451 409.62 286.056C407.076 282.661 403.643 280.158 399.761 278.869C395.879 277.58 391.726 277.564 387.835 278.822L384.448 273.811C384.335 273.644 384.175 273.52 383.99 273.458C383.806 273.396 383.609 273.4 383.427 273.468C383.245 273.536 383.088 273.665 382.98 273.836C382.872 274.008 382.818 274.212 382.827 274.418L383.13 281.053C382.577 281.406 382.049 281.801 381.522 282.21C379.166 284.101 377.217 286.514 375.809 289.283C374.402 292.053 373.567 295.115 373.364 298.261L365.232 301.819C365.057 301.9 364.911 302.038 364.814 302.214C364.718 302.389 364.676 302.594 364.695 302.796C364.714 302.999 364.793 303.191 364.92 303.342C365.048 303.494 365.217 303.598 365.403 303.64Z" fill="#407BFF"/>
<g opacity="0.5">
<path d="M365.403 303.64L374.036 305.433C374.325 306.58 374.704 307.7 375.169 308.778L370.293 313.917C370.158 314.061 370.07 314.248 370.041 314.45C370.012 314.652 370.044 314.858 370.133 315.039C370.221 315.22 370.36 315.366 370.532 315.457C370.703 315.547 370.896 315.576 371.084 315.54L378.28 314.002C378.896 314.765 379.561 315.482 380.27 316.147C381.346 317.144 382.511 318.024 383.75 318.773C387.259 320.877 391.27 321.823 395.279 321.494C399.289 321.165 403.118 319.575 406.287 316.924L406.762 316.514L407.408 315.922L407.487 315.837L409.24 316.317L412.93 317.333C413.116 317.388 413.314 317.375 413.493 317.298C413.672 317.22 413.823 317.082 413.922 316.904C414.02 316.726 414.062 316.519 414.04 316.313C414.018 316.108 413.934 315.916 413.8 315.766L410.584 311.983L410.65 311.884C410.953 311.404 411.23 310.91 411.494 310.402C413.484 306.606 414.369 302.26 414.035 297.922C413.701 293.583 412.163 289.451 409.62 286.056C407.076 282.661 403.643 280.158 399.761 278.869C395.879 277.58 391.726 277.564 387.835 278.822L384.448 273.811C384.335 273.644 384.175 273.52 383.99 273.458C383.806 273.396 383.609 273.4 383.427 273.468C383.245 273.536 383.088 273.665 382.98 273.836C382.872 274.008 382.818 274.212 382.827 274.418L383.13 281.053C382.577 281.406 382.049 281.801 381.522 282.21C379.166 284.101 377.217 286.514 375.809 289.283C374.402 292.053 373.567 295.115 373.364 298.261L365.232 301.819C365.057 301.9 364.911 302.038 364.814 302.214C364.718 302.389 364.676 302.594 364.695 302.796C364.714 302.999 364.793 303.191 364.92 303.342C365.048 303.494 365.217 303.598 365.403 303.64Z" fill="white"/>
</g>
<g opacity="0.5">
<path d="M382.576 292.219C381.284 294.692 380.705 297.52 380.912 300.346C381.12 303.171 382.106 305.867 383.745 308.093C385.383 310.318 387.601 311.973 390.118 312.848C392.635 313.724 395.338 313.779 397.885 313.009C400.431 312.239 402.707 310.677 404.425 308.521C406.143 306.365 407.225 303.712 407.535 300.897C407.844 298.082 407.368 295.232 406.165 292.708C404.962 290.183 403.088 288.097 400.778 286.714C399.246 285.794 397.559 285.206 395.815 284.985C394.07 284.764 392.302 284.914 390.612 285.425C388.921 285.936 387.341 286.8 385.963 287.965C384.584 289.131 383.433 290.577 382.576 292.219Z" fill="white"/>
</g>
<g opacity="0.2">
<path d="M397.259 289.297C398.722 287.97 401.094 288.789 402.966 290.455C403.902 291.345 404.66 292.429 405.192 293.643C405.724 294.856 406.021 296.173 406.063 297.513C406.696 303.471 402.452 311.418 396.455 310.501C390.458 309.583 392.501 303.442 396.916 302.609C401.331 301.776 401.7 295.636 397.799 292.558C396.059 291.189 396.376 290.088 397.259 289.297Z" fill="#407BFF"/>
</g>
<g opacity="0.2">
<path d="M392.764 293.617C393.811 293.541 394.861 293.72 395.835 294.139C397.153 294.746 398.59 295.946 397.772 298.275C396.454 301.861 391.802 298.275 389.574 301C386.938 304.176 382.167 301.466 383.578 297.993C384.988 294.52 390.471 293.786 392.764 293.617Z" fill="#407BFF"/>
</g>
<g opacity="0.2">
<path d="M386.9 303.767C387.69 303.637 388.499 303.779 389.209 304.172C389.92 304.565 390.495 305.19 390.854 305.955C391.119 306.475 391.225 307.071 391.156 307.659C391.088 308.246 390.848 308.796 390.472 309.23C388.323 312.054 384.251 306.83 385.015 304.995C385.206 304.635 385.479 304.334 385.809 304.119C386.138 303.904 386.514 303.783 386.9 303.767Z" fill="#407BFF"/>
</g>
<g opacity="0.2">
<path d="M393.265 286.657C394.017 286.706 394.724 287.059 395.242 287.645C395.444 287.865 395.601 288.127 395.704 288.414C395.807 288.702 395.853 289.009 395.839 289.317C395.826 289.625 395.753 289.926 395.625 290.202C395.497 290.478 395.317 290.723 395.097 290.921C392.988 293.589 389.416 289.396 390.286 287.744C390.84 286.657 392.316 286.587 393.265 286.657Z" fill="#407BFF"/>
</g>
<g opacity="0.2">
<path d="M387.743 293.532C387.182 293.738 386.57 293.708 386.029 293.448C385.82 293.354 385.632 293.215 385.475 293.039C385.319 292.863 385.198 292.655 385.12 292.427C385.042 292.199 385.009 291.957 385.022 291.715C385.036 291.472 385.096 291.236 385.199 291.019C385.977 288.394 389.773 290.285 389.614 291.768C389.509 292.728 388.455 293.264 387.743 293.532Z" fill="#407BFF"/>
</g>
<path d="M296.102 349.082L290.777 302.03L276.819 316.98L131.378 161.186L110.343 161.568L266.13 328.429L252.173 343.393L296.102 349.082Z" fill="#407BFF"/>
<path opacity="0.7" d="M296.102 349.082L290.777 302.03L276.819 316.98L131.378 161.186L110.343 161.568L266.13 328.429L252.173 343.393L296.102 349.082Z" fill="white"/>
<path d="M580.038 373.645L574.713 326.594L560.756 341.544L411.031 181.176L347.372 249.36L287.574 185.312L269.807 166.283L269.768 166.325L146.904 34.7416H125.539L276.173 196.083L276.266 196.097L347.372 272.258L411.031 204.073L550.067 352.992L536.109 367.956L580.038 373.645Z" fill="#407BFF"/>
<path opacity="0.7" d="M580.038 373.645L574.713 326.594L560.756 341.544L411.031 181.176L347.372 249.36L287.574 185.312L269.807 166.283L269.768 166.325L146.904 34.7416H125.539L276.173 196.083L276.266 196.097L347.372 272.258L411.031 204.073L550.067 352.992L536.109 367.956L580.038 373.645Z" fill="white"/>
<path d="M449.938 165.054L455.606 158.984L482.098 187.373L489.623 179.327L492.404 203.946L469.419 200.968L476.496 193.373L449.938 165.054Z" fill="#407BFF"/>
<path d="M242.894 221.409L248.561 215.339L275.066 243.728L282.579 235.681L285.36 260.301L262.374 257.322L269.451 249.727L242.894 221.409Z" fill="#407BFF"/>
<path d="M461.116 326.594L487.607 354.997L495.12 346.936L497.901 371.556L474.915 368.577L482.006 360.997L455.448 332.664L461.116 326.594Z" fill="#407BFF"/>
<path d="M433.53 44.6094H295.549C292.986 44.6094 290.909 46.8341 290.909 49.5785V136.256C290.909 139.001 292.986 141.225 295.549 141.225H433.53C436.092 141.225 438.169 139.001 438.169 136.256V49.5785C438.169 46.8341 436.092 44.6094 433.53 44.6094Z" fill="#407BFF"/>
<path opacity="0.7" d="M433.53 44.6094H295.549C292.986 44.6094 290.909 46.8341 290.909 49.5785V136.256C290.909 139.001 292.986 141.225 295.549 141.225H433.53C436.092 141.225 438.169 139.001 438.169 136.256V49.5785C438.169 46.8341 436.092 44.6094 433.53 44.6094Z" fill="white"/>
<path d="M325.534 69.5962H312.802V125.245H325.534V69.5962Z" fill="#407BFF"/>
<path d="M349.363 78.2358H336.631V125.259H349.363V78.2358Z" fill="#407BFF"/>
<path d="M349.363 78.2358H336.631V125.259H349.363V78.2358Z" fill="#407BFF"/>
<path opacity="0.3" d="M349.363 78.2358H336.631V125.259H349.363V78.2358Z" fill="white"/>
<path d="M373.206 86.8752H360.474V125.259H373.206V86.8752Z" fill="#407BFF"/>
<path d="M397.035 95.5149H384.303V125.259H397.035V95.5149Z" fill="#407BFF"/>
<path opacity="0.3" d="M397.035 95.5149H384.303V125.259H397.035V95.5149Z" fill="white"/>
<path d="M420.877 104.154H408.146V125.259H420.877V104.154Z" fill="#407BFF"/>
<path d="M428.39 125.951H304.182V60.6038H305.5V124.539H428.39V125.951Z" fill="#263238"/>
<path d="M412.284 92.6774L414.274 90.1081L399.262 76.8382L391.091 87.4683L373.68 72.1091L367.182 80.5369L349.903 65.2765L342.377 75.0313L322.621 58.938L322.449 57.004L342.153 73.0832L349.719 63.2578L367.011 78.5323L373.509 70.0904L390.906 85.4778L399.078 74.8336L415.131 88.9929L416.871 86.7342L418.953 93.5667L412.284 92.6774Z" fill="#407BFF"/>
<path d="M150.424 90.9326C153.331 77.9131 145.834 64.8346 133.678 61.7209C121.523 58.6072 109.312 66.6375 106.405 79.657C103.498 92.6764 110.996 105.755 123.151 108.869C135.306 111.982 147.517 103.952 150.424 90.9326Z" fill="#407BFF"/>
<g opacity="0.7">
<path d="M150.424 90.9326C153.331 77.9131 145.834 64.8346 133.678 61.7209C121.523 58.6072 109.312 66.6375 106.405 79.657C103.498 92.6764 110.996 105.755 123.151 108.869C135.306 111.982 147.517 103.952 150.424 90.9326Z" fill="white"/>
</g>
<path d="M124.354 94.6395C124.49 93.5943 124.975 92.6372 125.719 91.9446C126.462 91.252 127.414 90.8706 128.4 90.8706C129.385 90.8706 130.337 91.252 131.081 91.9446C131.824 92.6372 132.309 93.5943 132.446 94.6395C132.446 96.7147 130.891 98.3381 128.387 98.3381C125.882 98.3381 124.354 96.7147 124.354 94.6395ZM131.405 88.5128H125.368L124.538 72.3772H132.235L131.405 88.5128Z" fill="#407BFF"/>
<path d="M128.413 110.041C123.846 110.03 119.384 108.569 115.591 105.843C111.799 103.117 108.846 99.2482 107.105 94.7253C105.364 90.2025 104.914 85.2285 105.812 80.4318C106.709 75.6351 108.914 71.2309 112.147 67.7756C115.38 64.3204 119.497 61.9691 123.978 61.0188C128.458 60.0685 133.101 60.5618 137.32 62.4365C141.538 64.3112 145.144 67.4831 147.68 71.5514C150.217 75.6198 151.57 80.4021 151.57 85.2942C151.567 88.5477 150.965 91.7686 149.8 94.7731C148.634 97.7775 146.927 100.507 144.777 102.805C142.627 105.103 140.075 106.924 137.267 108.166C134.459 109.408 131.451 110.045 128.413 110.041ZM128.413 61.5496C124.029 61.5496 119.742 62.9422 116.097 65.5513C112.451 68.1604 109.61 71.8688 107.932 76.2075C106.254 80.5463 105.815 85.3205 106.67 89.9265C107.526 94.5325 109.637 98.7634 112.737 102.084C115.838 105.405 119.788 107.666 124.088 108.583C128.389 109.499 132.846 109.028 136.897 107.231C140.948 105.434 144.41 102.391 146.846 98.486C149.282 94.5812 150.582 89.9904 150.582 85.2942C150.575 78.999 148.237 72.9638 144.081 68.5125C139.925 64.0611 134.291 61.5571 128.413 61.5496Z" fill="#407BFF"/>
<path d="M145.099 101.754L153.007 104.451C153.097 104.481 153.194 104.481 153.285 104.451C153.375 104.421 153.456 104.363 153.515 104.284C153.575 104.205 153.611 104.109 153.619 104.008C153.627 103.907 153.607 103.805 153.56 103.717L149.105 95.3737C148.091 97.7127 146.739 99.866 145.099 101.754Z" fill="#407BFF"/>
<path d="M117.592 469.358L112.359 489.573L119.819 492.495L128.452 474.666L117.592 469.358Z" fill="#FF8B7B"/>
<path d="M118.093 489.926C118.093 489.926 121.77 485.691 123.048 486.665C124.327 487.639 123.352 493.724 123.352 493.724C123.352 493.724 130.324 498.763 132.433 499.54C134.541 500.316 135.952 502.151 135.069 506.725L108.827 498.919C108.827 498.919 111.634 488.825 112.122 487.103C112.61 485.381 114.376 488.232 114.376 488.232L118.093 489.926Z" fill="#263238"/>
<path d="M193.654 267.021C192.191 273.274 190.794 288.45 189.094 306.124C187.921 318.251 186.616 331.535 185.047 343.944C183.07 359.811 180.672 374.196 177.627 382.723C166.925 412.777 127.543 479.141 127.543 479.141L115.193 475.541C115.193 475.541 139.076 403.263 141.712 395.145C144.348 387.028 155.221 356.324 155.142 324.208C155.063 292.092 156.842 262.376 156.842 262.376L193.654 267.021Z" fill="#263238"/>
<path opacity="0.2" d="M189.093 306.139C187.92 318.265 186.615 331.549 185.047 343.958C181.501 320.185 180.354 284.85 180.354 284.85L189.093 306.139Z" fill="black"/>
<path d="M114.007 475.626L128.465 479.931L130.811 475.301L114.956 470.36L114.007 475.626Z" fill="#407BFF"/>
<path d="M191.545 476.374V497.366L199.466 498.029L203.341 478.379L191.545 476.374Z" fill="#FF8B7B"/>
<path d="M197.159 496.053C197.159 496.053 199.65 490.943 201.113 491.493C202.576 492.044 203.183 498.241 203.183 498.241C203.183 498.241 211.17 501.064 213.397 501.248C215.624 501.431 217.43 502.758 217.707 507.417H190.464C190.464 507.417 190.648 496.886 190.701 495.079C190.754 493.272 193.153 495.531 193.153 495.531L197.159 496.053Z" fill="#263238"/>
<path d="M182.121 264.847C179.05 267.021 180.803 281.335 181.291 287.504C182.187 299.278 189.093 316.769 190.042 332.057C191.15 349.76 191.94 367.49 191.545 379.786C190.53 411.38 190.754 482.952 190.754 482.952H203.552C203.552 482.952 218.577 411.803 221.384 379.786C223.73 353.247 221.78 276.832 221.384 260.301L182.121 264.847Z" fill="#263238"/>
<path d="M189.647 483.446H204.659L205.766 478.308L189.252 478.096L189.647 483.446Z" fill="#407BFF"/>
<path d="M190.49 144.754L180.25 161.187C175.109 157.684 170.203 153.802 165.567 149.568C163.147 147.386 160.833 145.073 158.634 142.637C157.427 141.317 156.283 139.932 155.208 138.487C153.828 136.668 152.659 134.678 151.728 132.558L151.293 131.471V131.329C151.293 131.146 151.148 130.878 151.082 130.638C150.941 130.177 150.835 129.705 150.766 129.226C150.704 128.758 150.668 128.287 150.661 127.814C150.638 127.382 150.638 126.948 150.661 126.515C150.745 125.819 150.895 125.133 151.109 124.469C151.192 124.186 151.288 123.908 151.399 123.636C151.504 123.396 151.583 123.212 151.689 123L151.992 122.408L152.268 121.942C152.431 121.66 152.611 121.391 152.809 121.137C153.334 120.425 153.926 119.772 154.575 119.189C155.102 118.709 155.563 118.342 156.012 118.003C157.522 116.906 159.108 115.934 160.756 115.095C163.585 113.669 166.484 112.41 169.442 111.326C175.095 109.192 180.877 107.47 186.747 106.173L190.042 115.293C185.166 118.539 180.144 121.659 175.373 124.793C173.633 125.951 171.907 127.108 170.299 128.266L170.997 128.944C172.882 130.722 174.951 132.501 177.152 134.28C181.462 137.781 186.128 141.338 190.49 144.754Z" fill="#407BFF"/>
<path d="M224.574 114.149C226.113 116.7 227.971 119.013 230.097 121.024C229.595 121.602 228.981 122.053 228.297 122.346C227.613 122.639 226.878 122.766 226.143 122.718L224.574 114.149Z" fill="#FF5652"/>
<path d="M219.829 108.22C219.7 108.215 219.579 108.159 219.486 108.065C219.394 107.962 219.343 107.826 219.343 107.684C219.343 107.541 219.394 107.405 219.486 107.302C220.019 106.657 220.688 106.156 221.437 105.842C222.187 105.528 222.995 105.409 223.796 105.495C223.929 105.523 224.047 105.604 224.125 105.723C224.204 105.841 224.237 105.987 224.217 106.131C224.192 106.272 224.115 106.398 224.004 106.479C223.894 106.561 223.757 106.593 223.624 106.568C222.996 106.496 222.36 106.587 221.77 106.833C221.181 107.078 220.655 107.472 220.237 107.98C220.19 108.05 220.129 108.108 220.058 108.15C219.988 108.191 219.909 108.215 219.829 108.22Z" fill="#263238"/>
<path d="M201.483 121.688C199.795 130.045 195.538 144.811 188.434 147.634C188.434 147.634 187.261 156.359 200.639 162.513C215.335 169.29 210.801 157.94 210.801 157.94C203.591 152.18 206.359 145.912 210.168 140.562L201.483 121.688Z" fill="#FF8B7B"/>
<path d="M190.49 140.322C190.49 140.322 195.565 136.2 197.621 136.383C199.677 136.567 208.679 142.82 208.679 142.82L208.758 145.87L190.49 140.322Z" fill="#407BFF"/>
<path d="M195.315 116.831C198.082 127.814 199.176 134.393 205.503 138.952C215.045 145.813 226.894 137.908 227.25 126.247C227.566 115.758 222.993 99.5522 211.987 97.3641C209.56 96.8678 207.055 97.0442 204.709 97.8765C202.363 98.7089 200.255 100.17 198.585 102.12C196.914 104.07 195.737 106.446 195.165 109.02C194.592 111.595 194.644 114.284 195.315 116.831Z" fill="#FF8B7B"/>
<path d="M222.544 100.23C218.379 109.533 222.847 111.622 221.938 115.42C221.028 119.217 216.837 112.003 215.348 121.208C213.859 130.412 203.301 134.816 203.301 134.816C202.491 134.229 201.578 133.824 200.617 133.628C199.656 133.431 198.668 133.446 197.713 133.673C170.892 111.735 190.543 102.305 190.543 102.305C190.543 102.305 190.622 97.4488 196.58 94.5548C203.328 91.2797 203.17 94.7525 210.089 92.3385C217.009 89.9245 223.73 84.7436 226.432 91.1244C227.882 94.6537 222.544 100.23 222.544 100.23Z" fill="#263238"/>
<path d="M212.778 117.269C213.474 119.996 214.995 122.398 217.101 124.102C219.882 126.318 221.964 124.101 221.767 120.756C221.582 117.721 219.908 112.893 216.837 112.003C213.766 111.114 211.974 113.966 212.778 117.269Z" fill="#FF8B7B"/>
<path d="M224.574 267.148C196.606 293.066 152.585 267.148 152.585 267.148C157.949 196.422 160.862 159.86 169.614 146.985C173.304 141.536 179.195 138.938 186.748 139.814C212.132 142.778 220.765 152.858 222.953 164.363C223.272 166.119 223.466 167.898 223.533 169.685C223.889 178.903 221.24 188.474 220.541 195.646C218.907 211.767 224.574 267.148 224.574 267.148Z" fill="#407BFF"/>
<path opacity="0.2" d="M223.479 169.685C218.748 168.443 213.739 166.537 213.739 166.537L222.965 164.363C223.262 166.12 223.434 167.899 223.479 169.685Z" fill="black"/>
<path d="M266.525 137.16C266.566 138.202 266.482 139.246 266.275 140.265C265.935 141.807 265.346 143.274 264.535 144.599C263.487 146.282 262.217 147.794 260.766 149.088C259.672 150.107 258.518 151.05 257.312 151.912C255.207 153.408 253.004 154.743 250.722 155.907C246.461 158.125 242.056 160.012 237.542 161.554C233.084 163.105 228.536 164.345 223.928 165.266C221.595 165.746 219.209 166.085 216.744 166.339C214.095 166.632 211.427 166.675 208.771 166.466L209.904 146.703C211.314 146.703 213.12 146.618 214.952 146.434C216.784 146.251 218.735 145.898 220.685 145.559C224.573 144.853 228.593 143.95 232.455 142.877C236.314 141.835 240.12 140.577 243.856 139.108C245.648 138.388 247.375 137.583 248.864 136.793L249.615 136.369C249.062 135.706 248.429 134.957 247.783 134.322C244.849 131.243 241.769 128.327 238.557 125.584C231.967 119.937 225.048 114.29 218.128 108.926L222.781 100.456C230.761 104.635 238.534 109.252 246.07 114.29C249.975 116.886 253.742 119.714 257.352 122.76C259.415 124.505 261.321 126.452 263.046 128.576C263.591 129.275 264.093 130.01 264.548 130.779C265.192 131.836 265.702 132.98 266.064 134.181C266.187 134.603 266.288 135.032 266.367 135.466C266.45 136.026 266.503 136.592 266.525 137.16Z" fill="#407BFF"/>
<path d="M222.544 100.907C221.261 98.7776 219.678 96.8728 217.852 95.2607C215.463 93.6427 212.659 92.8721 209.838 93.0585C206.412 93.0585 205.647 98.2958 207.347 99.3263C209.048 100.357 209.983 103.053 211.025 104.211C212.066 105.368 216.982 109.533 218.59 108.771C220.198 108.008 222.544 100.907 222.544 100.907Z" fill="#FF8B7B"/>
<path d="M190.728 101.02C190.775 103.374 190.463 105.72 189.805 107.966C188.83 111.142 185.403 114.163 183.848 114.488C182.292 114.813 182.385 110.634 184.177 106.103C186.444 100.343 190.728 101.02 190.728 101.02Z" fill="#FF8B7B"/>
<path d="M218.893 108.248C218.893 108.248 214.649 109.279 212.079 108.248C209.509 107.218 207.637 106.314 209.324 105.637C211.185 105.204 213.095 105.071 214.992 105.241L218.893 108.248Z" fill="#FF8B7B"/>
</svg>
