<svg width="254" height="47" viewBox="0 0 254 47" fill="none" xmlns="http://www.w3.org/2000/svg">
<path d="M9.8 10.6V37H2.92V10.6H9.8ZM14.2962 37V17H20.3763L20.7363 23.88L19.9763 23.12C20.2429 21.68 20.7096 20.48 21.3763 19.52C22.0696 18.56 22.9229 17.84 23.9363 17.36C24.9763 16.8533 26.1363 16.6 27.4163 16.6C28.8029 16.6 30.0029 16.8667 31.0163 17.4C32.0563 17.9333 32.8696 18.72 33.4563 19.76C34.0429 20.8 34.3363 22.1067 34.3363 23.68V37H27.5363V25.48C27.5363 24.0933 27.2696 23.1333 26.7363 22.6C26.2029 22.0667 25.5229 21.8 24.6963 21.8C24.0563 21.8 23.4563 21.96 22.8963 22.28C22.3363 22.5733 21.8963 23.0533 21.5763 23.72C21.2563 24.3867 21.0963 25.28 21.0963 26.4V37H14.2962ZM50.8322 17H57.8722L50.6722 37H42.5522L35.3522 17H42.5122L46.6322 32.24L50.8322 17ZM68.8625 37.4C66.6492 37.4 64.7292 36.9867 63.1025 36.16C61.5025 35.3333 60.2625 34.1467 59.3825 32.6C58.5025 31.0533 58.0625 29.1867 58.0625 27C58.0625 24.8133 58.5025 22.9467 59.3825 21.4C60.2625 19.8533 61.4892 18.6667 63.0625 17.84C64.6625 17.0133 66.4892 16.6 68.5425 16.6C70.6492 16.6 72.4358 17.0133 73.9025 17.84C75.3958 18.64 76.5292 19.76 77.3025 21.2C78.0758 22.6133 78.4625 24.24 78.4625 26.08C78.4625 26.56 78.4492 27.04 78.4225 27.52C78.3958 28 78.3558 28.4 78.3025 28.72H62.4625V25.08H75.3025L72.0625 26.32C72.0625 24.72 71.7692 23.4933 71.1825 22.64C70.6225 21.7867 69.7425 21.36 68.5425 21.36C67.6892 21.36 66.9558 21.56 66.3425 21.96C65.7558 22.36 65.3025 22.9867 64.9825 23.84C64.6892 24.6933 64.5425 25.7867 64.5425 27.12C64.5425 28.4267 64.7158 29.4933 65.0625 30.32C65.4092 31.12 65.9025 31.7067 66.5425 32.08C67.1825 32.4267 67.9558 32.6 68.8625 32.6C69.8758 32.6 70.6758 32.4 71.2625 32C71.8758 31.6 72.3292 31.04 72.6225 30.32L78.0625 32.12C77.6892 33.2667 77.0358 34.24 76.1025 35.04C75.1958 35.8133 74.1025 36.4 72.8225 36.8C71.5692 37.2 70.2492 37.4 68.8625 37.4ZM89.8666 37.4C87.8666 37.4 85.9999 37.08 84.2666 36.44C82.5599 35.7733 81.1466 34.8267 80.0266 33.6L83.2266 29.84C83.8932 30.6933 84.7732 31.4133 85.8666 32C86.9866 32.56 88.2266 32.84 89.5866 32.84C90.4132 32.84 91.0932 32.72 91.6266 32.48C92.1599 32.24 92.4266 31.8667 92.4266 31.36C92.4266 30.9867 92.2932 30.6933 92.0266 30.48C91.7599 30.24 91.2266 30.04 90.4266 29.88L87.6266 29.32C85.1199 28.8133 83.3332 28.0667 82.2666 27.08C81.2266 26.0667 80.7066 24.7467 80.7066 23.12C80.7066 22.0267 81.0399 20.9867 81.7066 20C82.3732 18.9867 83.3999 18.1733 84.7866 17.56C86.1732 16.92 87.9466 16.6 90.1066 16.6C92.1332 16.6 93.9199 16.8933 95.4666 17.48C97.0132 18.0667 98.2399 18.92 99.1466 20.04L95.9066 23.72C95.2666 22.92 94.4399 22.2933 93.4266 21.84C92.4132 21.3867 91.3999 21.16 90.3866 21.16C89.7466 21.16 89.1999 21.2267 88.7466 21.36C88.3199 21.4667 87.9999 21.6267 87.7866 21.84C87.5732 22.0533 87.4666 22.32 87.4666 22.64C87.4666 22.9867 87.6266 23.2933 87.9466 23.56C88.2932 23.8 88.9199 24.0133 89.8266 24.2L93.4666 24.92C95.5199 25.2933 96.9999 25.9733 97.9066 26.96C98.8132 27.9467 99.2666 29.1333 99.2666 30.52C99.2666 31.8267 98.9199 33 98.2266 34.04C97.5332 35.08 96.4932 35.9067 95.1066 36.52C93.7199 37.1067 91.9732 37.4 89.8666 37.4ZM110.355 10.64V29.88C110.355 30.84 110.581 31.5333 111.035 31.96C111.515 32.36 112.168 32.56 112.995 32.56C113.635 32.56 114.181 32.4933 114.635 32.36C115.115 32.2 115.541 31.9733 115.915 31.68L116.635 35.88C115.968 36.36 115.128 36.7333 114.115 37C113.101 37.2667 112.061 37.4 110.995 37.4C109.475 37.4 108.155 37.1867 107.035 36.76C105.941 36.3333 105.088 35.6533 104.475 34.72C103.888 33.7867 103.581 32.5467 103.555 31V12.52L110.355 10.64ZM116.315 17V21.84H100.115V17H116.315Z" fill="#1A1D21"/>
<path d="M143.296 10.6L133.936 37H125.856L116.456 10.6H123.696L128.536 26.56L129.976 31.76L131.376 26.64L136.296 10.6H143.296ZM148.56 14.68C147.174 14.68 146.16 14.4267 145.52 13.92C144.907 13.3867 144.6 12.56 144.6 11.44C144.6 10.2933 144.907 9.46667 145.52 8.96C146.16 8.42667 147.174 8.16 148.56 8.16C149.92 8.16 150.92 8.42667 151.56 8.96C152.2 9.46667 152.52 10.2933 152.52 11.44C152.52 12.56 152.2 13.3867 151.56 13.92C150.92 14.4267 149.92 14.68 148.56 14.68ZM151.96 17V37H145.16V17H151.96ZM164.401 37.4C162.401 37.4 160.534 37.08 158.801 36.44C157.094 35.7733 155.681 34.8267 154.561 33.6L157.761 29.84C158.428 30.6933 159.308 31.4133 160.401 32C161.521 32.56 162.761 32.84 164.121 32.84C164.948 32.84 165.628 32.72 166.161 32.48C166.694 32.24 166.961 31.8667 166.961 31.36C166.961 30.9867 166.828 30.6933 166.561 30.48C166.294 30.24 165.761 30.04 164.961 29.88L162.161 29.32C159.654 28.8133 157.868 28.0667 156.801 27.08C155.761 26.0667 155.241 24.7467 155.241 23.12C155.241 22.0267 155.574 20.9867 156.241 20C156.908 18.9867 157.934 18.1733 159.321 17.56C160.708 16.92 162.481 16.6 164.641 16.6C166.668 16.6 168.454 16.8933 170.001 17.48C171.548 18.0667 172.774 18.92 173.681 20.04L170.441 23.72C169.801 22.92 168.974 22.2933 167.961 21.84C166.948 21.3867 165.934 21.16 164.921 21.16C164.281 21.16 163.734 21.2267 163.281 21.36C162.854 21.4667 162.534 21.6267 162.321 21.84C162.108 22.0533 162.001 22.32 162.001 22.64C162.001 22.9867 162.161 23.2933 162.481 23.56C162.828 23.8 163.454 24.0133 164.361 24.2L168.001 24.92C170.054 25.2933 171.534 25.9733 172.441 26.96C173.348 27.9467 173.801 29.1333 173.801 30.52C173.801 31.8267 173.454 33 172.761 34.04C172.068 35.08 171.028 35.9067 169.641 36.52C168.254 37.1067 166.508 37.4 164.401 37.4ZM179.929 14.68C178.542 14.68 177.529 14.4267 176.889 13.92C176.276 13.3867 175.969 12.56 175.969 11.44C175.969 10.2933 176.276 9.46667 176.889 8.96C177.529 8.42667 178.542 8.16 179.929 8.16C181.289 8.16 182.289 8.42667 182.929 8.96C183.569 9.46667 183.889 10.2933 183.889 11.44C183.889 12.56 183.569 13.3867 182.929 13.92C182.289 14.4267 181.289 14.68 179.929 14.68ZM183.329 17V37H176.529V17H183.329ZM196.89 16.6C198.996 16.6 200.836 17.0133 202.41 17.84C204.01 18.64 205.25 19.8267 206.13 21.4C207.036 22.9467 207.49 24.8133 207.49 27C207.49 29.1867 207.036 31.0667 206.13 32.64C205.25 34.1867 204.01 35.3733 202.41 36.2C200.836 37 198.996 37.4 196.89 37.4C194.836 37.4 193.01 37 191.41 36.2C189.81 35.3733 188.556 34.1867 187.65 32.64C186.77 31.0667 186.33 29.1867 186.33 27C186.33 24.8133 186.77 22.9467 187.65 21.4C188.556 19.8267 189.81 18.64 191.41 17.84C193.01 17.0133 194.836 16.6 196.89 16.6ZM196.89 21.44C196.116 21.44 195.45 21.6267 194.89 22C194.33 22.3733 193.903 22.9733 193.61 23.8C193.316 24.6267 193.17 25.6933 193.17 27C193.17 28.3067 193.316 29.3733 193.61 30.2C193.903 31 194.33 31.6 194.89 32C195.45 32.3733 196.116 32.56 196.89 32.56C197.69 32.56 198.37 32.3733 198.93 32C199.49 31.6 199.916 31 200.21 30.2C200.503 29.3733 200.65 28.3067 200.65 27C200.65 25.6933 200.503 24.6267 200.21 23.8C199.916 22.9733 199.49 22.3733 198.93 22C198.37 21.6267 197.69 21.44 196.89 21.44ZM210.515 37V17H216.595L216.955 23.88L216.195 23.12C216.462 21.68 216.928 20.48 217.595 19.52C218.288 18.56 219.142 17.84 220.155 17.36C221.195 16.8533 222.355 16.6 223.635 16.6C225.022 16.6 226.222 16.8667 227.235 17.4C228.275 17.9333 229.088 18.72 229.675 19.76C230.262 20.8 230.555 22.1067 230.555 23.68V37H223.755V25.48C223.755 24.0933 223.488 23.1333 222.955 22.6C222.422 22.0667 221.742 21.8 220.915 21.8C220.275 21.8 219.675 21.96 219.115 22.28C218.555 22.5733 218.115 23.0533 217.795 23.72C217.475 24.3867 217.315 25.28 217.315 26.4V37H210.515Z" fill="#FF6107"/>
<path d="M237.45 7.9V14.5H235.73V7.9H237.45ZM245.164 7.9V14.5H243.254L241.204 10.93L240.704 9.95H240.694L240.734 11.17V14.5H239.214V7.9H241.124L243.174 11.47L243.674 12.45H243.684L243.644 11.23V7.9H245.164ZM252.776 12.61C252.649 13.07 252.446 13.45 252.166 13.75C251.886 14.0433 251.552 14.26 251.166 14.4C250.779 14.5333 250.352 14.6 249.886 14.6C249.219 14.6 248.642 14.4667 248.156 14.2C247.669 13.9267 247.296 13.5367 247.036 13.03C246.776 12.5233 246.646 11.9133 246.646 11.2C246.646 10.4867 246.776 9.87667 247.036 9.37C247.296 8.86333 247.669 8.47667 248.156 8.21C248.642 7.93667 249.216 7.8 249.876 7.8C250.336 7.8 250.759 7.86667 251.146 8C251.532 8.12667 251.859 8.32333 252.126 8.59C252.392 8.85667 252.582 9.2 252.696 9.62L251.186 10.23C251.092 9.81667 250.939 9.53333 250.726 9.38C250.519 9.22667 250.256 9.15 249.936 9.15C249.622 9.15 249.349 9.22667 249.116 9.38C248.889 9.53333 248.712 9.76333 248.586 10.07C248.466 10.37 248.406 10.7467 248.406 11.2C248.406 11.6467 248.462 12.0233 248.576 12.33C248.689 12.6367 248.859 12.8667 249.086 13.02C249.319 13.1733 249.606 13.25 249.946 13.25C250.266 13.25 250.536 13.1633 250.756 12.99C250.982 12.81 251.136 12.5367 251.216 12.17L252.776 12.61Z" fill="#1A1D21"/>
</svg>