<svg width="663" height="421" viewBox="0 0 663 421" fill="none" xmlns="http://www.w3.org/2000/svg">
<path d="M662.829 369.968H0V370.25H662.829V369.968Z" fill="#EBEBEB"/>
<path d="M539.702 377.664H441.882V377.945H539.702V377.664Z" fill="#EBEBEB"/>
<path d="M148.885 379.562H137.365V379.844H148.885V379.562Z" fill="#EBEBEB"/>
<path d="M566.467 388.15H541.028V388.432H566.467V388.15Z" fill="#EBEBEB"/>
<path d="M329.652 384.331H265.132V384.613H329.652V384.331Z" fill="#EBEBEB"/>
<path d="M253.333 384.331H221.014V384.613H253.333V384.331Z" fill="#EBEBEB"/>
<path d="M113.49 379.562H69.5439V379.844H113.49V379.562Z" fill="#EBEBEB"/>
<path d="M314.181 319.569H58.2097C56.2044 319.566 54.2825 318.885 52.8658 317.675C51.4491 316.466 50.6534 314.826 50.6534 313.117V6.39591C50.6709 4.69639 51.4743 3.07137 52.8891 1.87382C54.3039 0.676269 56.2159 0.00291137 58.2097 0H314.181C316.189 0 318.114 0.679806 319.534 1.88987C320.953 3.09993 321.751 4.74112 321.751 6.45241V313.117C321.751 314.828 320.953 316.469 319.534 317.679C318.114 318.89 316.189 319.569 314.181 319.569ZM58.2097 0.226005C56.2923 0.228998 54.4547 0.880358 53.1002 2.03712C51.7456 3.19387 50.9849 4.7615 50.9849 6.39591V313.117C50.9849 314.751 51.7456 316.319 53.1002 317.476C54.4547 318.632 56.2923 319.284 58.2097 319.287H314.181C316.1 319.284 317.939 318.633 319.295 317.476C320.652 316.32 321.416 314.752 321.419 313.117V6.39591C321.416 4.76046 320.652 3.19286 319.295 2.03643C317.939 0.879991 316.1 0.228992 314.181 0.226005H58.2097Z" fill="#EBEBEB"/>
<path d="M600.934 319.569H344.95C342.943 319.566 341.02 318.886 339.601 317.676C338.182 316.467 337.384 314.827 337.38 313.117V6.39591C337.401 4.69536 338.207 3.07035 339.624 1.87311C341.041 0.675874 342.955 0.00287962 344.95 0H600.934C602.926 0.00588118 604.835 0.680553 606.247 1.87778C607.658 3.07501 608.46 4.69834 608.477 6.39591V313.117C608.477 314.824 607.684 316.462 606.27 317.671C604.856 318.881 602.937 319.563 600.934 319.569ZM344.95 0.226005C343.031 0.228992 341.192 0.879991 339.836 2.03643C338.479 3.19286 337.715 4.76046 337.712 6.39591V313.117C337.715 314.752 338.479 316.32 339.836 317.476C341.192 318.633 343.031 319.284 344.95 319.287H600.934C602.853 319.284 604.692 318.633 606.049 317.476C607.405 316.32 608.169 314.752 608.173 313.117V6.39591C608.169 4.76046 607.405 3.19286 606.049 2.03643C604.692 0.879991 602.853 0.228992 600.934 0.226005H344.95Z" fill="#EBEBEB"/>
<path d="M435.81 366.714H230.651V369.957H435.81V366.714Z" fill="#F0F0F0"/>
<path d="M514.448 235.327C514.448 235.327 531.43 255.667 556.326 238.298C579.445 222.196 556.724 183.233 556.724 183.233C556.724 183.233 583.595 190.431 587.93 160.225C592.264 130.02 554.125 137.693 554.125 137.693C567.713 114.663 552.137 113.962 540.511 115.996C544.037 110.346 545.151 103.408 536.759 97.5659C517.55 84.1977 504.453 99.8259 504.453 99.8259C504.453 99.8259 494.457 70.5358 470.808 87.633V251.147C501.497 273.306 514.448 235.327 514.448 235.327Z" fill="#F5F5F5"/>
<path d="M479.663 75.3948H87.931V369.968H479.663V75.3948Z" fill="#FAFAFA"/>
<path d="M451.48 29.6292H116.115L87.931 75.3949H479.663L451.48 29.6292Z" fill="#F0F0F0"/>
<path d="M420.83 339.729V309.478H397.817V279.239H230.267V309.478H253.28V339.729H276.307V369.968H443.844V339.729H420.83Z" fill="#F5F5F5"/>
<path d="M230.267 279.239V309.478H253.28V339.729H276.307V369.968H87.931V279.239H230.267Z" fill="#EBEBEB"/>
<path d="M397.817 306.235H230.267V309.478H397.817V306.235Z" fill="#F0F0F0"/>
<path d="M420.83 336.475H253.28V339.718H420.83V336.475Z" fill="#F0F0F0"/>
<path d="M218.734 102.075H108.558V279.239H218.734V102.075Z" fill="#F0F0F0"/>
<path d="M106.49 279.239H108.558L108.558 102.074H106.49L106.49 279.239Z" fill="#E6E6E6"/>
<path d="M202.269 195.866C205.644 195.866 208.38 193.534 208.38 190.657C208.38 187.78 205.644 185.448 202.269 185.448C198.894 185.448 196.158 187.78 196.158 190.657C196.158 193.534 198.894 195.866 202.269 195.866Z" fill="#FAFAFA"/>
<path d="M417.132 102.075H256.979V238.31H417.132V102.075Z" fill="#F5F5F5"/>
<path d="M410.464 231.914V108.47L263.674 108.47V231.914H410.464Z" fill="white"/>
<path d="M263.66 108.482V231.914H267.982C267.982 231.914 287.787 191.516 293.302 108.47L263.66 108.482Z" fill="#FAFAFA"/>
<path d="M410.464 108.482V231.914H406.129C406.129 231.914 386.337 191.515 380.822 108.482H410.464Z" fill="#FAFAFA"/>
<path d="M414.374 165.898H259.75V174.486H414.374V165.898Z" fill="#F5F5F5"/>
<path d="M342.099 236.095V104.29H332.024V236.095H342.099Z" fill="#F5F5F5"/>
<path d="M331.415 421C473.369 421 588.447 415.273 588.447 408.208C588.447 401.144 473.369 395.417 331.415 395.417C189.46 395.417 74.3826 401.144 74.3826 408.208C74.3826 415.273 189.46 421 331.415 421Z" fill="#F5F5F5"/>
<path d="M244.703 408.208H202.932C201.357 408.208 199.846 407.675 198.732 406.725C197.619 405.776 196.993 404.488 196.993 403.146V341.096H250.642V403.157C250.639 404.498 250.011 405.782 248.898 406.729C247.785 407.676 246.276 408.208 244.703 408.208Z" fill="#407BFF"/>
<path opacity="0.2" d="M250.642 341.096H197.006V368.024L250.642 358.114V341.096Z" fill="black"/>
<path d="M273.722 259.69C273.722 242.607 281.683 226.224 295.854 214.144C310.024 202.065 329.244 195.279 349.285 195.279C369.325 195.279 388.545 202.065 402.715 214.144C416.886 226.224 424.847 242.607 424.847 259.69V341.051H273.722V259.69Z" fill="#407BFF"/>
<path opacity="0.3" d="M273.722 259.69C273.722 242.607 281.683 226.224 295.854 214.144C310.024 202.065 329.244 195.279 349.285 195.279C369.325 195.279 388.545 202.065 402.715 214.144C416.886 226.224 424.847 242.607 424.847 259.69V341.051H273.722V259.69Z" fill="black"/>
<path d="M95.8317 259.678V333.073C95.8317 334.128 96.0756 335.172 96.5494 336.146C97.0232 337.12 97.7177 338.005 98.5931 338.75C99.4685 339.496 100.508 340.086 101.651 340.489C102.795 340.891 104.02 341.098 105.257 341.096H273.722V259.678C273.722 242.596 281.683 226.212 295.854 214.133C310.024 202.053 329.244 195.267 349.284 195.267H171.394C151.354 195.267 132.134 202.053 117.963 214.133C103.793 226.212 95.8317 242.596 95.8317 259.678Z" fill="#407BFF"/>
<path opacity="0.2" d="M95.8451 317.072H273.735V294.472H95.8451V317.072Z" fill="black"/>
<path opacity="0.2" d="M95.8451 287.454H273.735V264.854H95.8451V287.454Z" fill="black"/>
<path d="M284.871 191.312H263.223V192.442H284.871V191.312Z" fill="#407BFF"/>
<path d="M251.875 191.312H240.236V192.442H251.875V191.312Z" fill="#407BFF"/>
<path d="M182.835 280.855V189.323C182.835 188.958 182.742 188.598 182.562 188.267C182.382 187.936 182.119 187.642 181.792 187.406C181.465 187.171 181.082 186.999 180.669 186.903C180.256 186.806 179.823 186.788 179.401 186.849L141.925 192.103V205.358H170.572V280.651C167.68 281.784 165.323 283.72 163.888 286.142C162.453 288.565 162.025 291.331 162.673 293.987C163.321 296.644 165.008 299.035 167.456 300.769C169.905 302.503 172.972 303.478 176.155 303.533C179.338 303.589 182.449 302.723 184.979 301.076C187.509 299.429 189.309 297.099 190.085 294.467C190.861 291.836 190.566 289.057 189.249 286.587C187.932 284.116 185.671 282.099 182.835 280.866V280.855Z" fill="#263238"/>
<path d="M284.473 350.306H478.337C479.752 350.309 481.111 349.836 482.119 348.989C483.127 348.143 483.702 346.992 483.72 345.786C483.72 344.569 483.153 343.402 482.143 342.542C481.134 341.681 479.765 341.198 478.337 341.198H273.722C273.739 343.619 274.88 345.935 276.894 347.641C278.909 349.348 281.633 350.306 284.473 350.306Z" fill="#407BFF"/>
<path opacity="0.2" d="M284.473 350.306H363.694C365.109 350.309 366.468 349.836 367.476 348.989C368.484 348.143 369.059 346.992 369.077 345.786C369.077 344.569 368.51 343.402 367.5 342.542C366.491 341.681 365.122 341.198 363.694 341.198H273.722C273.739 343.619 274.88 345.935 276.894 347.641C278.909 349.348 281.633 350.306 284.473 350.306Z" fill="black"/>
<path d="M469.92 398.196L458.704 398.275L455.642 376.138L466.871 376.059L469.92 398.196Z" fill="#FF8B7B"/>
<path opacity="0.2" d="M455.642 376.149L457.22 387.563L468.448 387.472L466.871 376.07L455.642 376.149Z" fill="black"/>
<path d="M561.072 374.726L551.421 379.607L535.712 361.787L545.363 356.905L561.072 374.726Z" fill="#FF8B7B"/>
<path opacity="0.2" d="M535.725 361.787L543.812 370.974L553.476 366.092L545.376 356.905L535.725 361.787Z" fill="black"/>
<path d="M458.678 397.168L470.94 397.077C471.167 397.079 471.387 397.142 471.568 397.258C471.75 397.374 471.883 397.536 471.948 397.721L474.917 406.208C474.993 406.405 475.013 406.614 474.975 406.819C474.937 407.023 474.842 407.217 474.698 407.384C474.554 407.551 474.365 407.687 474.147 407.779C473.929 407.871 473.689 407.917 473.446 407.914C469.018 407.914 462.615 407.711 457.047 407.756C450.552 407.756 447.662 408.151 440.039 408.208C435.426 408.208 433.809 404.275 435.704 403.902C444.334 402.207 448.802 401.981 456.04 397.936C456.814 397.469 457.73 397.202 458.678 397.168Z" fill="#263238"/>
<path d="M454.051 398.897C455.261 398.877 456.465 398.752 457.644 398.524C457.698 398.516 457.747 398.493 457.783 398.458C457.82 398.423 457.841 398.378 457.843 398.332C457.848 398.286 457.838 398.24 457.811 398.199C457.785 398.159 457.745 398.126 457.697 398.106C457.167 397.88 452.394 395.959 451.161 396.637C451.042 396.702 450.945 396.792 450.88 396.899C450.815 397.007 450.784 397.126 450.79 397.247C450.776 397.462 450.823 397.677 450.927 397.874C451.031 398.071 451.188 398.243 451.387 398.377C452.186 398.791 453.121 398.974 454.051 398.897ZM456.703 398.219C454.277 398.58 452.434 398.501 451.692 397.993C451.562 397.903 451.459 397.789 451.39 397.66C451.321 397.53 451.288 397.389 451.294 397.247C451.289 397.204 451.297 397.16 451.318 397.12C451.339 397.081 451.372 397.046 451.413 397.021C452.142 396.637 454.807 397.45 456.729 398.196L456.703 398.219Z" fill="#407BFF"/>
<path d="M457.591 398.512C457.643 398.522 457.698 398.522 457.75 398.512C457.789 398.489 457.819 398.456 457.835 398.417C457.852 398.379 457.854 398.337 457.843 398.298C457.843 398.117 456.968 394.004 454.29 394.264C453.587 394.331 453.389 394.625 453.349 394.874C453.163 396.004 456 398.015 457.485 398.535L457.591 398.512ZM454.515 394.659C456.119 394.659 456.928 396.919 457.167 397.868C455.695 397.156 453.72 395.529 453.826 394.896C453.826 394.896 453.826 394.704 454.303 394.659H454.515Z" fill="#407BFF"/>
<path d="M474.957 134.054C473.486 141.32 471.616 148.292 469.349 155.332C468.218 158.843 466.968 162.342 465.598 165.83C464.882 167.582 464.206 169.322 463.397 171.062C463.013 171.932 462.628 172.802 462.191 173.672L461.568 174.983L461.25 175.627L461.077 175.978L460.839 176.418C459.751 178.416 458.418 180.31 456.862 182.069C455.536 183.662 454.091 185.131 452.673 186.589C449.836 189.436 446.88 192.08 443.884 194.68C437.9 199.803 431.608 204.657 425.033 209.223L419.054 204.149C424.158 198.623 429.301 193.041 434.273 187.515C436.752 184.758 439.164 181.956 441.418 179.187C442.545 177.808 443.618 176.418 444.56 175.062C445.412 173.908 446.139 172.69 446.734 171.424C446.813 171.288 446.999 170.746 447.145 170.384L447.595 169.186C447.914 168.407 448.192 167.593 448.47 166.779C449.04 165.163 449.571 163.514 450.114 161.875C451.148 158.564 452.116 155.219 453.057 151.852C454.887 145.072 456.65 138.224 458.24 131.511L474.957 134.054Z" fill="#FF8B7B"/>
<path d="M478.921 135.376C478.245 146.292 472.041 161.615 472.041 161.615L454.621 155.965L447.45 153.705C448.394 146.478 450.408 139.381 453.442 132.585C458.744 120.946 471.033 118.109 477.303 126.675C478.762 128.607 479.146 131.749 478.921 135.376Z" fill="#407BFF"/>
<path opacity="0.2" d="M478.921 135.376C478.245 146.292 472.041 161.615 472.041 161.615L454.621 155.965C455.658 152.114 457.014 148.33 458.678 144.642C463.026 134.947 472.306 131.365 478.921 135.376Z" fill="black"/>
<path d="M421.878 203.076L410.053 204.726L409.96 214.613C409.96 214.613 421.308 213.257 425.749 208.624L421.878 203.076Z" fill="#FF8B7B"/>
<path d="M399.103 210.455L399.355 216.952L409.96 214.613L410.039 204.725L399.103 210.455Z" fill="#FF8B7B"/>
<path d="M466.473 204.726C466.473 204.726 449.624 257.012 445.156 286.279C440.516 316.722 451.466 382.003 451.466 382.003L471.736 381.63C471.736 381.63 473.26 315.083 479.888 285.149C487.153 252.525 500.993 204.093 500.993 204.093L466.473 204.726Z" fill="#263238"/>
<path d="M474.228 382.41L450.392 382.817L448.643 376.07L473.923 376.014L474.228 382.41Z" fill="#407BFF"/>
<path opacity="0.4" d="M474.228 382.41L450.392 382.817L448.643 376.07L473.923 376.014L474.228 382.41Z" fill="white"/>
<path d="M550.745 378.658L561.284 373.324C561.488 373.213 561.731 373.164 561.973 373.187C562.214 373.209 562.439 373.302 562.61 373.449L570.179 379.505C570.363 379.643 570.505 379.816 570.594 380.01C570.683 380.204 570.716 380.414 570.69 380.621C570.664 380.828 570.58 381.027 570.445 381.2C570.31 381.374 570.128 381.517 569.914 381.619C566.07 383.494 560.436 386.139 555.65 388.5C550.069 391.337 547.696 392.874 541.214 396.185C537.237 398.196 533.511 395.473 534.93 394.331C541.386 389.156 545.111 387.043 548.982 380.455C549.355 379.724 549.967 379.1 550.745 378.658Z" fill="#263238"/>
<path d="M547.749 382.116C548.778 381.577 549.746 380.956 550.639 380.263C550.678 380.229 550.705 380.187 550.716 380.141C550.728 380.095 550.724 380.047 550.705 380.003C550.685 379.958 550.648 379.921 550.6 379.896C550.552 379.872 550.496 379.862 550.44 379.867C549.844 379.867 544.634 380.251 543.931 381.404C543.856 381.508 543.816 381.627 543.816 381.749C543.816 381.871 543.856 381.99 543.931 382.093C544.048 382.277 544.212 382.434 544.412 382.554C544.613 382.674 544.843 382.752 545.084 382.783C546.034 382.815 546.97 382.581 547.749 382.116ZM549.671 380.376C547.789 381.732 546.145 382.455 545.204 382.331C545.04 382.31 544.885 382.257 544.749 382.177C544.613 382.097 544.501 381.991 544.422 381.867C544.393 381.828 544.379 381.783 544.379 381.737C544.379 381.692 544.393 381.647 544.422 381.608C544.846 380.997 547.563 380.557 549.671 380.376Z" fill="#407BFF"/>
<path d="M550.599 380.285C550.644 380.255 550.681 380.217 550.705 380.172C550.731 380.139 550.745 380.099 550.745 380.059C550.745 380.019 550.731 379.98 550.705 379.946C550.573 379.811 547.404 376.556 545.257 377.98C544.687 378.342 544.687 378.692 544.793 378.918C545.27 379.924 548.982 380.477 550.533 380.319L550.599 380.285ZM545.668 378.274C547.06 377.584 549.075 379.167 549.896 379.89C548.186 379.89 545.535 379.347 545.243 378.76C545.243 378.76 545.164 378.59 545.522 378.364L545.668 378.274Z" fill="#407BFF"/>
<path d="M487.432 204.341C487.432 204.341 487.432 255.712 489.009 285.194C490.626 315.863 535.566 368.635 535.566 368.635L552.866 359.595C552.866 359.595 522.508 309.377 522.972 278.923C523.476 245.711 526.499 203.595 526.499 203.595L487.432 204.341Z" fill="#263238"/>
<path d="M555.093 359.584L535.937 369.55L531.152 365.494L552.23 353.515L555.093 359.584Z" fill="#407BFF"/>
<path opacity="0.4" d="M555.093 359.584L535.937 369.55L531.152 365.494L552.23 353.515L555.093 359.584Z" fill="white"/>
<path d="M465.081 122.042C465.081 122.042 452.553 151.174 466.473 204.737L526.499 203.607C526.711 195.753 519.963 157.547 527.93 120.381C521.248 119.428 514.499 118.85 507.727 118.652C499.222 118.379 490.705 118.534 482.222 119.115C476.427 119.709 470.696 120.687 465.081 122.042Z" fill="#407BFF"/>
<path d="M504.638 94.1646C503.207 101.182 501.921 114.042 507.78 118.607C507.78 118.607 505.712 125.782 490.467 126.02C478.284 126.212 482.275 119.07 482.275 119.07C491.382 117.036 490.997 111.25 489.261 105.849L504.638 94.1646Z" fill="#FF8B7B"/>
<path opacity="0.2" d="M498.368 98.9219L489.274 105.838C489.698 107.094 489.991 108.379 490.149 109.68C493.636 109.194 498.368 105.826 498.66 102.696C498.834 101.433 498.735 100.154 498.368 98.9219Z" fill="black"/>
<path opacity="0.2" d="M514.541 138.913L524.55 145.06C524.112 151.603 523.98 157.965 524.046 163.932C517.908 158.666 514.475 148.982 514.541 138.913Z" fill="black"/>
<path d="M505.593 115.115C505.593 115.115 502.716 121.014 489.287 126.031C491.447 126.771 493.402 127.886 495.028 129.307C496.653 130.727 497.912 132.421 498.726 134.28C498.726 134.28 508.496 126.37 511.108 118.46L505.593 115.115Z" fill="white"/>
<path d="M479.252 132.144C479.252 132.144 483.362 127.059 489.287 126.031C487.206 123.861 485.059 119.047 487.047 116.765C485.3 117.157 483.607 117.707 481.996 118.403C481.996 118.403 473.936 122.528 479.252 132.144Z" fill="white"/>
<path d="M478.072 74.0727C472.597 76.0728 469.88 88.6386 477.012 91.3733C484.144 94.1079 488.439 70.2984 478.072 74.0727Z" fill="#263238"/>
<path d="M505.354 83.6216C504.904 93.1137 505.209 98.6847 499.72 103.645C491.461 111.115 477.635 107.036 474.745 97.6225C472.094 89.1473 473.313 75.0221 484.091 71.0896C486.464 70.2042 489.063 69.8508 491.641 70.0628C494.22 70.2748 496.692 71.0453 498.822 72.301C500.953 73.5568 502.672 75.256 503.815 77.2374C504.958 79.2188 505.488 81.4164 505.354 83.6216Z" fill="#FF8B7B"/>
<path d="M488.558 86.5707C488.558 87.3391 488.121 87.9719 487.524 87.9832C486.928 87.9945 486.437 87.373 486.424 86.6046C486.411 85.8362 486.861 85.2033 487.458 85.192C488.055 85.1807 488.545 85.791 488.558 86.5707Z" fill="#263238"/>
<path d="M478.324 86.7516C478.324 87.52 477.887 88.1528 477.29 88.1641C476.694 88.1754 476.203 87.5652 476.19 86.7855C476.177 86.0058 476.627 85.3843 477.224 85.373C477.82 85.3617 478.311 85.9832 478.324 86.7516Z" fill="#263238"/>
<path d="M481.599 87.0793C480.576 89.4573 479.175 91.7044 477.436 93.7578C478.063 94.1225 478.775 94.366 479.524 94.4714C480.273 94.5768 481.04 94.5415 481.771 94.368L481.599 87.0793Z" fill="#FF5652"/>
<path d="M484.462 96.4471C485.68 96.4557 486.882 96.2136 487.967 95.7415C489.052 95.2693 489.987 94.581 490.693 93.735C490.711 93.7101 490.724 93.6822 490.729 93.653C490.735 93.6237 490.733 93.5939 490.724 93.5652C490.716 93.5365 490.7 93.5097 490.679 93.4865C490.657 93.4632 490.63 93.4439 490.6 93.4299C490.541 93.3998 490.471 93.39 490.405 93.4026C490.338 93.4152 490.28 93.4493 490.242 93.4977C489.574 94.2724 488.701 94.9021 487.695 95.3359C486.689 95.7698 485.576 95.9956 484.449 95.9951C484.414 95.9965 484.38 96.0038 484.348 96.0165C484.317 96.0292 484.288 96.0471 484.265 96.0692C484.242 96.0912 484.224 96.117 484.212 96.145C484.2 96.173 484.195 96.2027 484.197 96.2324C484.2 96.2904 484.23 96.345 484.279 96.3849C484.328 96.4249 484.394 96.4472 484.462 96.4471Z" fill="#263238"/>
<path d="M491.568 83.7006C491.688 83.6973 491.804 83.6617 491.899 83.5989C492.007 83.5236 492.077 83.4149 492.092 83.2964C492.106 83.1779 492.066 83.0592 491.979 82.9661C491.47 82.3912 490.808 81.9283 490.047 81.6157C489.286 81.3032 488.448 81.1502 487.604 81.1693C487.463 81.1798 487.333 81.2375 487.243 81.3297C487.152 81.4219 487.108 81.541 487.12 81.6609C487.132 81.7808 487.2 81.8916 487.308 81.9689C487.416 82.0463 487.556 82.0838 487.697 82.0733C488.364 82.0681 489.023 82.1961 489.622 82.4473C490.22 82.6985 490.741 83.0658 491.143 83.5198C491.192 83.5766 491.256 83.6226 491.33 83.6541C491.404 83.6855 491.485 83.7015 491.568 83.7006Z" fill="#263238"/>
<path d="M473.764 83.8359C473.866 83.835 473.965 83.8102 474.052 83.7644C474.138 83.7186 474.208 83.6534 474.254 83.576C474.516 83.0465 474.924 82.5788 475.443 82.2128C475.962 81.8468 476.578 81.5933 477.237 81.4742C477.377 81.4546 477.502 81.3894 477.586 81.2923C477.671 81.1952 477.707 81.074 477.688 80.9543C477.662 80.8365 477.585 80.7313 477.472 80.6601C477.358 80.5888 477.218 80.5567 477.078 80.5701C476.253 80.7212 475.482 81.0379 474.83 81.4938C474.178 81.9498 473.662 82.5319 473.326 83.1918C473.295 83.245 473.277 83.303 473.273 83.3623C473.269 83.4217 473.279 83.4811 473.303 83.537C473.326 83.593 473.363 83.6443 473.41 83.6879C473.457 83.7315 473.515 83.7664 473.578 83.7907C473.636 83.8158 473.699 83.8312 473.764 83.8359Z" fill="#263238"/>
<path d="M529.853 127.127C532.358 130.201 534.559 133.206 536.826 136.303C539.092 139.399 541.187 142.518 543.268 145.682C547.488 152.09 551.243 158.713 554.51 165.514C554.934 166.361 555.305 167.265 555.69 168.147L556.273 169.48L556.565 170.158L556.909 171.085C557.754 173.52 558.06 176.068 557.811 178.599C557.286 183.022 555.557 187.278 552.76 191.03C550.325 194.379 547.428 197.467 544.13 200.228C542.552 201.584 540.882 202.838 539.185 204.047C537.466 205.257 535.674 206.388 533.816 207.437L528.421 201.923C529.601 200.793 530.94 199.392 532.133 198.092C533.326 196.793 534.492 195.403 535.593 194.047C537.738 191.441 539.58 188.663 541.094 185.752C542.413 183.33 543.105 180.694 543.122 178.023C543.075 177.004 542.824 175.998 542.38 175.051L541.32 173.04C540.909 172.294 540.537 171.537 540.087 170.78C536.666 164.734 532.716 158.722 528.567 152.778C524.417 146.834 520.069 140.868 515.761 135.161L529.853 127.127Z" fill="#FF8B7B"/>
<path d="M527.93 120.403C538.416 122.336 553.502 149.908 553.502 149.908L525.412 161.592C520.415 155.079 516.264 148.123 513.03 140.845C508.138 129.195 516.702 118.324 527.93 120.403Z" fill="#407BFF"/>
<path d="M517.948 191.312L546.171 262.379C547.268 265.168 547.026 268.214 545.499 270.851C543.972 273.489 541.283 275.505 538.019 276.459L348.304 331.288C345.028 332.225 341.451 332.017 338.355 330.71C335.259 329.403 332.897 327.104 331.786 324.315L303.576 253.271C303.032 251.925 302.807 250.5 302.913 249.079C303.065 246.871 303.985 244.752 305.555 242.991C307.125 241.23 309.274 239.907 311.729 239.191L501.484 184.363C503.941 183.658 506.588 183.593 509.089 184.177C511.589 184.761 513.829 185.966 515.522 187.64C516.607 188.715 517.432 189.964 517.948 191.312Z" fill="#407BFF"/>
<path opacity="0.8" d="M517.948 191.312L546.171 262.379C547.268 265.168 547.026 268.214 545.499 270.851C543.972 273.489 541.283 275.505 538.019 276.459L348.304 331.288C345.028 332.225 341.451 332.017 338.355 330.71C335.259 329.403 332.897 327.104 331.786 324.315L303.576 253.271C303.032 251.925 302.807 250.5 302.913 249.079C303.065 246.871 303.985 244.752 305.555 242.991C307.125 241.23 309.274 239.907 311.729 239.191L501.484 184.363C503.941 183.658 506.588 183.593 509.089 184.177C511.589 184.761 513.829 185.966 515.522 187.64C516.607 188.715 517.432 189.964 517.948 191.312Z" fill="white"/>
<path opacity="0.6" d="M515.469 187.64L436.977 247.474C433.031 250.479 428.414 252.773 423.402 254.22C418.391 255.667 413.088 256.236 407.812 255.893L302.847 249.113C302.999 246.905 303.919 244.786 305.489 243.025C307.059 241.264 309.208 239.941 311.662 239.225L501.417 184.396C503.872 183.685 506.52 183.614 509.023 184.192C511.526 184.769 513.77 185.97 515.469 187.64Z" fill="#407BFF"/>
<path d="M531.258 200.601L519.194 200.669L526.631 211.054C526.631 211.054 535.221 209.28 536.017 205.596L531.258 200.601Z" fill="#FF8B7B"/>
<path d="M511.651 206.76L518.266 215.11L526.631 211.054L519.194 200.669L511.651 206.76Z" fill="#FF8B7B"/>
<path d="M512.95 76.0164C515.602 82.2089 507.581 96.5488 502.915 96.2776C498.249 96.0064 496.976 81.1015 499.627 77.395C497.109 78.3894 473.114 78.4233 473.234 76.265C473.843 68.4227 490.162 65.575 508.059 69.4849C512.712 69.2928 514.448 70.3776 512.95 76.0164Z" fill="#263238"/>
<path d="M510.631 93.9611C509.921 94.9776 508.981 95.8637 507.866 96.5679C506.751 97.2721 505.482 97.7803 504.135 98.0631C500.529 98.8089 498.832 96.0404 499.972 93.1927C500.966 90.6276 504.042 87.1584 507.621 87.6782C511.201 88.198 512.38 91.4412 510.631 93.9611Z" fill="#FF8B7B"/>
<path d="M458.93 72.321L513.998 77.7451C514.275 77.7706 514.553 77.7018 514.772 77.5538C514.99 77.4057 515.131 77.1902 515.164 76.9541C515.194 76.7193 515.116 76.4838 514.945 76.298C514.774 76.1122 514.524 75.9907 514.25 75.9597L459.168 70.5469C458.893 70.5212 458.617 70.5884 458.399 70.7341C458.181 70.8798 458.038 71.0925 458.002 71.3266C457.972 71.5631 458.053 71.8001 458.226 71.9862C458.4 72.1723 458.653 72.2926 458.93 72.321Z" fill="#407BFF"/>
<path d="M515.164 76.9092L516.119 69.9031C516.108 69.137 515.763 68.4018 515.15 67.8416C514.537 67.2814 513.7 66.9365 512.805 66.8746L478.987 61.4279C476.482 61.0211 474.175 62.2189 474.188 63.914V72.8863L515.164 76.9092Z" fill="#407BFF"/>
<path d="M477.343 70.8183L491.66 72.2308L492.151 68.6713L477.356 67.2249L477.343 70.8183Z" fill="white"/>
</svg>
