<svg width="623" height="464" viewBox="0 0 623 464" fill="none" xmlns="http://www.w3.org/2000/svg">
<path d="M560.575 427.989H519.308V428.3H560.575V427.989Z" fill="#EBEBEB"/>
<path d="M412.7 431.378H401.872V431.689H412.7V431.378Z" fill="#EBEBEB"/>
<path d="M518.062 416.426H494.151V416.737H518.062V416.426Z" fill="#EBEBEB"/>
<path d="M119.18 418.519H65.3652V418.831H119.18V418.519Z" fill="#EBEBEB"/>
<path d="M138.169 418.519H130.282V418.831H138.169V418.519Z" fill="#EBEBEB"/>
<path d="M280.537 423.777H163.812V424.089H280.537V423.777Z" fill="#EBEBEB"/>
<path d="M297.046 352.369H56.4438C54.5568 352.369 52.7472 351.619 51.4129 350.285C50.0787 348.951 49.3291 347.141 49.3291 345.254V7.05236C49.3455 5.17625 50.1024 3.38258 51.4348 2.06176C52.7673 0.740949 54.5676 -7.19265e-05 56.4438 5.23637e-09H297.046C297.981 5.23638e-09 298.906 0.184025 299.769 0.54157C300.632 0.899115 301.417 1.42318 302.077 2.08384C302.738 2.74449 303.262 3.52881 303.619 4.392C303.977 5.25519 304.161 6.18035 304.161 7.11466V345.254C304.161 346.188 303.977 347.114 303.619 347.977C303.262 348.84 302.738 349.624 302.077 350.285C301.417 350.946 300.632 351.47 299.769 351.827C298.906 352.185 297.981 352.369 297.046 352.369ZM56.4438 0.249201C54.6405 0.252495 52.912 0.97031 51.6368 2.24544C50.3617 3.52056 49.6439 5.24906 49.6406 7.05236V345.254C49.6439 347.057 50.3617 348.786 51.6368 350.061C52.912 351.336 54.6405 352.054 56.4438 352.057H297.046C298.85 352.054 300.578 351.336 301.853 350.061C303.128 348.786 303.846 347.057 303.85 345.254V7.05236C303.846 5.24906 303.128 3.52056 301.853 2.24544C300.578 0.97031 298.85 0.252495 297.046 0.249201H56.4438Z" fill="#EBEBEB"/>
<path d="M566.556 352.369H325.954C324.067 352.369 322.257 351.619 320.923 350.285C319.589 348.951 318.839 347.141 318.839 345.254V7.05236C318.855 5.17625 319.612 3.38258 320.945 2.06176C322.277 0.740949 324.077 -7.19265e-05 325.954 5.23637e-09H566.556C568.443 5.23639e-09 570.253 0.749578 571.587 2.08384C572.921 3.41809 573.671 5.22773 573.671 7.11466V345.254C573.671 347.141 572.921 348.951 571.587 350.285C570.253 351.619 568.443 352.369 566.556 352.369ZM325.954 0.249201C324.15 0.252495 322.422 0.97031 321.147 2.24544C319.872 3.52056 319.154 5.24906 319.151 7.05236V345.254C319.154 347.057 319.872 348.786 321.147 350.061C322.422 351.336 324.15 352.054 325.954 352.057H566.556C568.36 352.054 570.088 351.336 571.363 350.061C572.638 348.786 573.356 347.057 573.359 345.254V7.05236C573.356 5.24906 572.638 3.52056 571.363 2.24544C570.088 0.97031 568.36 0.252495 566.556 0.249201H325.954Z" fill="#EBEBEB"/>
<path d="M623 407.94H0V408.252H623V407.94Z" fill="#EBEBEB"/>
<path d="M115.566 280.587C116.992 287.388 121.015 293.365 126.78 297.246C132.532 301.068 139.17 303.346 146.056 303.862C152.722 304.485 159.887 303.725 165.207 299.663C170.528 295.601 173.132 287.539 169.493 281.92C164.347 273.97 153.295 273.298 143.851 273.983C134.406 274.668 124.475 277.422 115.566 280.587Z" fill="#E0E0E0"/>
<path d="M200.332 231.233C205.75 235.584 209.255 241.879 210.1 248.776C210.904 255.638 209.921 262.591 207.247 268.962C204.755 275.192 200.855 281.222 194.787 284.125C188.719 287.029 180.383 285.695 177.032 279.901C172.284 271.715 176.708 261.548 181.58 253.436C186.451 245.325 193.466 237.737 200.332 231.233Z" fill="#E0E0E0"/>
<path d="M97.0385 237.986C97.0715 244.625 99.6907 250.99 104.34 255.729C108.993 260.401 114.768 263.799 121.111 265.597C127.229 267.466 134.082 268.089 139.801 265.336C145.52 262.582 149.532 255.505 147.277 249.561C143.975 241.138 133.746 238.347 124.787 237.213C115.828 236.08 105.985 236.74 97.0385 237.986Z" fill="#E0E0E0"/>
<path d="M185.791 207.982C190.028 213.094 192.107 219.655 191.585 226.274C191.014 232.842 188.766 239.153 185.056 244.602C181.555 249.96 176.72 254.857 170.528 256.427C164.335 257.997 156.747 255.181 154.716 249.075C151.838 240.503 157.918 231.831 164.036 225.177C170.154 218.524 178.178 212.755 185.791 207.982Z" fill="#E0E0E0"/>
<path d="M85.1267 195.223C84.6282 201.537 86.6131 207.795 90.6589 212.667C94.7017 217.477 99.9157 221.163 105.798 223.37C111.455 225.626 117.921 226.784 123.603 224.616C129.285 222.448 133.571 216.056 131.889 210.213C129.397 201.964 119.927 198.55 111.517 196.719C103.106 194.887 93.7241 194.75 85.1267 195.223Z" fill="#E0E0E0"/>
<path d="M171.786 173.817C175.405 179.006 176.854 185.405 175.823 191.647C174.775 197.835 172.153 203.649 168.21 208.53C164.472 213.34 159.488 217.614 153.482 218.611C147.477 219.607 140.499 216.281 139.054 210.375C136.998 202.014 143.464 194.251 149.794 188.432C156.453 182.619 163.847 177.705 171.786 173.817Z" fill="#E0E0E0"/>
<path d="M82.7344 154.94C81.505 160.823 82.6228 166.953 85.8494 172.023C89.0885 177.045 93.5635 181.151 98.8452 183.947C103.904 186.751 109.86 188.62 115.479 187.249C121.099 185.878 125.958 180.383 125.024 174.664C123.69 166.59 115.155 162.204 107.443 159.488C99.441 156.897 91.134 155.368 82.7344 154.94Z" fill="#E0E0E0"/>
<path d="M166.964 145.159C169.746 150.488 170.345 156.691 168.634 162.453C166.922 168.159 163.773 173.33 159.488 177.468C155.376 181.555 150.168 184.944 144.387 185.193C138.605 185.442 132.425 181.455 131.765 175.686C130.842 167.562 137.87 161.033 144.536 156.298C151.495 151.625 159.035 147.88 166.964 145.159Z" fill="#E0E0E0"/>
<path d="M89.2385 110.47C87.2483 115.81 87.4182 121.714 89.712 126.93C92.0257 132.1 95.6351 136.585 100.191 139.951C104.539 143.303 109.847 145.907 115.317 145.421C120.787 144.935 126.108 140.437 126.045 134.992C125.958 127.229 118.569 121.921 111.729 118.258C104.604 114.693 97.0427 112.075 89.2385 110.47Z" fill="#E0E0E0"/>
<path d="M169.618 113.386C171.471 118.776 171.15 124.677 168.721 129.833C166.27 134.94 162.545 139.33 157.906 142.58C153.482 145.819 148.112 148.286 142.655 147.663C137.197 147.04 131.989 142.455 132.188 136.973C132.475 129.21 140.001 124.089 146.928 120.613C154.143 117.221 161.771 114.792 169.618 113.386Z" fill="#E0E0E0"/>
<path d="M102.396 69.7759C99.8518 74.5227 99.2616 80.0756 100.752 85.2512C102.26 90.3869 105.067 95.0473 108.9 98.7828C112.539 102.521 117.174 105.598 122.357 105.835C127.541 106.072 133.098 102.596 133.746 97.4495C134.643 90.1729 128.413 84.2544 122.532 80.0055C116.3 75.7233 109.529 72.2836 102.396 69.7759Z" fill="#E0E0E0"/>
<path d="M177.306 82.7717C178.351 88.058 177.291 93.5432 174.353 98.0601C171.411 102.532 167.364 106.167 162.603 108.614C158.043 111.106 152.635 112.713 147.651 111.43C142.667 110.146 138.318 105.2 139.216 100.066C140.462 92.8519 148.174 89.0142 155.102 86.6343C162.302 84.3803 169.767 83.0817 177.306 82.7717Z" fill="#E0E0E0"/>
<path d="M150.554 50.2761C150.248 49.7636 149.753 49.3909 149.176 49.2373C148.599 49.0837 147.985 49.1614 147.464 49.4537C142.106 52.21 137.69 56.5001 134.78 61.7767C132.751 65.4338 132.143 69.7107 133.073 73.7881C135.079 82.0865 146.093 84.7155 151.489 78.0868C155.65 72.9657 156.273 65.876 155.351 59.3968C154.84 55.8831 152.373 53.2914 150.554 50.2761Z" fill="#E0E0E0"/>
<path d="M266.27 329.28C237.251 326.452 209.328 313.805 185.38 292.81C162.487 272.564 145.403 246.582 135.889 217.539C121.261 172.035 124.513 119.18 145.059 68.7168L147.364 69.6638C127.092 119.541 123.815 171.786 138.306 216.804C157.357 276.051 210.088 321.318 266.544 326.863L266.27 329.28Z" fill="#E0E0E0"/>
<path d="M494.475 280.587C493.052 287.389 489.028 293.367 483.261 297.246C477.504 301.066 470.863 303.344 463.973 303.862C457.319 304.485 450.142 303.725 444.822 299.663C439.502 295.601 436.897 287.539 440.536 281.92C445.682 273.97 456.734 273.298 466.191 273.983C475.648 274.668 485.566 277.422 494.475 280.587Z" fill="#E0E0E0"/>
<path d="M409.71 231.233C404.301 235.589 400.805 241.883 399.966 248.776C399.168 255.638 400.151 262.59 402.819 268.962C405.311 275.192 409.211 281.222 415.279 284.125C421.347 287.029 429.683 285.695 433.035 279.901C437.782 271.715 433.371 261.548 428.487 253.436C423.603 245.325 416.575 237.737 409.71 231.233Z" fill="#E0E0E0"/>
<path d="M513.003 237.986C512.97 244.625 510.351 250.99 505.702 255.729C501.05 260.403 495.275 263.801 488.93 265.597C482.813 267.466 475.96 268.089 470.24 265.336C464.521 262.582 460.509 255.505 462.839 249.561C466.129 241.138 476.358 238.347 485.267 237.213C494.176 236.08 504.057 236.74 513.003 237.986Z" fill="#E0E0E0"/>
<path d="M424.25 207.982C420.012 213.092 417.937 219.656 418.469 226.274C419.028 232.844 421.277 239.158 424.998 244.602C428.487 249.96 433.321 254.857 439.514 256.427C445.707 257.997 453.295 255.181 455.326 249.075C458.204 240.503 452.124 231.831 446.006 225.177C439.888 218.524 431.913 212.755 424.25 207.982Z" fill="#E0E0E0"/>
<path d="M524.915 195.223C525.413 201.537 523.429 207.795 519.383 212.667C515.34 217.477 510.126 221.163 504.244 223.37C498.587 225.626 492.133 226.784 486.438 224.616C480.744 222.448 476.47 216.056 478.165 210.213C480.657 201.964 490.114 198.55 498.525 196.719C506.935 194.887 516.317 194.75 524.915 195.223Z" fill="#E0E0E0"/>
<path d="M438.268 173.817C434.64 179.003 433.186 185.403 434.219 191.647C435.278 197.838 437.912 203.652 441.869 208.53C445.607 213.34 450.591 217.614 456.609 218.611C462.627 219.607 469.58 216.281 471.038 210.375C473.081 202.014 466.627 194.251 460.285 188.432C453.617 182.619 446.215 177.705 438.268 173.817Z" fill="#E0E0E0"/>
<path d="M527.307 154.94C528.537 160.823 527.419 166.953 524.192 172.023C520.953 177.045 516.478 181.151 511.196 183.947C506.138 186.751 500.194 188.62 494.562 187.249C488.93 185.878 484.083 180.383 485.018 174.664C486.351 166.59 494.886 162.204 502.611 159.488C510.609 156.897 518.912 155.368 527.307 154.94Z" fill="#E0E0E0"/>
<path d="M443.028 145.159C440.246 150.488 439.647 156.691 441.358 162.453C443.107 168.169 446.295 173.339 450.616 177.468C454.715 181.555 459.924 184.944 465.705 185.193C471.486 185.442 477.667 181.455 478.327 175.686C479.249 167.562 472.234 161.033 465.555 156.298C458.565 151.617 450.991 147.872 443.028 145.159Z" fill="#E0E0E0"/>
<path d="M520.828 110.47C522.814 115.811 522.64 121.716 520.342 126.93C518.028 132.1 514.419 136.585 509.863 139.951C505.515 143.303 500.207 145.907 494.749 145.421C489.292 144.935 483.946 140.437 484.009 134.992C484.096 127.229 491.485 121.921 498.325 118.258C505.454 114.692 513.019 112.074 520.828 110.47Z" fill="#E0E0E0"/>
<path d="M440.424 113.386C438.57 118.776 438.892 124.677 441.321 129.833C443.772 134.94 447.497 139.33 452.136 142.58C456.559 145.819 461.93 148.286 467.387 147.663C472.845 147.04 478.053 142.455 477.854 136.973C477.567 129.21 470.054 124.089 463.113 120.613C455.899 117.221 448.271 114.792 440.424 113.386Z" fill="#E0E0E0"/>
<path d="M507.645 69.7759C510.19 74.5227 510.78 80.0756 509.29 85.2512C507.788 90.3899 504.981 95.0519 501.141 98.7828C497.503 102.521 492.868 105.598 487.684 105.835C482.501 106.072 476.944 102.596 476.296 97.4495C475.399 90.1729 481.629 84.2544 487.572 80.0055C493.784 75.7273 500.533 72.2877 507.645 69.7759Z" fill="#E0E0E0"/>
<path d="M432.736 82.7717C431.691 88.058 432.751 93.5432 435.689 98.0601C438.63 102.532 442.678 106.167 447.439 108.614C451.999 111.106 457.344 112.713 462.391 111.43C467.437 110.146 471.723 105.2 470.826 100.066C469.58 92.8519 461.88 89.0142 454.94 86.6343C447.739 84.3803 440.274 83.0817 432.736 82.7717Z" fill="#E0E0E0"/>
<path d="M459.487 50.276C459.796 49.7626 460.293 49.3896 460.872 49.2361C461.451 49.0826 462.067 49.1606 462.59 49.4537C467.942 52.2138 472.353 56.5032 475.262 61.7766C477.29 65.4337 477.898 69.7106 476.969 73.788C474.963 82.0864 463.948 84.7155 458.553 78.0867C454.391 72.9657 453.768 65.8759 454.703 59.3967C455.201 55.883 457.668 53.2913 459.487 50.276Z" fill="#E0E0E0"/>
<path d="M343.771 329.28L343.535 326.788C399.966 321.256 452.734 275.989 471.773 216.804C486.226 171.848 482.987 119.616 462.677 69.6887L464.995 68.7417C485.529 119.205 488.781 172.06 474.153 217.564C464.641 246.598 447.562 272.572 424.674 292.81C400.763 313.805 372.791 326.452 343.771 329.28Z" fill="#E0E0E0"/>
<path d="M268.351 302.417L260.875 341.703H270.22L283.315 310.366C283.315 310.366 282.381 300.548 268.351 302.417Z" fill="#E0E0E0"/>
<path d="M350.126 302.417L357.602 341.703H348.257L335.174 310.366C335.174 310.366 336.121 300.548 350.126 302.417Z" fill="#E0E0E0"/>
<path d="M377.4 269.617C386.296 231.924 362.952 194.156 325.258 185.259C287.565 176.363 249.797 199.707 240.9 237.4C232.004 275.094 255.348 312.862 293.042 321.759C330.735 330.655 368.503 307.311 377.4 269.617Z" fill="#EBEBEB"/>
<path d="M310.055 307.712C339.982 307.712 364.243 283.451 364.243 253.524C364.243 223.596 339.982 199.335 310.055 199.335C280.127 199.335 255.866 223.596 255.866 253.524C255.866 283.451 280.127 307.712 310.055 307.712Z" fill="white"/>
<path d="M351.521 263.509C357.044 240.108 342.551 216.661 319.15 211.138C295.749 205.615 272.302 220.107 266.779 243.508C261.256 266.909 275.748 290.357 299.149 295.88C322.55 301.403 345.998 286.91 351.521 263.509Z" fill="#E6E6E6"/>
<path d="M309.158 287.166C327.737 287.166 342.8 272.104 342.8 253.524C342.8 234.944 327.737 219.882 309.158 219.882C290.578 219.882 275.516 234.944 275.516 253.524C275.516 272.104 290.578 287.166 309.158 287.166Z" fill="white"/>
<path d="M309.158 263.242C314.525 263.242 318.876 258.891 318.876 253.523C318.876 248.156 314.525 243.805 309.158 243.805C303.79 243.805 299.439 248.156 299.439 253.523C299.439 258.891 303.79 263.242 309.158 263.242Z" fill="#E0E0E0"/>
<path d="M395.343 270.332L380.765 276.55L355.297 268.85L355.284 268.837L365.402 261.037L395.343 270.332Z" fill="#E6E6E6"/>
<path opacity="0.1" d="M395.343 270.332L380.765 276.55L355.297 268.85L355.284 268.837L365.402 261.037L395.343 270.332Z" fill="black"/>
<path d="M308.223 253.711C308.269 253.563 308.343 253.426 308.441 253.307C308.54 253.189 308.661 253.09 308.798 253.019C308.934 252.947 309.084 252.903 309.237 252.889C309.391 252.875 309.546 252.892 309.693 252.938L381.102 275.428L380.429 277.671L309.008 255.168C308.721 255.064 308.483 254.857 308.338 254.589C308.194 254.32 308.153 254.008 308.223 253.711Z" fill="#E0E0E0"/>
<g opacity="0.1">
<path d="M308.223 253.711C308.269 253.563 308.343 253.426 308.441 253.307C308.54 253.189 308.661 253.09 308.798 253.019C308.934 252.947 309.084 252.903 309.237 252.889C309.391 252.875 309.546 252.892 309.693 252.938L381.102 275.428L380.429 277.671L309.008 255.168C308.721 255.064 308.483 254.857 308.338 254.589C308.194 254.32 308.153 254.008 308.223 253.711Z" fill="black"/>
</g>
<path d="M386.048 289.645L360.904 281.995L355.297 268.849L380.765 276.55L386.048 289.645Z" fill="#E6E6E6"/>
<g opacity="0.1">
<path d="M386.048 289.645L360.904 281.995L355.297 268.849L380.765 276.55L386.048 289.645Z" fill="black"/>
</g>
<path d="M218.835 163.874C219.466 164.77 220.411 165.396 221.482 165.627C222.554 165.858 223.672 165.677 224.616 165.12L255.604 146.716C256.28 146.317 257.05 146.106 257.835 146.106L330.913 146.268L365.9 123.105L369.165 127.528L377.251 110.259L359.396 111.704L361.452 115.866L330.115 138.181L256.838 138.294C256.114 138.295 255.403 138.479 254.77 138.829L220.318 157.519C219.775 157.813 219.302 158.218 218.928 158.708C218.553 159.199 218.288 159.763 218.147 160.363C218.007 160.964 217.996 161.587 218.115 162.192C218.233 162.797 218.479 163.371 218.835 163.874Z" fill="#EBEBEB"/>
<path d="M389.923 91.3941H386.185C385.323 91.4048 384.496 91.7405 383.87 92.3341C383.244 92.9277 382.865 93.7355 382.809 94.5963L381.912 111.891C381.884 112.305 381.942 112.721 382.083 113.112C382.224 113.503 382.444 113.86 382.729 114.162C383.015 114.464 383.36 114.704 383.742 114.866C384.124 115.028 384.536 115.11 384.952 115.105H388.69C389.554 115.095 390.383 114.757 391.009 114.161C391.635 113.565 392.013 112.754 392.066 111.891L392.976 94.5963C393.002 94.1817 392.942 93.7663 392.799 93.3761C392.657 92.9858 392.436 92.6292 392.149 92.3285C391.862 92.0279 391.517 91.7897 391.134 91.6289C390.751 91.4681 390.339 91.3882 389.923 91.3941Z" fill="#EBEBEB"/>
<path d="M419.541 91.3941H408.563L411.055 85.6251C411.316 85.008 411.414 84.3347 411.342 83.6689L410.831 79.121C410.735 78.2367 410.313 77.4199 409.647 76.8301C408.981 76.2403 408.12 75.9198 407.23 75.9312H402.869L402.495 82.9711L395.431 91.88C394.726 92.7627 394.312 93.8424 394.247 94.9701L393.4 111.168C393.369 111.678 393.443 112.188 393.617 112.668C393.791 113.147 394.062 113.586 394.412 113.957C394.762 114.329 395.185 114.624 395.653 114.826C396.122 115.028 396.627 115.131 397.138 115.13H412.426C413.105 115.123 413.775 114.974 414.393 114.693C415.011 114.412 415.563 114.005 416.014 113.498L417.435 111.916C418.034 111.28 418.455 110.498 418.656 109.648L422.02 94.696L419.541 91.3941Z" fill="#EBEBEB"/>
<path d="M311.5 463.524C444.925 463.524 553.087 457.209 553.087 449.42C553.087 441.63 444.925 435.315 311.5 435.315C178.075 435.315 69.9131 441.63 69.9131 449.42C69.9131 457.209 178.075 463.524 311.5 463.524Z" fill="#F5F5F5"/>
<path d="M432.698 393.96H190.302V460.559H432.698V393.96Z" fill="#263238"/>
<path opacity="0.2" d="M432.698 393.96H190.302V460.571H432.698V393.96Z" fill="white"/>
<path d="M361.066 341.566H255.854V393.91H361.066V341.566Z" fill="#263238"/>
<path opacity="0.2" d="M361.066 341.566H255.854V393.91H361.066V341.566Z" fill="white"/>
<path d="M305.357 356.356L304.261 361.888H310.254L305.407 386.123H312.297L318.203 356.356H305.357Z" fill="#407BFF"/>
<g opacity="0.2">
<path d="M306.404 356.356L305.295 361.888H311.251L306.404 386.123H312.248L318.203 356.356H306.404Z" fill="white"/>
</g>
<path d="M280.35 25.107C280.251 25.1115 280.152 25.09 280.063 25.0447L270.594 20.0607C270.516 20.0258 270.446 19.9751 270.388 19.912C270.331 19.8489 270.287 19.7746 270.259 19.6938C270.232 19.6129 270.221 19.5273 270.228 19.4422C270.235 19.357 270.259 19.2742 270.299 19.1989C270.34 19.1235 270.395 19.0573 270.462 19.0042C270.529 18.9512 270.606 18.9124 270.688 18.8904C270.771 18.8684 270.857 18.8636 270.942 18.8763C271.026 18.889 271.107 18.919 271.179 18.9643L280.649 23.9483C280.721 23.9874 280.785 24.0404 280.836 24.1042C280.888 24.168 280.927 24.2414 280.95 24.3201C280.973 24.3989 280.98 24.4814 280.971 24.563C280.963 24.6446 280.938 24.7236 280.898 24.7955C280.844 24.8924 280.764 24.9727 280.667 25.0275C280.571 25.0824 280.461 25.1099 280.35 25.107Z" fill="#407BFF"/>
<path d="M286.68 28.496C286.576 28.4994 286.474 28.478 286.381 28.4337L283.191 26.7392C283.118 26.7011 283.053 26.6489 283 26.5856C282.947 26.5222 282.907 26.449 282.883 26.3702C282.859 26.2914 282.85 26.2085 282.858 26.1264C282.866 26.0443 282.89 25.9646 282.929 25.8919C283.009 25.7465 283.141 25.6377 283.3 25.5888C283.458 25.54 283.629 25.5548 283.777 25.6302L286.966 27.3248C287.112 27.4041 287.22 27.537 287.269 27.6952C287.318 27.8535 287.303 28.0246 287.228 28.1721C287.174 28.2704 287.095 28.3524 286.998 28.4094C286.902 28.4664 286.792 28.4963 286.68 28.496Z" fill="#407BFF"/>
<path d="M280.35 37.6044H255.879C255.713 37.6044 255.555 37.5388 255.438 37.4219C255.321 37.3051 255.256 37.1466 255.256 36.9814C255.256 36.8162 255.321 36.6577 255.438 36.5409C255.555 36.424 255.713 36.3584 255.879 36.3584H280.35C280.515 36.3584 280.674 36.424 280.791 36.5409C280.907 36.6577 280.973 36.8162 280.973 36.9814C280.973 37.1466 280.907 37.3051 280.791 37.4219C280.674 37.5388 280.515 37.6044 280.35 37.6044Z" fill="#407BFF"/>
<path d="M250.683 65.8262C250.57 65.8279 250.46 65.7985 250.363 65.7414C250.266 65.6842 250.187 65.6015 250.135 65.5023C250.096 65.4296 250.071 65.3498 250.063 65.2677C250.055 65.1856 250.064 65.1027 250.088 65.0239C250.113 64.9451 250.152 64.8719 250.205 64.8086C250.258 64.7452 250.323 64.693 250.396 64.655L262.507 58.2256C262.58 58.1866 262.66 58.1624 262.742 58.1545C262.824 58.1466 262.907 58.155 262.986 58.1794C263.064 58.2037 263.138 58.2434 263.201 58.2963C263.264 58.3492 263.317 58.4141 263.355 58.4873C263.393 58.559 263.417 58.6378 263.425 58.719C263.433 58.8002 263.424 58.8821 263.4 58.9599C263.376 59.0377 263.336 59.1099 263.283 59.1721C263.23 59.2343 263.166 59.2853 263.093 59.3221L250.982 65.7515C250.889 65.7996 250.787 65.8252 250.683 65.8262Z" fill="#407BFF"/>
<path d="M266.108 57.7896C265.996 57.7913 265.885 57.7619 265.789 57.7047C265.692 57.6476 265.613 57.5649 265.56 57.4656C265.483 57.3211 265.464 57.1523 265.508 56.9944C265.552 56.8365 265.656 56.7018 265.797 56.6184L270.843 53.8024C270.914 53.7607 270.992 53.7338 271.074 53.7232C271.155 53.7125 271.238 53.7184 271.317 53.7405C271.396 53.7626 271.47 53.8005 271.534 53.8518C271.598 53.9031 271.651 53.9668 271.69 54.0391C271.771 54.1829 271.791 54.3529 271.747 54.5117C271.703 54.6705 271.597 54.8053 271.454 54.8864L266.407 57.7148C266.315 57.7644 266.213 57.7901 266.108 57.7896Z" fill="#407BFF"/>
<path d="M274.12 53.3788C274.008 53.3805 273.897 53.3511 273.8 53.294C273.704 53.2368 273.625 53.1541 273.572 53.0549C273.533 52.9822 273.509 52.9025 273.501 52.8203C273.493 52.7382 273.501 52.6554 273.526 52.5765C273.55 52.4977 273.59 52.4245 273.642 52.3612C273.695 52.2978 273.76 52.2456 273.833 52.2076L286.094 45.7035C286.165 45.6643 286.243 45.6396 286.324 45.6309C286.405 45.6223 286.486 45.6297 286.564 45.6529C286.642 45.6761 286.714 45.7146 286.777 45.7661C286.839 45.8175 286.891 45.881 286.929 45.9527C286.968 46.0246 286.993 46.1037 287.002 46.1852C287.011 46.2668 287.004 46.3494 286.98 46.4281C286.957 46.5068 286.919 46.5802 286.867 46.644C286.816 46.7078 286.752 46.7608 286.68 46.7999L274.419 53.3041C274.327 53.3522 274.224 53.3778 274.12 53.3788Z" fill="#407BFF"/>
<path d="M344.245 28.4961C344.132 28.4978 344.022 28.4684 343.925 28.4112C343.828 28.3541 343.749 28.2713 343.697 28.1721C343.658 28.0994 343.633 28.0197 343.625 27.9376C343.618 27.8555 343.626 27.7726 343.65 27.6938C343.675 27.615 343.714 27.5418 343.767 27.4784C343.82 27.4151 343.885 27.3629 343.958 27.3248L359.807 18.9143C359.879 18.8756 359.958 18.8516 360.039 18.8439C360.12 18.8361 360.202 18.8446 360.28 18.869C360.358 18.8934 360.43 18.9331 360.492 18.9859C360.554 19.0386 360.605 19.1032 360.642 19.176C360.681 19.247 360.706 19.3251 360.715 19.4058C360.723 19.4864 360.716 19.568 360.693 19.6457C360.669 19.7234 360.631 19.7957 360.58 19.8584C360.528 19.9211 360.465 19.9729 360.393 20.0108L344.544 28.4338C344.451 28.4781 344.348 28.4994 344.245 28.4961Z" fill="#407BFF"/>
<path d="M363.321 37.6044H350.637C350.472 37.6044 350.313 37.5388 350.196 37.4219C350.079 37.3051 350.014 37.1466 350.014 36.9814C350.014 36.8162 350.079 36.6577 350.196 36.5409C350.313 36.424 350.472 36.3584 350.637 36.3584H363.321C363.486 36.3584 363.645 36.424 363.762 36.5409C363.878 36.6577 363.944 36.8162 363.944 36.9814C363.944 37.0632 363.928 37.1442 363.897 37.2198C363.865 37.2954 363.819 37.3641 363.762 37.4219C363.704 37.4798 363.635 37.5257 363.559 37.557C363.484 37.5883 363.403 37.6044 363.321 37.6044Z" fill="#407BFF"/>
<path d="M370.635 37.6044H367.819C367.654 37.6044 367.495 37.5388 367.379 37.4219C367.262 37.3051 367.196 37.1466 367.196 36.9814C367.196 36.8162 367.262 36.6577 367.379 36.5409C367.495 36.424 367.654 36.3584 367.819 36.3584H370.635C370.799 36.3616 370.956 36.4282 371.072 36.5444C371.188 36.6605 371.255 36.8172 371.258 36.9814C371.258 37.1466 371.192 37.3051 371.076 37.4219C370.959 37.5388 370.8 37.6044 370.635 37.6044Z" fill="#407BFF"/>
<path d="M380.229 37.6044H375.046C374.881 37.6044 374.722 37.5388 374.605 37.4219C374.489 37.3051 374.423 37.1466 374.423 36.9814C374.423 36.8162 374.489 36.6577 374.605 36.5409C374.722 36.424 374.881 36.3584 375.046 36.3584H380.204C380.37 36.3584 380.528 36.424 380.645 36.5409C380.762 36.6577 380.827 36.8162 380.827 36.9814C380.828 37.1424 380.765 37.2972 380.654 37.4133C380.542 37.5295 380.39 37.598 380.229 37.6044Z" fill="#407BFF"/>
<path d="M380.229 65.8262C380.129 65.8268 380.03 65.801 379.943 65.7514L344.232 46.7997C344.087 46.7205 343.978 46.5875 343.929 46.4293C343.881 46.271 343.895 46.0999 343.971 45.9525C344.01 45.8803 344.063 45.8166 344.127 45.765C344.191 45.7134 344.264 45.6749 344.343 45.6518C344.421 45.6286 344.504 45.6213 344.586 45.6301C344.667 45.6389 344.746 45.6638 344.818 45.7033L380.528 64.6549C380.651 64.7209 380.747 64.8259 380.803 64.9531C380.859 65.0804 380.871 65.2227 380.836 65.3573C380.802 65.4919 380.723 65.6112 380.613 65.6961C380.504 65.7811 380.368 65.8269 380.229 65.8262Z" fill="#407BFF"/>
<path d="M414.046 358.586L411.504 385.039L418.12 386.048L420.998 361.601L414.046 358.586Z" fill="#DD8C6A"/>
<path d="M418.02 385.014C418.289 385.045 418.536 385.177 418.712 385.383C418.887 385.588 418.979 385.853 418.967 386.123C418.882 388.858 418.649 391.587 418.27 394.297C417.933 395.094 396.714 393.724 396.714 393.724C395.966 393.175 396.39 392.602 396.801 391.381C398.271 389.338 403.492 389.35 406.595 388.677C410.27 387.867 410.034 385.849 410.706 384.79C410.816 384.623 410.969 384.489 411.149 384.403C411.329 384.317 411.53 384.283 411.728 384.304L418.02 385.014Z" fill="#407BFF"/>
<path d="M447.414 237.089C447.414 237.089 455.002 250.072 449.756 262.32L445.345 270.519C443.455 274.031 441.79 277.66 440.361 281.384L427.017 318.191L427.228 327.586C427.339 332.056 427.005 336.526 426.232 340.931L420.537 376.579L409.136 374.784L409.772 316.546L427.378 237.089H447.414Z" fill="#263238"/>
<g opacity="0.2">
<path d="M447.414 237.089C447.414 237.089 455.002 250.072 449.756 262.32L445.345 270.519C443.455 274.031 441.79 277.66 440.361 281.384L427.017 318.191L427.228 327.586C427.339 332.056 427.005 336.526 426.232 340.931L420.537 376.579L409.136 374.784L409.772 316.546L427.378 237.089H447.414Z" fill="black"/>
</g>
<path d="M408.601 372.554C408.875 372.467 424.226 374.585 424.226 374.585L422.045 378.784L407.255 377.538L408.601 372.554Z" fill="#407BFF"/>
<path d="M405.61 188.52L397.96 207.06L374.099 213.926L377.289 219.296C377.289 219.296 398.296 218.05 404.539 213.34C405.934 212.281 415.441 192.158 415.441 192.158L405.61 188.52Z" fill="#DD8C6A"/>
<path d="M374.099 213.926L366.486 214.474C366.486 214.474 361.44 219.296 362.374 220.355C363.309 221.414 366.922 224.94 366.922 224.94C368.791 223.886 370.751 223.002 372.778 222.299C374.336 222.012 377.289 219.271 377.289 219.271L374.099 213.926Z" fill="#DD8C6A"/>
<path d="M428.263 272.313C428.263 272.313 410.819 302.516 410.059 306.778C409.61 309.27 411.479 310.416 412.974 323.773C414.071 333.417 414.706 353.403 414.407 355.322L403.941 357.452C403.941 357.452 392.615 319.1 390.708 309.967C387.057 292.523 411.217 236.889 411.217 236.889L441.906 237.089L442.479 247.219C442.978 255.941 436.997 271.279 428.263 272.313Z" fill="#263238"/>
<path d="M405.723 355.571L407.978 367.944L414.968 366.025L412.775 352.78L405.723 355.571Z" fill="#DD8C6A"/>
<path d="M412.239 364.293C412.928 364.013 413.688 363.964 414.407 364.153C415.126 364.341 415.764 364.758 416.226 365.34C417.683 367.067 419.027 368.886 420.251 370.785C420.513 371.607 402.034 385.861 402.034 385.861C401.125 385.936 400.116 384.291 400.577 383.768C401.636 381.077 404.427 377.949 405.648 375.046C406.448 372.768 407.032 370.419 407.392 368.031C407.488 367.454 407.73 366.91 408.097 366.454C408.464 365.998 408.942 365.644 409.485 365.427L412.239 364.293Z" fill="#407BFF"/>
<path d="M400.614 354.45C400.851 354.288 417.161 351.895 417.161 351.895L416.862 356.468L400.577 359.596L400.614 354.45Z" fill="#407BFF"/>
<path d="M415.08 153.956C414.628 155.529 414.01 157.049 413.236 158.491C413.455 158.748 413.741 158.939 414.062 159.042C414.384 159.146 414.727 159.158 415.055 159.077L415.08 153.956Z" fill="#DF5753"/>
<path d="M414.98 151.638C414.507 151.638 414.133 152.211 414.12 152.884C414.108 153.557 414.494 154.13 414.968 154.13C415.441 154.13 415.827 153.557 415.827 152.884C415.827 152.211 415.454 151.638 414.98 151.638Z" fill="#263238"/>
<path d="M437.221 162.416C436.162 167.699 435.078 177.368 438.766 180.944C438.766 180.944 437.284 186.302 427.453 186.252C416.637 186.252 422.319 180.857 422.319 180.857C428.225 179.474 428.101 175.1 427.091 170.976L437.221 162.416Z" fill="#E58A7B"/>
<path d="M440.174 150.38C439.576 159.214 439.514 162.964 435.028 167.475C428.275 174.265 417.584 171.611 415.504 162.827C413.647 154.865 413.797 143.452 422.494 139.988C428.661 137.496 436.81 138.742 439.315 144.972C440.006 146.686 440.3 148.535 440.174 150.38Z" fill="#DD8C6A"/>
<path d="M441.894 181.555C441.97 181.034 441.839 180.503 441.529 180.077C441.22 179.651 440.756 179.363 440.237 179.274C436.249 178.602 427.166 177.206 422.581 177.817C419.179 178.278 418.282 180.246 418.12 181.879C418.075 182.4 418.236 182.918 418.57 183.321C418.903 183.724 419.381 183.981 419.902 184.034H420.226L439.987 183.237C440.449 183.215 440.89 183.037 441.236 182.731C441.583 182.425 441.815 182.01 441.894 181.555Z" fill="#407BFF"/>
<path opacity="0.6" d="M441.894 181.555C441.97 181.034 441.839 180.503 441.529 180.077C441.22 179.651 440.756 179.363 440.237 179.274C436.249 178.602 427.166 177.206 422.581 177.817C419.179 178.278 418.282 180.246 418.12 181.879C418.075 182.4 418.236 182.918 418.57 183.321C418.903 183.724 419.381 183.981 419.902 184.034H420.226L439.987 183.237C440.449 183.215 440.89 183.037 441.236 182.731C441.583 182.425 441.815 182.01 441.894 181.555Z" fill="black"/>
<path d="M449.009 176.247L455.463 160.734L446.143 134.294L452.373 133.559C452.373 133.559 463.811 155.351 463.873 163.176C463.873 164.933 453.719 184.757 453.719 184.757L449.009 176.247Z" fill="#DD8C6A"/>
<path d="M439.95 181.393C439.95 177.592 452.647 166.266 452.647 166.266C456.585 169.36 459.654 173.421 461.556 178.053L461.83 178.739C461.83 178.739 455.6 189.953 450.74 189.392C445.644 188.831 439.95 186.152 439.95 181.393Z" fill="#407BFF"/>
<path opacity="0.1" d="M439.95 181.393C439.95 177.592 452.647 166.266 452.647 166.266C456.585 169.36 459.654 173.421 461.556 178.053L461.83 178.739C461.83 178.739 455.6 189.953 450.74 189.392C445.644 188.831 439.95 186.152 439.95 181.393Z" fill="black"/>
<path d="M409.112 178.253C409.112 178.253 410.158 192.706 411.155 236.815L447.364 237.014C446.903 224.267 448.298 212.256 453.332 189.816C453.679 188.29 453.697 186.708 453.385 185.175C453.073 183.641 452.438 182.192 451.522 180.924C450.606 179.655 449.43 178.597 448.073 177.818C446.716 177.039 445.208 176.559 443.651 176.409C442.654 176.309 441.645 176.234 440.648 176.172C435.175 175.744 429.678 175.715 424.201 176.085C417.123 176.67 409.112 178.253 409.112 178.253Z" fill="#407BFF"/>
<path d="M401.598 188.146C399.717 196.581 397.424 200.083 397.424 200.083L410.794 207.932C410.794 207.932 420.263 184.807 418.594 180.172C417.572 177.343 414.519 177.231 412.251 178.004C412.251 178.004 412.189 178.004 412.164 178.004C408.102 176.371 403.243 180.857 401.598 188.146Z" fill="#407BFF"/>
<path d="M418.656 141.857C417.641 147.079 418.652 152.492 421.484 156.996C423.279 159.812 424.749 162.827 426.668 165.394C427.277 166.221 428.051 166.914 428.94 167.428C429.829 167.943 430.815 168.269 431.835 168.386C432.856 168.503 433.89 168.408 434.872 168.108C435.855 167.807 436.765 167.308 437.545 166.64C440.989 163.691 443.149 159.517 443.567 155.002C443.986 150.487 442.631 145.987 439.788 142.455C437.841 139.904 434.976 138.214 431.801 137.745C429.094 137.67 426.401 138.171 423.902 139.216C422.008 139.938 420.55 141.209 418.656 141.857Z" fill="#263238"/>
<path d="M423.54 155.239C423.528 156.915 423.04 158.553 422.132 159.961C420.886 161.781 419.503 161.083 419.154 159.127C418.843 157.42 419.154 154.379 420.65 153.208C422.145 152.037 423.54 153.258 423.54 155.239Z" fill="#DD8C6A"/>
<path opacity="0.2" d="M410.133 207.309L415.828 191.111L413.336 208.767C412.186 208.487 411.099 207.993 410.133 207.309Z" fill="black"/>
<path d="M446.143 134.344L441.931 127.977C441.931 127.977 442.679 121.024 444.087 121.124C445.495 121.223 450.491 121.934 450.491 121.934C450.803 124.049 451.299 126.134 451.974 128.164C452.697 129.584 452.323 133.596 452.323 133.596L446.143 134.344Z" fill="#DD8C6A"/>
<path d="M411.392 143.39C411.113 144.159 411.132 145.006 411.445 145.762C411.759 146.519 412.344 147.13 413.086 147.477C413.145 148.234 413.362 148.97 413.725 149.637C414.087 150.304 414.587 150.887 415.19 151.348C415.793 151.81 416.487 152.138 417.226 152.312C417.965 152.487 418.733 152.503 419.478 152.361C418.07 151.825 417.846 149.869 418.494 148.461C419.678 145.969 423.752 143.128 420.338 140.636C417.746 138.73 412.426 140.424 411.392 143.39Z" fill="#263238"/>
<path d="M413.672 150.841C414.086 150.674 414.535 150.609 414.98 150.653C415.424 150.696 415.852 150.846 416.226 151.09L416.326 151.152C416.407 151.182 416.496 151.182 416.577 151.153C416.657 151.123 416.725 151.065 416.767 150.99C416.809 150.915 416.823 150.827 416.806 150.743C416.789 150.658 416.743 150.582 416.675 150.529C416.211 150.213 415.679 150.011 415.122 149.942C414.565 149.873 414 149.937 413.473 150.131C413.395 150.163 413.329 150.22 413.286 150.292C413.261 150.334 413.246 150.38 413.24 150.428C413.233 150.476 413.237 150.524 413.249 150.571C413.262 150.617 413.284 150.66 413.314 150.698C413.344 150.736 413.381 150.768 413.423 150.791C413.497 150.838 413.586 150.856 413.672 150.841Z" fill="#263238"/>
<path d="M439.34 198.874C439.34 198.799 441.246 195.448 440.972 193.379C441.522 192.913 441.975 192.343 442.304 191.702C442.634 191.06 442.833 190.36 442.891 189.641C443.058 188.133 442.634 186.619 441.707 185.417C442.605 183.962 442.971 182.242 442.744 180.547C442.517 178.853 441.71 177.289 440.461 176.122C442.691 173.481 442.342 168.484 439.315 166.839C440.286 166.098 440.94 165.015 441.143 163.81C441.347 162.605 441.085 161.367 440.411 160.348C439.925 160.348 439.938 159.762 439.502 159.962C437.608 160.982 435.991 162.449 434.792 164.235C433.014 163.101 430.881 162.658 428.798 162.989C428.287 163.579 427.954 164.303 427.841 165.076C427.728 165.848 427.838 166.637 428.16 167.349C428.481 168.061 428.999 168.666 429.653 169.092C430.308 169.519 431.07 169.749 431.851 169.755C431.228 173.194 433.097 176.969 436.598 177.455C435.028 181.281 436.175 183.997 440 185.529C438.33 187.673 437.608 191.087 439.078 193.379C438.458 193.934 437.957 194.609 437.606 195.363C437.255 196.116 437.06 196.934 437.034 197.765C436.773 200.357 439.34 198.874 439.34 198.874Z" fill="#263238"/>
<path d="M437.894 197.74C437.063 197.512 436.177 197.593 435.399 197.966C434.622 198.34 434.006 198.982 433.665 199.774C433.324 200.565 433.28 201.454 433.542 202.276C433.804 203.097 434.354 203.796 435.091 204.244C434.91 204.069 434.771 203.854 434.686 203.617C434.602 203.379 434.573 203.125 434.601 202.875C434.63 202.624 434.717 202.384 434.853 202.172C434.99 201.96 435.173 201.782 435.39 201.653C435.124 201.918 434.941 202.254 434.862 202.621C434.782 202.988 434.81 203.37 434.941 203.721C435.29 204.264 435.673 204.784 436.087 205.279C436.288 205.53 436.414 205.832 436.452 206.152C436.489 206.471 436.436 206.794 436.299 207.085C437.326 206.626 438.245 205.956 438.996 205.119C439.748 204.282 440.315 203.296 440.66 202.226C441.059 201.217 441.059 200.095 440.66 199.086C440.416 198.584 440.011 198.179 439.51 197.935C439.008 197.691 438.439 197.623 437.894 197.74Z" fill="#263238"/>
<path d="M437.894 196.058L434.256 197.528C433.678 197.699 433.074 197.758 432.474 197.703C431.285 196.245 430.708 194.382 430.867 192.507C431.145 190.485 432.129 188.627 433.645 187.261C434.984 188.152 436.207 189.207 437.284 190.401C437.876 191.012 438.509 191.582 439.178 192.108C439.48 192.443 439.666 192.867 439.706 193.317C439.747 193.766 439.64 194.217 439.402 194.6C438.934 195.326 438.274 195.908 437.495 196.282C437.533 196.046 437.857 196.245 437.894 196.058Z" fill="#407BFF"/>
<path d="M440.498 197.154L443.651 199.497C444.161 199.813 444.728 200.025 445.32 200.12C446.841 199.014 447.873 197.361 448.199 195.51C448.446 193.484 447.97 191.436 446.853 189.728C445.331 190.249 443.878 190.957 442.529 191.834C441.801 192.268 441.048 192.66 440.274 193.005C439.903 193.25 439.62 193.607 439.466 194.024C439.311 194.44 439.293 194.895 439.414 195.323C439.687 196.145 440.178 196.877 440.835 197.441C440.86 197.242 440.486 197.354 440.498 197.154Z" fill="#407BFF"/>
<path opacity="0.4" d="M437.894 196.058L434.256 197.528C433.678 197.699 433.074 197.758 432.474 197.703C431.285 196.245 430.708 194.382 430.867 192.507C431.145 190.485 432.129 188.627 433.645 187.261C434.984 188.152 436.207 189.207 437.284 190.401C437.876 191.012 438.509 191.582 439.178 192.108C439.48 192.443 439.666 192.867 439.706 193.317C439.747 193.766 439.64 194.217 439.402 194.6C438.934 195.326 438.274 195.908 437.495 196.282C437.533 196.046 437.857 196.245 437.894 196.058Z" fill="black"/>
<path opacity="0.4" d="M440.498 197.154L443.651 199.497C444.161 199.813 444.728 200.025 445.32 200.12C446.841 199.014 447.873 197.361 448.199 195.51C448.446 193.484 447.97 191.436 446.853 189.728C445.331 190.249 443.878 190.957 442.529 191.834C441.801 192.268 441.048 192.66 440.274 193.005C439.903 193.25 439.62 193.607 439.466 194.024C439.311 194.44 439.293 194.895 439.414 195.323C439.687 196.145 440.178 196.877 440.835 197.441C440.86 197.242 440.486 197.354 440.498 197.154Z" fill="black"/>
<path d="M285.82 341.068C285.07 340.056 284.141 339.19 283.079 338.513C283.079 338.513 280.487 334.19 281.484 323.399L277.235 321.057C276.51 320.675 275.686 320.524 274.873 320.624C274.06 320.724 273.297 321.071 272.687 321.618C272.512 321.765 272.365 321.942 272.251 322.141C271.745 323.177 271.3 324.242 270.918 325.331C269.706 329.057 268.716 332.851 267.952 336.694L268.762 336.931L270.905 329.866C271.603 327.461 272.787 330.801 272.65 333.542C272.513 336.283 272.936 339.373 278.219 340.856C284.362 342.563 287.016 342.987 285.82 341.068Z" fill="#2E353A"/>
<path d="M281.073 324.508L275.516 322.726L275.167 314.615L276.188 305.245L285.496 306.279L282.854 317.194L281.073 324.508Z" fill="#FFC3BD"/>
<path d="M281.87 319.487C281.87 319.487 281.621 324.471 281.87 330.115C281.822 332.985 282.33 335.837 283.365 338.513C283.365 338.513 279.191 338.202 278.157 335.074C277.123 331.947 277.11 322.203 272.936 321.655C273.429 321.065 273.985 320.53 274.593 320.06C275.528 319.312 281.87 319.487 281.87 319.487Z" fill="#FFC3BD"/>
<path d="M324.695 47.4228L328.296 50.2512L332.682 48.4321L328.695 45.2797C328.695 45.2797 326.265 43.8468 324.695 47.4228Z" fill="#FFC3BD"/>
<path d="M309.083 47.8465C309.663 47.3962 310.179 46.8679 310.615 46.2765C311.004 45.7094 311.179 45.0233 311.111 44.3393C311.042 43.6554 310.734 43.0176 310.242 42.5385C309.171 41.3834 307.947 40.3813 306.603 39.5606C305.519 38.0654 305.494 36.2338 304.248 34.8881C303.002 33.5424 300.847 33.991 299.264 35.2121C299.264 35.2121 299.8 39.7849 301.059 41.6539C301.819 42.7877 302.404 44.3452 303.7 44.7813C303.75 44.719 307.862 47.1861 309.083 47.8465Z" fill="#FFC3BD"/>
<path d="M304.946 45.2797L300.485 49.0177L305.27 51.6842L310.565 46.4385C310.565 46.4385 309.419 42.9248 304.946 45.2797Z" fill="#FFC3BD"/>
<path d="M325.318 47.9336C324.729 47.4943 324.202 46.9789 323.748 46.401C323.331 45.8366 323.131 45.1412 323.183 44.4414C323.236 43.7416 323.538 43.084 324.035 42.5883C325.075 41.4068 326.274 40.3752 327.598 39.5231C328.632 38.003 328.62 36.1714 329.841 34.7883C331.062 33.4052 333.218 33.8164 334.825 35.0001C334.825 35.0001 334.401 39.5854 333.193 41.4793C332.458 42.6381 331.947 44.2081 330.626 44.6691C330.576 44.6691 326.527 47.2359 325.318 47.9336Z" fill="#FFC3BD"/>
<path d="M326.452 102.945L336.532 113.585C340.009 109.337 351.671 90.8459 353.391 74.0622C353.951 68.5674 351.297 67.4335 351.297 67.4335L331.224 46.5879C326.564 45.2173 326.826 49.5285 326.826 49.5285C326.826 49.5285 342.463 73.4143 341.952 74.7725C341.653 75.545 326.452 102.945 326.452 102.945Z" fill="#407BFF"/>
<path opacity="0.1" d="M326.452 102.945L336.532 113.585C340.009 109.337 351.671 90.8459 353.391 74.0622C353.951 68.5674 351.297 67.4335 351.297 67.4335L331.224 46.5879C326.564 45.2173 326.826 49.5285 326.826 49.5285C326.826 49.5285 342.463 73.4143 341.952 74.7725C341.653 75.545 326.452 102.945 326.452 102.945Z" fill="black"/>
<path opacity="0.1" d="M326.452 102.945L336.532 113.585C340.009 109.337 351.671 90.8459 353.391 74.0622C353.951 68.5674 351.297 67.4335 351.297 67.4335L331.224 46.5879C326.564 45.2173 326.826 49.5285 326.826 49.5285C326.826 49.5285 342.463 73.4143 341.952 74.7725C341.653 75.545 326.452 102.945 326.452 102.945Z" fill="white"/>
<path d="M303.6 101.574L303.376 102.596C302.504 106.62 297.146 112.501 293.209 111.393C290.056 106.894 278.817 88.4786 278.331 71.6078C278.17 66.0755 280.911 65.1535 280.911 65.1535L303.339 45.8903C308.073 45.2798 308.074 49.3293 308.074 49.3293C308.074 49.3293 289.383 71.7573 289.745 73.1528C289.957 73.9503 303.6 101.574 303.6 101.574Z" fill="#407BFF"/>
<g opacity="0.2">
<path d="M303.6 101.574L303.376 102.596C302.504 106.62 297.146 112.501 293.209 111.393C290.056 106.894 278.817 88.4786 278.331 71.6078C278.17 66.0755 280.911 65.1535 280.911 65.1535L303.339 45.8903C308.073 45.2798 308.074 49.3293 308.074 49.3293C308.074 49.3293 289.383 71.7573 289.745 73.1528C289.957 73.9503 303.6 101.574 303.6 101.574Z" fill="white"/>
</g>
<path d="M289.869 106.072C292.224 110.122 294.754 115.13 297.183 119.591C297.421 120.022 297.759 120.39 298.169 120.662C298.579 120.934 299.049 121.103 299.539 121.155C300.028 121.206 300.523 121.138 300.981 120.957C301.438 120.776 301.846 120.487 302.167 120.114C306.391 115.28 308.559 108.028 306.665 102.147C304.173 101.051 301.42 99.9541 298.978 98.8577C295.451 100.59 291.9 102.72 289.869 106.072Z" fill="#407BFF"/>
<path opacity="0.2" d="M289.869 106.072C292.224 110.122 294.754 115.13 297.183 119.591C297.421 120.022 297.759 120.39 298.169 120.662C298.579 120.934 299.049 121.103 299.539 121.155C300.028 121.206 300.523 121.138 300.981 120.957C301.438 120.776 301.846 120.487 302.167 120.114C306.391 115.28 308.559 108.028 306.665 102.147C304.173 101.051 301.42 99.9541 298.978 98.8577C295.451 100.59 291.9 102.72 289.869 106.072Z" fill="white"/>
<path d="M339.086 126.195L337.84 130.332C337.031 134.618 335.934 138.68 335.461 142.505C335.283 150.305 335.7 158.106 336.707 165.843C336.707 165.843 337.703 183.685 337.666 184.894L290.318 184.695C291.975 163.014 302.878 144.237 302.878 141.222C302.878 137.397 302.628 139.278 299.364 128.762C299.364 128.762 299.364 128.699 299.364 128.637C299.364 128.575 299.302 128.413 299.252 128.301C299.216 128.144 299.17 127.99 299.115 127.84C299.115 127.74 299.115 127.64 299.028 127.528L298.666 126.282C297.831 123.441 296.411 118.333 295.028 112.153C294.131 108.091 296.274 102.907 300.323 101.998L301.009 101.886C303.127 101.611 305.469 101.35 307.862 101.238C313.209 100.858 318.576 100.858 323.923 101.238C326.542 101.416 329.15 101.736 331.735 102.197C332.557 102.322 333.691 103.443 334.875 104.938C337.119 107.942 338.662 111.411 339.391 115.089C340.12 118.767 340.016 122.562 339.086 126.195Z" fill="#407BFF"/>
<g opacity="0.2">
<path d="M339.086 126.195L337.84 130.332C337.031 134.618 335.934 138.68 335.461 142.505C335.283 150.305 335.7 158.106 336.707 165.843C336.707 165.843 337.703 183.685 337.666 184.894L290.318 184.695C291.975 163.014 302.878 144.237 302.878 141.222C302.878 137.397 302.628 139.278 299.364 128.762C299.364 128.762 299.364 128.699 299.364 128.637C299.364 128.575 299.302 128.413 299.252 128.301C299.216 128.144 299.17 127.99 299.115 127.84C299.115 127.74 299.115 127.64 299.028 127.528L298.666 126.282C297.831 123.441 296.411 118.333 295.028 112.153C294.131 108.091 296.274 102.907 300.323 101.998L301.009 101.886C303.127 101.611 305.469 101.35 307.862 101.238C313.209 100.858 318.576 100.858 323.923 101.238C326.542 101.416 329.15 101.736 331.735 102.197C332.557 102.322 333.691 103.443 334.875 104.938C337.119 107.942 338.662 111.411 339.391 115.089C340.12 118.767 340.016 122.562 339.086 126.195Z" fill="white"/>
</g>
<path d="M317.356 96.5775C317.58 96.5775 304.46 96.1041 302.94 98.0727C302.391 98.7354 302.087 99.5671 302.08 100.428C302.082 100.855 302.214 101.271 302.459 101.62C302.704 101.97 303.05 102.237 303.451 102.384C301.744 103.406 299.426 104.465 299.713 106.433C299.872 107.136 300.243 107.773 300.775 108.259C301.308 108.745 301.976 109.055 302.691 109.15C304.127 109.299 305.578 109.146 306.952 108.701C306.762 109.316 306.771 109.975 306.979 110.584C307.188 111.193 307.584 111.721 308.111 112.09C309.138 112.676 310.305 112.973 311.488 112.95C313.672 113.06 315.862 112.964 318.029 112.663C318.702 110.869 317.842 108.701 316.895 107.031C314.665 103.082 320.035 100.228 317.356 96.5775Z" fill="#407BFF"/>
<path d="M317.356 96.5775C317.58 96.5775 304.46 96.1041 302.94 98.0727C302.391 98.7354 302.087 99.5671 302.08 100.428C302.082 100.855 302.214 101.271 302.459 101.62C302.704 101.97 303.05 102.237 303.451 102.384C301.744 103.406 299.426 104.465 299.713 106.433C299.872 107.136 300.243 107.773 300.775 108.259C301.308 108.745 301.976 109.055 302.691 109.15C304.127 109.299 305.578 109.146 306.952 108.701C306.762 109.316 306.771 109.975 306.979 110.584C307.188 111.193 307.584 111.721 308.111 112.09C309.138 112.676 310.305 112.973 311.488 112.95C313.672 113.06 315.862 112.964 318.029 112.663C318.702 110.869 320.521 108.851 319.524 107.169C317.294 103.219 320.035 100.228 317.356 96.5775Z" fill="white"/>
<path d="M318.827 96.6398C318.602 96.6398 331.137 96.104 332.657 98.0727C333.216 98.7304 333.525 99.5644 333.529 100.428C333.522 100.853 333.388 101.267 333.144 101.616C332.9 101.965 332.556 102.232 332.159 102.384C333.866 103.406 336.171 104.465 335.897 106.433C335.735 107.137 335.362 107.775 334.827 108.26C334.293 108.746 333.622 109.056 332.906 109.15C331.47 109.297 330.019 109.145 328.645 108.701C328.841 109.314 328.835 109.974 328.629 110.584C328.423 111.194 328.026 111.722 327.499 112.09C326.467 112.678 325.296 112.975 324.11 112.95C321.929 113.06 319.743 112.964 317.581 112.663C316.908 110.869 317.767 108.701 318.702 107.031C320.932 103.082 316.148 100.291 318.827 96.6398Z" fill="white"/>
<path d="M316.546 111.53L321.593 118.208L324.708 111.53H316.546Z" fill="white"/>
<path d="M301.532 77.3145C300.263 78.1366 299.121 79.1399 298.143 80.2924C297.655 80.8731 297.298 81.552 297.096 82.283C296.894 83.014 296.851 83.78 296.972 84.5288C297.117 85.2719 297.518 85.9405 298.106 86.4185C298.693 86.8965 299.429 87.1537 300.186 87.1454C299.09 88.6157 297.096 90.6217 296.722 92.416C296.485 93.3029 296.534 94.2423 296.863 95.0996C297.192 95.9569 297.784 96.688 298.554 97.1881C303.688 96.6648 308.858 96.3658 313.979 95.8425C314.054 93.2009 314.391 90.8585 314.453 88.2419C311.139 83.8559 306.13 80.4295 301.532 77.3145Z" fill="#263238"/>
<path d="M329.642 77.3145C330.908 78.14 332.049 79.1429 333.031 80.2924C333.517 80.8743 333.872 81.5534 334.074 82.284C334.276 83.0146 334.32 83.78 334.202 84.5288C334.057 85.2719 333.655 85.9405 333.068 86.4185C332.481 86.8965 331.745 87.1537 330.987 87.1454C332.084 88.6157 334.078 90.6217 334.451 92.416C334.69 93.3042 334.64 94.2452 334.308 95.103C333.977 95.9608 333.381 96.6911 332.607 97.1881C327.486 96.6648 322.315 96.3658 317.194 95.8425C317.119 93.2009 316.783 90.8585 316.708 88.2419C320.072 83.8559 325.081 80.4295 329.642 77.3145Z" fill="#263238"/>
<path d="M312.746 83.6316C313.381 88.6156 313.78 97.6242 310.142 100.677C312.858 104.415 316.372 106.583 320.309 110.72C324.595 104.216 325.38 101.649 325.38 101.649C319.998 99.9916 320.396 95.9545 321.642 92.2041L312.746 83.6316Z" fill="#FFC3BD"/>
<path opacity="0.2" d="M313.718 84.5662C313.594 87.4858 314.104 90.3976 315.213 93.1013C315.986 94.9703 318.378 95.9297 320.845 96.2786C320.882 94.891 321.13 93.5172 321.58 92.2041L313.718 84.5662Z" fill="black"/>
<path d="M305.345 77.0028C307.214 85.0146 307.774 88.4287 312.584 91.9548C319.761 97.1631 329.181 93.2008 329.779 84.7654C330.302 77.2894 327.162 65.4026 318.752 63.5086C316.892 63.083 314.954 63.139 313.121 63.6714C311.289 64.2038 309.623 65.1949 308.28 66.551C306.938 67.9071 305.964 69.5833 305.45 71.421C304.936 73.2587 304.9 75.197 305.345 77.0527V77.0028Z" fill="#FFC3BD"/>
<path d="M311.575 61.3532C317.144 56.88 322.789 59.2101 325.742 61.0043C327.219 61.9056 328.49 63.1083 329.471 64.5339C330.452 65.9595 331.122 67.5759 331.436 69.2777C331.673 70.611 331.112 73.6263 328.533 74.2617C327.927 72.6894 327.026 71.2473 325.879 70.0129C324.085 68.3806 320.621 66.2749 319.175 66.6113C317.63 69.5892 315.163 75.1215 310.815 76.1557C307.538 76.9282 310.889 93.5997 304.223 86.6719C296.249 75.7569 300.411 70.4739 302.778 66.1254C305.145 61.7768 311.575 61.3532 311.575 61.3532Z" fill="#263238"/>
<path d="M324.608 85.1267C324.643 85.1047 324.669 85.0725 324.685 85.0346C324.701 84.9967 324.704 84.9549 324.695 84.9149C324.683 84.8664 324.654 84.8242 324.612 84.7965C324.571 84.7688 324.52 84.7577 324.471 84.7654C323.663 84.9483 322.823 84.9375 322.019 84.734C321.216 84.5304 320.472 84.1399 319.848 83.5942C319.809 83.5583 319.758 83.5383 319.705 83.5383C319.652 83.5383 319.601 83.5583 319.562 83.5942C319.527 83.6312 319.507 83.6802 319.507 83.7312C319.507 83.7822 319.527 83.8312 319.562 83.8683C320.23 84.4626 321.033 84.8864 321.901 85.1033C322.769 85.3203 323.676 85.3241 324.546 85.1143L324.608 85.1267Z" fill="#263238"/>
<path d="M325.542 81.4762C325.959 81.4751 326.37 81.3844 326.749 81.2103C327.127 81.0361 327.464 80.7826 327.735 80.4669C326.405 79.4335 325.219 78.2267 324.209 76.8784L325.542 81.4762Z" fill="#ED893E"/>
<path d="M304.024 83.7438C304.252 84.5018 304.629 85.2069 305.131 85.8186C305.634 86.4302 306.253 86.9362 306.952 87.3074C308.821 88.2544 310.179 86.6969 310.017 84.7157C309.868 82.9339 308.771 80.28 306.678 80.1304C306.323 80.1137 305.969 80.1673 305.635 80.288C305.302 80.4088 304.995 80.5944 304.733 80.8341C304.471 81.0739 304.26 81.363 304.11 81.6849C303.961 82.0067 303.876 82.355 303.862 82.7097C303.854 83.0613 303.908 83.4116 304.024 83.7438Z" fill="#FFC3BD"/>
<path d="M299.464 126.369C299.588 126.83 299.713 127.229 299.813 127.615C299.688 127.242 299.576 126.843 299.451 126.369H299.464Z" fill="#407BFF"/>
<path d="M340.706 328.271L334.439 328.01L332.084 318.017L330.389 308.747L339.61 307.077L340.195 318.291L340.706 328.271Z" fill="#FFC3BD"/>
<path d="M350.126 340.258C349.112 339.499 347.968 338.933 346.749 338.588C346.749 338.588 343.011 335.187 340.918 324.558L336.183 323.524C335.38 323.366 334.548 323.457 333.798 323.784C333.047 324.111 332.415 324.66 331.984 325.356C331.857 325.55 331.765 325.765 331.71 325.991C331.52 327.129 331.4 328.278 331.349 329.43C331.245 333.347 331.378 337.267 331.747 341.167H332.595V333.779C332.595 331.287 334.663 334.14 335.311 336.806C335.959 339.473 337.242 342.301 342.787 342.214C349.129 342.102 351.783 341.753 350.126 340.258Z" fill="#2E353A"/>
<path d="M339.909 320.77C339.909 320.77 341.092 325.617 342.899 330.975C343.676 333.734 344.975 336.318 346.724 338.588C346.724 338.588 342.65 339.473 340.756 336.781C338.862 334.09 336.084 324.745 331.934 325.405C332.231 324.701 332.608 324.032 333.056 323.412C333.778 322.415 339.909 320.77 339.909 320.77Z" fill="#FFC3BD"/>
<path d="M341.466 247.73L340.071 315.238L331.772 316.098C327.782 300.246 325.168 284.08 323.96 267.778C323.624 262.196 324.957 255.704 324.346 251.281C323.798 247.418 322.265 245.051 320.11 236.254C317.506 225.676 314.789 211.484 315.487 200.432C315.487 200.432 304.149 188.595 307.039 172.459L317.144 169.78L331.997 165.818H336.669L336.769 167.787L341.466 247.73Z" fill="#263238"/>
<g opacity="0.1">
<path d="M341.466 247.73L340.071 315.238L331.772 316.098C327.782 300.246 325.168 284.08 323.96 267.778C323.624 262.196 324.957 255.704 324.346 251.281C323.798 247.418 322.265 245.051 320.11 236.254C317.506 225.676 314.789 211.484 315.487 200.432C315.487 200.432 304.149 188.595 307.039 172.459L317.144 169.78L331.997 165.818H336.171L336.27 167.787L341.466 247.73Z" fill="black"/>
</g>
<path d="M323.3 168.871L304.223 249.935L283.614 314.229L275.366 312.746C276.081 296.395 278.211 280.136 281.733 264.152C282.979 258.695 286.131 252.851 286.804 248.44C287.39 244.577 286.605 241.824 287.041 232.828C287.564 221.938 289.01 207.559 292.835 197.18C292.835 197.18 285.359 182.589 292.723 167.961L323.3 168.871Z" fill="#263238"/>
<path d="M336.906 170.116L322.739 171.225L292.723 167.973L293.769 165.656L332.009 165.818L336.669 165.843H336.719L336.781 167.811L336.906 170.116Z" fill="#263238"/>
<path d="M322.465 60.5431H311.5C312.587 59.8241 313.41 58.7697 313.842 57.5403C314.465 55.7086 314.939 55.5342 315.226 53.4534C315.458 51.8439 315.579 50.2202 315.587 48.594C315.589 46.3917 315.292 44.1993 314.702 42.0774H319.225C318.646 44.1974 318.344 46.3838 318.328 48.5815C318.377 51.6484 318.972 54.6819 320.085 57.5403C320.532 58.7724 321.367 59.8261 322.465 60.5431Z" fill="#407BFF"/>
<path opacity="0.2" d="M319.263 42.0774C319.076 43.149 318.864 44.1208 318.639 45.0429C317.965 48.0111 316.817 50.8511 315.238 53.4534C315.47 51.8439 315.591 50.2202 315.599 48.594C315.602 46.3917 315.304 44.1993 314.715 42.0774H319.263Z" fill="black"/>
<path d="M309.319 29.3807L307.887 31.15L307.164 30.3027C306.166 29.3066 304.834 28.7161 303.426 28.6455H303.102C302.798 28.6907 302.507 28.7954 302.244 28.9537C301.981 29.1119 301.751 29.3205 301.569 29.5676C301.283 29.9386 301.071 30.3618 300.946 30.8136C300.91 30.9406 300.881 31.0696 300.859 31.1998C300.711 32.1906 300.819 33.2026 301.171 34.1404C301.382 34.9523 301.835 35.6809 302.468 36.2304C303.102 36.7798 303.888 37.1242 304.722 37.218H305.743V39.6353H304.722C302.442 39.6353 300.323 37.8659 299.302 35.1247C299.302 34.9378 299.177 34.7509 299.127 34.5765C298.746 33.4634 298.634 32.2762 298.798 31.1114C298.963 29.9466 299.4 28.8371 300.074 27.873C300.453 27.3503 300.946 26.9212 301.516 26.6188C302.086 26.3164 302.718 26.1487 303.364 26.1286C304.252 26.1213 305.131 26.304 305.943 26.6644C306.928 27.0901 307.817 27.7086 308.559 28.4836L309.319 29.3807Z" fill="#407BFF"/>
<path opacity="0.2" d="M305.968 26.7142C305.923 26.8406 305.85 26.9555 305.756 27.0507C305.451 27.3252 305.096 27.5369 304.709 27.6737C304.145 27.9284 303.614 28.2505 303.127 28.6331C302.823 28.6783 302.532 28.783 302.269 28.9412C302.006 29.0994 301.776 29.3081 301.594 29.5551C301.22 30.0521 300.976 30.6345 300.884 31.2497C300.539 31.8229 300.259 32.4331 300.049 33.0688C299.917 33.6677 299.604 34.2115 299.152 34.6263C298.539 32.7604 298.65 30.7323 299.464 28.9446C299.637 28.5814 299.85 28.2387 300.099 27.9229C300.478 27.4001 300.971 26.9711 301.541 26.6687C302.111 26.3663 302.743 26.1986 303.389 26.1785H303.737C304.507 26.2206 305.263 26.4021 305.968 26.7142Z" fill="white"/>
<path opacity="0.3" d="M303.737 26.166C303.743 26.1906 303.743 26.2162 303.737 26.2408C303.653 26.5888 303.499 26.9161 303.285 27.203C303.071 27.4899 302.801 27.7306 302.491 27.9104C301.74 28.4119 300.891 28.7475 299.999 28.8948C299.842 28.9071 299.683 28.9071 299.526 28.8948C299.699 28.5316 299.912 28.1889 300.161 27.8731C300.54 27.3503 301.033 26.9213 301.603 26.6189C302.174 26.3165 302.806 26.1488 303.451 26.1287L303.737 26.166Z" fill="white"/>
<path opacity="0.2" d="M304.946 37.268C304.776 37.5047 304.528 37.6742 304.246 37.7471C303.963 37.82 303.664 37.7915 303.401 37.6667C302.741 37.4214 302.149 37.0221 301.674 36.502C301.2 35.9819 300.856 35.3559 300.672 34.6763C300.347 33.4073 300.452 32.0663 300.971 30.8635C300.935 30.9905 300.906 31.1195 300.884 31.2498C300.736 32.2405 300.844 33.2526 301.196 34.1904C301.407 35.0022 301.859 35.7309 302.493 36.2803C303.127 36.8298 303.913 37.1741 304.747 37.268H304.946Z" fill="black"/>
<path d="M324.944 29.3807L326.377 31.15L327.1 30.3027C328.098 29.3066 329.43 28.7161 330.838 28.6455H331.162C331.465 28.6907 331.757 28.7954 332.02 28.9537C332.283 29.1119 332.512 29.3205 332.694 29.5676C332.981 29.9386 333.193 30.3618 333.317 30.8136C333.36 30.939 333.389 31.0684 333.405 31.1998C333.552 32.1906 333.445 33.2026 333.093 34.1404C332.882 34.9523 332.429 35.6809 331.795 36.2304C331.161 36.7798 330.376 37.1242 329.542 37.218H328.52V39.6353H329.542C331.822 39.6353 333.94 37.8659 334.962 35.1247L335.149 34.5765C335.528 33.4625 335.639 32.2747 335.472 31.1099C335.305 29.9451 334.866 28.836 334.19 27.873C333.811 27.3503 333.318 26.9212 332.748 26.6188C332.177 26.3164 331.545 26.1487 330.9 26.1286C330.012 26.1213 329.133 26.304 328.321 26.6644C327.336 27.0901 326.446 27.7086 325.704 28.4836L324.944 29.3807Z" fill="#407BFF"/>
<path opacity="0.2" d="M328.296 26.7142C328.341 26.8406 328.413 26.9555 328.508 27.0507C328.812 27.3252 329.168 27.5369 329.555 27.6737C330.119 27.9284 330.65 28.2505 331.137 28.6331C331.441 28.6783 331.732 28.783 331.995 28.9412C332.258 29.0994 332.487 29.3081 332.67 29.5551C333.044 30.0521 333.288 30.6345 333.38 31.2497C333.725 31.8229 334.005 32.4331 334.215 33.0688C334.351 33.669 334.669 34.2127 335.124 34.6263C335.727 32.7581 335.612 30.7322 334.8 28.9446C334.627 28.5814 334.414 28.2387 334.165 27.9229C333.786 27.4001 333.293 26.9711 332.723 26.6687C332.152 26.3663 331.52 26.1986 330.875 26.1785H330.526C329.757 26.2206 329.001 26.4021 328.296 26.7142Z" fill="white"/>
<path opacity="0.3" d="M330.526 26.166C330.526 26.166 330.526 26.166 330.526 26.2408C330.611 26.5888 330.765 26.9161 330.979 27.203C331.193 27.4899 331.463 27.7306 331.772 27.9104C332.524 28.4119 333.373 28.7475 334.264 28.8948C334.422 28.9071 334.58 28.9071 334.738 28.8948C334.565 28.5316 334.352 28.1889 334.102 27.8731C333.724 27.3503 333.23 26.9213 332.66 26.6189C332.09 26.3165 331.458 26.1488 330.813 26.1287L330.526 26.166Z" fill="white"/>
<path opacity="0.2" d="M329.318 37.268C329.488 37.5047 329.736 37.6742 330.018 37.7471C330.3 37.82 330.599 37.7915 330.863 37.6667C331.523 37.4214 332.115 37.0221 332.589 36.502C333.064 35.9819 333.408 35.3559 333.592 34.6763C333.922 33.4078 333.817 32.0649 333.292 30.8635C333.335 30.989 333.364 31.1184 333.38 31.2498C333.527 32.2405 333.42 33.2526 333.068 34.1904C332.857 35.0022 332.404 35.7309 331.77 36.2803C331.136 36.8298 330.351 37.1741 329.517 37.268H329.318Z" fill="black"/>
<path d="M329.791 36.8816C329.766 37.2212 329.716 37.5585 329.642 37.8909C329.308 39.7957 328.25 41.4972 326.689 42.6382C322.851 45.2174 316.721 45.9525 311.737 44.4947L311.301 44.3576C310.052 43.9677 308.871 43.3877 307.799 42.6382C307.138 42.153 306.568 41.5539 306.117 40.8688C305.311 39.6829 304.822 38.3102 304.697 36.8816C304.569 35.5475 304.744 34.2017 305.208 32.9443L305.37 32.5331C305.637 31.8947 305.975 31.2886 306.379 30.7264C306.877 30.0286 307.463 29.4804 307.924 28.7203C308.413 28.0775 308.664 27.2848 308.634 26.4775L317.232 27.2501L325.829 26.4775C325.799 27.2848 326.05 28.0775 326.539 28.7203C327 29.4181 327.586 29.9663 328.084 30.7264C328.607 31.4363 329.026 32.2165 329.33 33.044C329.755 34.2758 329.912 35.5842 329.791 36.8816Z" fill="#407BFF"/>
<path opacity="0.1" d="M318.976 33.6421C313.992 35.7603 308.572 34.2401 306.317 33.3804C305.957 33.2477 305.607 33.0894 305.27 32.9069L305.345 32.7076C305.626 31.9922 305.994 31.3142 306.441 30.689C306.94 29.9913 307.525 29.443 307.986 28.683C308.476 28.0402 308.727 27.2475 308.697 26.4402L317.294 27.2127L323.898 26.7641C324.035 27.6488 324.184 31.4117 318.976 33.6421Z" fill="white"/>
<path opacity="0.1" d="M329.791 36.8817C329.722 38.0088 329.409 39.1074 328.873 40.1014C328.338 41.0954 327.592 41.961 326.689 42.6382C321.63 46.0398 312.796 46.2267 307.824 42.6382C306.934 41.9487 306.197 41.0801 305.663 40.0887C305.129 39.0972 304.808 38.0047 304.722 36.8817C304.697 36.5499 304.697 36.2167 304.722 35.8849C308.049 39.7724 314.49 41.0309 319.674 38.3769C322.428 37.0015 324.524 34.5912 325.505 31.6734C326.081 29.9781 326.158 28.1534 325.729 26.4153H325.954C325.924 27.2226 326.175 28.0153 326.664 28.6581C327.125 29.3558 327.71 29.9041 328.209 30.6641C329.473 32.4761 330.035 34.6858 329.791 36.8817Z" fill="black"/>
<path opacity="0.1" d="M329.642 37.891C329.308 39.7958 328.25 41.4973 326.689 42.6382C322.739 45.2922 316.372 45.99 311.326 44.3577C310.69 44.1085 310.08 43.8219 309.444 43.5104C308.172 42.8683 307.048 41.9687 306.142 40.8689C305.336 39.6829 304.847 38.3103 304.722 36.8817C304.6 35.5395 304.774 34.1869 305.233 32.9194C306.715 33.7172 308.3 34.3083 309.942 34.6763C311.165 35.0163 312.416 35.2456 313.68 35.3616C317.107 35.6731 323.823 35.7728 329.268 33.0191C329.73 34.5995 329.857 36.2587 329.642 37.891Z" fill="black"/>
<path opacity="0.2" d="M329.791 36.8818C329.722 38.0088 329.409 39.1075 328.873 40.1015C328.338 41.0955 327.592 41.9611 326.689 42.6383C321.63 46.0399 312.796 46.2268 307.824 42.6383C306.934 41.9487 306.197 41.0802 305.663 40.0887C305.129 39.0972 304.808 38.0048 304.722 36.8818C304.722 36.5453 306.354 40.221 306.341 39.8472C310.017 44.2955 317.057 44.5322 322.539 42.0402C329.143 39.0249 328.009 32.0722 326.601 28.7205C327.062 29.4058 327.648 29.9665 328.134 30.7016C329.416 32.4934 330.004 34.6891 329.791 36.8818Z" fill="black"/>
<path opacity="0.3" d="M326.141 27.9478C315.126 31.0753 308.086 26.7018 308.024 26.1287L317.257 27.2251L325.854 26.4526C325.814 26.9677 325.913 27.484 326.141 27.9478Z" fill="black"/>
<path d="M326.813 25.2068C326.833 25.725 326.708 26.2384 326.452 26.6895C321.854 28.3592 312.459 28.2595 308.061 26.6895C307.805 26.2384 307.68 25.725 307.7 25.2068C309.195 26.2036 314.042 26.4528 317.256 26.5275C320.471 26.6023 325.318 26.1662 326.813 25.2068Z" fill="#407BFF"/>
<path opacity="0.1" d="M323.96 27.4122H323.873C319.359 28.143 314.754 28.1008 310.254 27.2876C309.501 27.1428 308.76 26.9429 308.036 26.6895C307.771 26.2418 307.641 25.7268 307.662 25.2068C309.442 25.9523 311.352 26.3377 313.282 26.3406C314.652 26.4528 316.048 26.5026 317.219 26.5275C319.339 26.4954 321.457 26.3499 323.561 26.0914H323.636C323.786 26.5026 323.873 27.4122 323.96 27.4122Z" fill="#407BFF"/>
<path d="M326.813 25.2067C326.888 25.9418 322.614 26.5524 317.257 26.5524C311.899 26.5524 307.625 25.9418 307.7 25.2067C307.774 24.4716 312.048 23.9607 317.257 23.9607C322.465 23.9607 326.739 24.484 326.813 25.2067Z" fill="#407BFF"/>
<path opacity="0.2" d="M325.866 25.0695C325.866 25.6178 322.128 26.0539 317.381 26.0539C312.634 26.0539 308.834 25.6178 308.871 25.0695C308.908 24.5213 312.709 24.0977 317.369 24.0977C322.029 24.0977 325.842 24.5338 325.866 25.0695Z" fill="black"/>
<path opacity="0.3" d="M312.497 30.5644C312.389 30.8451 312.197 31.0855 311.947 31.2528C311.697 31.4201 311.402 31.506 311.101 31.4989C310.873 31.5186 310.644 31.4887 310.429 31.4112C310.214 31.3338 310.018 31.2107 309.855 31.0503C309.718 30.9133 309.294 30.228 309.706 29.8043C310.036 29.6176 310.41 29.5195 310.79 29.5195C311.169 29.5195 311.543 29.6176 311.874 29.8043C312.509 30.1532 312.547 30.3526 312.497 30.5644Z" fill="white"/>
<path opacity="0.3" d="M311.213 29.5927C311.911 29.6924 311.749 30.602 311.014 30.6144C310.923 30.6254 310.831 30.6254 310.74 30.6144C310.017 30.5023 310.204 29.5927 310.939 29.5802C311.031 29.572 311.123 29.5762 311.213 29.5927Z" fill="white"/>
<path opacity="0.2" d="M313.219 26.4278C312.731 26.7744 312.175 27.0123 311.587 27.1256C311.178 27.2208 310.761 27.275 310.341 27.2876C309.588 27.1428 308.847 26.9429 308.123 26.6895C307.933 26.3597 307.81 25.9955 307.762 25.6179C307.986 25.6953 308.222 25.7332 308.46 25.7301H308.809C308.809 25.7301 308.809 25.8173 308.983 25.8547L309.307 25.9294L310.403 26.1163L311.326 26.2285L312.123 26.3157L313.219 26.4278Z" fill="white"/>
<path opacity="0.2" d="M318.577 26.5523C317.801 27.3261 316.757 27.7722 315.662 27.7983C315.107 27.8713 314.546 27.8713 313.992 27.7983L313.506 27.7235C312.843 27.6045 312.197 27.3992 311.587 27.113C311.073 26.9346 310.634 26.5877 310.341 26.1287C311.151 26.2408 312.123 26.3405 313.207 26.4152C314.291 26.49 315.811 26.5398 317.244 26.5398H318.565L318.577 26.5523Z" fill="white"/>
<path opacity="0.3" d="M312.073 26.3406C312.053 26.424 312.005 26.498 311.937 26.5502C311.869 26.6024 311.785 26.6296 311.699 26.6272C311.699 26.6272 311.176 26.6272 311.276 26.2534L312.073 26.3406Z" fill="white"/>
<path d="M329.879 61.7146H304.385C306.8 60.3662 309.519 59.6584 312.285 59.6587H321.979C324.744 59.6584 327.464 60.3662 329.879 61.7146Z" fill="#407BFF"/>
<path opacity="0.3" d="M329.879 61.7146H304.385C306.8 60.3662 309.519 59.6584 312.285 59.6587H321.979C324.744 59.6584 327.464 60.3662 329.879 61.7146Z" fill="white"/>
<path d="M336.27 162.516C337.404 179.536 338.862 201.03 340.008 218.062C322.751 221.364 305.064 221.76 287.676 219.234C287.352 212.58 289.658 205.266 287.988 198.812C285.06 187.436 287.826 174.876 294.218 164.983C304.186 164.198 309.245 163.562 319.213 162.777C323.337 162.454 336.27 162.516 336.27 162.516Z" fill="#407BFF"/>
<path opacity="0.2" d="M336.27 162.516C337.404 179.536 338.862 201.03 340.008 218.062C322.751 221.364 305.064 221.76 287.676 219.234C287.352 212.58 289.658 205.266 287.988 198.812C285.06 187.436 287.826 174.876 294.218 164.983C304.186 164.198 309.245 163.562 319.213 162.777C323.337 162.454 336.27 162.516 336.27 162.516Z" fill="white"/>
<path d="M315.151 75.6073C315.086 75.626 315.017 75.626 314.951 75.6073C314.873 75.5695 314.813 75.503 314.783 75.4218C314.753 75.3405 314.755 75.2508 314.789 75.1712C315.094 74.529 315.541 73.9643 316.095 73.5197C316.65 73.075 317.298 72.7621 317.992 72.6045C318.033 72.589 318.076 72.5831 318.12 72.5872C318.164 72.5913 318.206 72.6053 318.243 72.6282C318.28 72.651 318.312 72.6821 318.335 72.719C318.358 72.756 318.373 72.7977 318.378 72.8412C318.394 72.9268 318.377 73.0151 318.331 73.0889C318.284 73.1626 318.212 73.2165 318.129 73.2399C317.533 73.3716 316.975 73.6392 316.5 74.0217C316.024 74.4043 315.644 74.8915 315.388 75.4454C315.361 75.4871 315.327 75.523 315.286 75.5508C315.245 75.5787 315.199 75.5979 315.151 75.6073Z" fill="#263238"/>
<path d="M327.013 70.8976C326.964 70.9097 326.912 70.9097 326.863 70.8976C326.355 70.7325 325.817 70.6848 325.288 70.7582C324.759 70.8316 324.254 71.0241 323.81 71.3212C323.737 71.3696 323.648 71.3875 323.562 71.3712C323.476 71.3549 323.4 71.3057 323.349 71.234C323.302 71.1629 323.284 71.0758 323.3 70.9917C323.317 70.9077 323.366 70.8335 323.437 70.7854C323.962 70.4294 324.562 70.1983 325.19 70.1098C325.819 70.0212 326.459 70.0776 327.062 70.2746C327.144 70.303 327.211 70.3615 327.25 70.438C327.29 70.5145 327.298 70.6031 327.274 70.6858C327.251 70.7396 327.215 70.7871 327.17 70.824C327.124 70.8609 327.07 70.8862 327.013 70.8976Z" fill="#263238"/>
<path d="M320.222 76.7661C320.421 77.414 320.334 78.0121 319.898 78.2115C319.462 78.4108 318.939 77.9997 318.652 77.3517C318.365 76.7038 318.54 76.1057 318.976 75.9064C319.412 75.707 320.01 76.1307 320.222 76.7661Z" fill="#263238"/>
<path d="M318.876 76.0061L320.048 74.9346C320.048 74.9346 319.811 76.3799 318.876 76.0061Z" fill="#263238"/>
<path d="M327.486 75.0094C327.673 75.6573 327.586 76.2554 327.162 76.4548C326.738 76.6541 326.19 76.2305 325.916 75.595C325.642 74.9596 325.829 74.349 326.253 74.1497C326.676 73.9503 327.224 74.3241 327.486 75.0094Z" fill="#263238"/>
<path d="M326.103 74.2368L327.287 73.1653C327.287 73.1653 327.038 74.5982 326.103 74.2368Z" fill="#263238"/>
<path opacity="0.1" d="M311.064 220.131L314.092 207.26C314.118 207.137 314.186 207.028 314.283 206.949C314.381 206.871 314.502 206.828 314.627 206.828C314.753 206.828 314.874 206.871 314.972 206.949C315.069 207.028 315.137 207.137 315.163 207.26L316.92 219.907L311.064 220.131Z" fill="black"/>
<path d="M226.772 368.019L222.847 384.615L230.336 385.089L234.622 368.517L226.772 368.019Z" fill="#FFB573"/>
<path d="M111.679 389.064L127.777 370.324L136.188 376.192L116.713 394.745L111.679 389.064Z" fill="#FFB573"/>
<path d="M244.091 394.982C237.164 394.309 234.522 393.948 230.61 393.424C227.27 392.976 226.51 393.337 223.856 393.026C221.626 392.752 221.439 390.534 221.838 387.967C222.025 386.721 222.598 383.581 222.822 381.513L231.283 381.799C233.039 384.815 241.113 389.861 245.063 390.833C249.013 391.805 246.858 395.231 244.091 394.982Z" fill="#263238"/>
<path d="M118.146 411.043C114.146 405.249 112.688 402.981 110.533 399.617C108.689 396.739 107.929 396.403 106.433 394.147C105.187 392.241 106.732 390.609 108.925 389.238C109.997 388.54 112.663 386.933 114.345 385.737L119.616 392.49C118.532 395.854 120.052 405.411 121.896 409.099C123.678 412.513 119.741 413.348 118.146 411.043Z" fill="#263238"/>
<path d="M189.865 245.462L210.549 249.985C210.549 249.985 253.312 295.302 256.315 311.662C257.835 319.91 233.986 374.361 233.986 374.361L223.794 374.087C223.794 374.087 230.024 327.474 237.438 316.584L186.078 280.774C186.078 280.774 176.807 253.548 189.865 245.462Z" fill="#407BFF"/>
<path opacity="0.5" d="M189.865 245.462L210.549 249.985C210.549 249.985 253.312 295.302 256.315 311.662C257.835 319.91 233.986 374.361 233.986 374.361L223.794 374.087C223.794 374.087 230.024 327.474 237.438 316.584L186.078 280.774C186.078 280.774 176.807 253.548 189.865 245.462Z" fill="white"/>
<path opacity="0.1" d="M218.96 303.339L186.987 268.762L185.941 279.802L218.96 303.339Z" fill="black"/>
<path d="M200.606 247.019C200.606 247.019 177.667 239.219 176.77 238.646C175.873 238.073 163.376 260.912 161.345 276.138C159.314 291.365 160.784 327.474 160.784 327.474C160.784 327.474 148.274 335.174 139.776 347.036L120.413 377.089L127.727 385.089L173.082 344.893C178.48 340.581 182.208 334.523 183.623 327.76L200.606 247.019Z" fill="#407BFF"/>
<path opacity="0.5" d="M200.606 247.019C200.606 247.019 177.667 239.219 176.77 238.646C175.873 238.073 163.376 260.912 161.345 276.138C159.314 291.365 160.784 327.474 160.784 327.474C160.784 327.474 148.274 335.174 139.776 347.036L120.413 377.089L127.727 385.089L173.082 344.893C178.48 340.581 182.208 334.523 183.623 327.76L200.606 247.019Z" fill="white"/>
<path d="M204.68 198.114C205.852 198.7 206.873 199.198 207.982 199.684C209.091 200.17 210.138 200.619 211.272 201.092C213.465 201.964 215.708 202.774 218.038 203.522C222.813 205.151 227.789 206.119 232.828 206.4C234.26 206.45 235.694 206.375 237.114 206.176C238.718 205.966 240.282 205.513 241.749 204.83C244.531 203.505 246.915 201.473 248.664 198.936C250.196 196.717 251.357 194.264 252.103 191.672C252.466 190.445 252.753 189.197 252.963 187.934C253.082 187.313 253.157 186.685 253.187 186.053C253.187 185.405 253.274 184.807 253.312 184.084L247.804 183.175L247.194 184.545L246.534 185.953C246.073 186.9 245.587 187.797 245.051 188.694C244.115 190.336 242.962 191.845 241.624 193.18C240.584 194.246 239.302 195.045 237.886 195.51C237.249 195.695 236.593 195.808 235.93 195.846C235.099 195.876 234.266 195.851 233.438 195.772C231.484 195.559 229.551 195.188 227.657 194.663C225.663 194.152 223.657 193.504 221.638 192.794C219.62 192.083 217.614 191.286 215.595 190.489L212.593 189.243C211.621 188.819 210.562 188.37 209.727 187.997L204.68 198.114Z" fill="#FFB573"/>
<path d="M191.971 194.526C190.003 186.115 196.955 181.33 208.294 184.558C214.373 186.175 220.294 188.335 225.987 191.012L219.296 209.988C208.244 207.521 193.99 203.173 191.971 194.526Z" fill="#407BFF"/>
<path opacity="0.1" d="M191.971 194.526C190.003 186.115 196.955 181.33 208.294 184.558C214.373 186.175 220.294 188.335 225.987 191.012L219.296 209.988C208.244 207.521 193.99 203.173 191.971 194.526Z" fill="black"/>
<path d="M246.397 181.044L247.119 176.944L254.296 181.031C254.296 181.031 253.362 188.084 249.898 187.56L248.365 186.102C247.702 185.444 247.184 184.653 246.845 183.782C246.506 182.91 246.353 181.978 246.397 181.044Z" fill="#FFB573"/>
<path d="M249.661 173.119L256.788 174.702L254.271 181.056L247.107 176.969L249.661 173.119Z" fill="#FFB573"/>
<path d="M193.504 182.128L183.723 181.181L171.661 182.788C169.827 183.024 168.122 183.859 166.81 185.164C165.499 186.468 164.655 188.169 164.41 190.003C163.388 197.391 164.41 241.425 166.578 254.795L173.78 255.542C185.629 256.427 200.793 254.471 211.87 250.147C211.87 250.147 212.48 201.74 212.393 192.37C212.379 190.531 211.762 188.748 210.637 187.294C209.511 185.84 207.94 184.795 206.163 184.321L193.504 182.128Z" fill="#407BFF"/>
<path d="M176.932 182.813C176.788 184.58 177.313 186.336 178.402 187.735C179.485 189.134 180.741 190.39 182.14 191.473C183.847 192.906 185.878 194.426 188.071 194.04C190.264 193.653 191.211 192.594 191.934 190.14C193.803 192.868 193.94 194.264 195.871 194.364C196.492 194.304 197.093 194.108 197.631 193.792C198.169 193.476 198.632 193.046 198.986 192.532C200.353 191.302 201.181 189.583 201.291 187.747C201.59 184.171 198.563 180.994 195.136 179.885C191.668 178.895 188.088 178.351 184.483 178.265C181.33 177.991 177.405 179.137 176.932 182.813Z" fill="#407BFF"/>
<path opacity="0.6" d="M176.932 182.813C176.788 184.58 177.313 186.336 178.402 187.735C179.485 189.134 180.741 190.39 182.14 191.473C183.847 192.906 185.878 194.426 188.071 194.04C190.264 193.653 191.211 192.594 191.934 190.14C193.803 192.868 193.94 194.264 195.871 194.364C196.492 194.304 197.093 194.108 197.631 193.792C198.169 193.476 198.632 193.046 198.986 192.532C200.353 191.302 201.181 189.583 201.291 187.747C201.59 184.171 198.563 180.994 195.136 179.885C191.668 178.895 188.088 178.351 184.483 178.265C181.33 177.991 177.405 179.137 176.932 182.813Z" fill="white"/>
<path d="M184.67 165.357L189.292 170.229L195.522 176.87C195.007 177.627 194.631 178.471 194.413 179.362C194.044 180.311 194.032 181.361 194.378 182.319C194.724 183.276 195.405 184.076 196.295 184.57C197.229 184.956 197.902 189.704 191.884 189.467C190.171 189.512 188.466 189.204 186.878 188.561C185.289 187.917 183.85 186.953 182.651 185.729C181.48 184.308 181.156 183.523 182.215 181.866C185.305 177.194 185.268 170.59 184.67 165.357Z" fill="#FFB573"/>
<path opacity="0.2" d="M194.052 175.225L190.065 170.403C190.065 170.552 189.978 170.714 189.94 170.889C189.789 171.599 189.693 172.319 189.654 173.044C189.542 175.536 191.996 178.589 194.326 179.848L194.476 179.349C194.703 178.51 195.042 177.705 195.485 176.957L195.597 176.845L194.052 175.225Z" fill="black"/>
<path d="M198.114 163.787C201.665 156.672 200.843 152.672 204.344 148.835C206.213 147.975 209.54 151.401 207.422 157.307C205.303 163.213 198.114 163.787 198.114 163.787Z" fill="#263238"/>
<path d="M184.67 155.999C184.346 164.21 183.81 169.007 187.523 173.443C195.597 181.131 203.596 177.293 206.338 169.294C208.83 162.092 208.83 149.869 201.142 145.994C199.422 145.136 197.514 144.727 195.593 144.805C193.673 144.883 191.804 145.445 190.16 146.44C188.516 147.435 187.15 148.83 186.19 150.495C185.23 152.16 184.707 154.04 184.67 155.962V155.999Z" fill="#FFB573"/>
<path d="M183.785 163.301L187.299 163.986L188.744 158.691L192.37 156.572L193.616 151.937C193.734 151.475 193.755 150.993 193.675 150.523C193.595 150.052 193.417 149.604 193.153 149.207C192.888 148.81 192.543 148.473 192.14 148.217C191.737 147.962 191.285 147.795 190.812 147.726C188.52 147.389 185.754 146.991 184.246 146.804C183.237 146.692 179.748 149.47 179.262 150.617C178.603 152.243 178.41 154.021 178.705 155.751C179 157.48 179.771 159.094 180.932 160.41C181.789 161.462 182.745 162.43 183.785 163.301Z" fill="#263238"/>
<path d="M180.67 161.98C180.919 163.798 181.828 165.461 183.224 166.653C185.043 168.173 187.099 166.341 187.249 164.011C187.361 161.918 186.19 158.94 184.047 158.329C181.904 157.719 180.421 159.687 180.67 161.98Z" fill="#FFB573"/>
<path d="M198.276 160.31C198.189 160.996 198.463 161.556 198.911 161.681C199.36 161.806 199.734 161.282 199.871 160.609C200.008 159.937 199.696 159.363 199.248 159.239C198.799 159.114 198.376 159.638 198.276 160.31Z" fill="#263238"/>
<path d="M201.329 170.789C201.241 171.462 201.516 172.035 201.952 172.147C202.388 172.26 202.786 171.749 202.924 171.076C203.061 170.403 202.749 169.83 202.301 169.705C201.852 169.581 201.428 170.104 201.329 170.789Z" fill="#263238"/>
<path d="M205.029 161.295C204.93 161.98 205.216 162.541 205.652 162.665C206.088 162.79 206.524 162.254 206.624 161.594C206.724 160.933 206.437 160.348 206.001 160.223C205.565 160.098 205.129 160.622 205.029 161.295Z" fill="#263238"/>
<path d="M202.724 161.693C203.541 163.45 204.584 165.092 205.827 166.578C205.443 166.875 204.998 167.085 204.525 167.19C204.051 167.296 203.559 167.295 203.086 167.188L202.724 161.693Z" fill="#FF5652"/>
<path d="M196.12 158.429C196.054 158.413 195.994 158.378 195.946 158.329C195.871 158.253 195.83 158.15 195.83 158.043C195.83 157.936 195.871 157.833 195.946 157.756C196.401 157.316 196.957 156.993 197.565 156.817C198.173 156.641 198.815 156.617 199.435 156.747C199.536 156.776 199.621 156.843 199.675 156.933C199.728 157.023 199.745 157.13 199.721 157.233C199.69 157.334 199.621 157.42 199.528 157.474C199.436 157.527 199.327 157.543 199.223 157.519C198.737 157.423 198.234 157.446 197.758 157.587C197.283 157.728 196.849 157.983 196.494 158.329C196.446 158.377 196.386 158.412 196.321 158.429C196.255 158.447 196.186 158.447 196.12 158.429Z" fill="#263238"/>
<path d="M205.216 158.404C205.197 158.335 205.197 158.261 205.216 158.192C205.228 158.14 205.25 158.091 205.281 158.048C205.312 158.005 205.351 157.968 205.396 157.94C205.441 157.912 205.492 157.894 205.544 157.886C205.597 157.878 205.651 157.88 205.702 157.893C206.322 158.016 206.901 158.289 207.39 158.689C207.879 159.089 208.262 159.603 208.506 160.186C208.542 160.285 208.537 160.394 208.493 160.49C208.449 160.586 208.368 160.66 208.269 160.697C208.22 160.716 208.168 160.726 208.115 160.724C208.062 160.723 208.01 160.711 207.962 160.689C207.914 160.667 207.872 160.635 207.836 160.595C207.801 160.556 207.775 160.51 207.758 160.46C207.557 160.005 207.249 159.606 206.861 159.296C206.473 158.986 206.015 158.774 205.528 158.678C205.457 158.663 205.391 158.63 205.336 158.582C205.282 158.534 205.24 158.473 205.216 158.404Z" fill="#263238"/>
<path d="M152.585 181.019C145.857 178.963 141.733 180.197 140.412 175.973C139.091 171.749 137.608 148.461 138.642 148.187C136.724 148.785 135.054 149.433 133.148 150.031C132.45 156.435 131.681 162.836 130.842 169.232C130.232 173.904 129.484 181.48 131.416 185.779C133.16 189.654 144.661 192.071 152.984 193.666C155.426 191.224 152.585 181.019 152.585 181.019Z" fill="#FFB573"/>
<path d="M173.78 193.84C179.598 187.423 175.026 181.692 163.612 178.988C157.517 177.445 151.295 176.457 145.022 176.035L142.38 194.052C153.258 197.254 167.824 200.394 173.78 193.84Z" fill="#407BFF"/>
<path d="M140.536 153.744L142.555 150.367L133.472 148.349C133.472 148.349 129.522 155.825 133.048 157.245L135.278 156.734C137.21 156.323 139.552 155.625 140.536 153.744Z" fill="#FFB573"/>
<path d="M141.508 144.237L136.163 144L133.484 148.349L142.567 150.367L141.508 144.237Z" fill="#FFB573"/>
<path d="M222.486 370.971C222.772 370.859 237.687 371.881 237.687 371.881L236.441 376.441L221.389 376.18L222.486 370.971Z" fill="#407BFF"/>
<path d="M120.276 374.934C120.563 375.046 130.768 385.973 130.768 385.973L126.693 388.465L115.878 377.949L120.276 374.934Z" fill="#407BFF"/>
</svg>
