<svg width="632" height="471" viewBox="0 0 632 471" fill="none" xmlns="http://www.w3.org/2000/svg">
<path d="M632.351 413.409H0.150696V413.724H632.351V413.409Z" fill="#EBEBEB"/>
<path d="M569.004 433.725H527.127V434.041H569.004V433.725Z" fill="#EBEBEB"/>
<path d="M418.945 437.16H407.958V437.476H418.945V437.16Z" fill="#EBEBEB"/>
<path d="M525.863 422.008H501.599V422.323H525.863V422.008Z" fill="#EBEBEB"/>
<path d="M121.091 424.129H66.4811V424.445H121.091V424.129Z" fill="#EBEBEB"/>
<path d="M140.36 424.129H132.356V424.445H140.36V424.129Z" fill="#EBEBEB"/>
<path d="M284.83 429.457H166.381V429.773H284.83V429.457Z" fill="#EBEBEB"/>
<path d="M299.814 357.092H55.6705C53.7579 357.089 51.9247 356.328 50.5735 354.976C49.2223 353.624 48.4634 351.792 48.4634 349.882V7.14689C48.48 5.24782 49.2463 3.432 50.5957 2.09384C51.9451 0.755674 53.7688 0.00325321 55.6705 0H299.814C301.728 0 303.565 0.759626 304.919 2.11177C306.273 3.46391 307.033 5.29781 307.033 7.21003V349.882C307.033 351.794 306.273 353.628 304.919 354.98C303.565 356.332 301.728 357.092 299.814 357.092ZM55.6705 0.252541C53.8417 0.255886 52.089 0.983727 50.797 2.27631C49.5051 3.56889 48.7795 5.32058 48.7795 7.14689V349.882C48.7795 351.708 49.5051 353.46 50.797 354.753C52.089 356.045 53.8417 356.773 55.6705 356.776H299.814C301.643 356.773 303.397 356.046 304.691 354.753C305.985 353.461 306.714 351.71 306.717 349.882V7.14689C306.714 5.31942 305.985 3.56775 304.691 2.27554C303.397 0.983317 301.643 0.255879 299.814 0.252541H55.6705Z" fill="#EBEBEB"/>
<path d="M573.316 357.092H329.16C327.247 357.089 325.412 356.328 324.059 354.977C322.706 353.625 321.944 351.793 321.941 349.882V7.14689C321.961 5.24667 322.73 3.43086 324.081 2.09305C325.433 0.755233 327.258 0.00321773 329.16 0H573.316C575.216 0.00657173 577.036 0.760461 578.383 2.09827C579.729 3.43607 580.494 5.25 580.511 7.14689V349.882C580.511 351.79 579.753 353.62 578.405 354.971C577.056 356.323 575.226 357.085 573.316 357.092ZM329.16 0.252541C327.33 0.255879 325.576 0.983317 324.282 2.27554C322.989 3.56775 322.26 5.31942 322.257 7.14689V349.882C322.26 351.71 322.989 353.461 324.282 354.753C325.576 356.046 327.33 356.773 329.16 356.776H573.316C575.146 356.773 576.9 356.046 578.194 354.753C579.488 353.461 580.216 351.71 580.22 349.882V7.14689C580.216 5.31942 579.488 3.56775 578.194 2.27554C576.9 0.983317 575.146 0.255879 573.316 0.252541H329.16Z" fill="#EBEBEB"/>
<path d="M306.565 150.11H127.046V412.967H306.565V150.11Z" fill="#F0F0F0"/>
<path d="M300.218 158.381H133.381V206.932H300.218V158.381Z" fill="#E0E0E0"/>
<path d="M142.864 166.235H133.381V206.919H142.864V166.235Z" fill="#EBEBEB"/>
<path d="M188.698 166.235H179.215V206.919H188.698V166.235Z" fill="#EBEBEB"/>
<path d="M240.718 165.213L231.373 166.822L238.293 206.914L247.638 205.306L240.718 165.213Z" fill="#EBEBEB"/>
<path d="M154.61 171.601H145.127V206.932H154.61V171.601Z" fill="#EBEBEB"/>
<path d="M176.395 171.601H166.912V206.932H176.395V171.601Z" fill="#EBEBEB"/>
<path d="M231.384 171.601H221.901V206.932H231.384V171.601Z" fill="#EBEBEB"/>
<path d="M201.154 170.375L191.897 172.43L199.572 206.919L208.829 204.864L201.154 170.375Z" fill="#EBEBEB"/>
<path d="M162.803 164.214H158.062V206.919H162.803V164.214Z" fill="#EBEBEB"/>
<path d="M219.17 164.214H214.429V206.919H219.17V164.214Z" fill="#EBEBEB"/>
<path d="M133.393 263.172H300.231V214.621L133.393 214.621V263.172Z" fill="#E0E0E0"/>
<path d="M290.735 263.16H300.218V222.475H290.735V263.16Z" fill="#EBEBEB"/>
<path d="M244.913 263.16H254.396V222.475H244.913V263.16Z" fill="#EBEBEB"/>
<path d="M185.976 261.543L195.321 263.152L202.241 223.059L192.896 221.45L185.976 261.543Z" fill="#EBEBEB"/>
<path d="M278.989 263.172H288.472V227.842H278.989V263.172Z" fill="#EBEBEB"/>
<path d="M257.216 263.172H266.699V227.842H257.216V263.172Z" fill="#EBEBEB"/>
<path d="M202.227 263.172H211.71V227.842H202.227V263.172Z" fill="#EBEBEB"/>
<path d="M224.813 261.108L234.07 263.163L241.745 228.674L232.488 226.619L224.813 261.108Z" fill="#EBEBEB"/>
<path d="M270.795 263.16H275.537V220.455H270.795V263.16Z" fill="#EBEBEB"/>
<path d="M214.441 263.16H219.183V220.455H214.441V263.16Z" fill="#EBEBEB"/>
<path d="M142.864 222.475H133.381V263.16H142.864V222.475Z" fill="#EBEBEB"/>
<path d="M154.61 227.829H145.127V263.16H154.61V227.829Z" fill="#EBEBEB"/>
<path d="M176.395 227.829H166.912V263.16H176.395V227.829Z" fill="#EBEBEB"/>
<path d="M162.803 220.455H158.062V263.16H162.803V220.455Z" fill="#EBEBEB"/>
<path d="M300.218 270.85H133.381V319.4H300.218V270.85Z" fill="#E0E0E0"/>
<path d="M238.629 278.704H229.146V319.388H238.629V278.704Z" fill="#EBEBEB"/>
<path d="M290.657 277.679L281.312 279.287L288.232 319.38L297.577 317.772L290.657 277.679Z" fill="#EBEBEB"/>
<path d="M204.541 284.07H195.058V319.4H204.541V284.07Z" fill="#EBEBEB"/>
<path d="M226.327 284.07H216.844V319.4H226.327V284.07Z" fill="#EBEBEB"/>
<path d="M281.315 284.07H271.832V319.4H281.315V284.07Z" fill="#EBEBEB"/>
<path d="M251.089 282.846L241.832 284.9L249.507 319.389L258.764 317.334L251.089 282.846Z" fill="#EBEBEB"/>
<path d="M212.734 276.683H207.993V319.388H212.734V276.683Z" fill="#EBEBEB"/>
<path d="M269.101 276.683H264.36V319.388H269.101V276.683Z" fill="#EBEBEB"/>
<path d="M181.619 277.688L172.274 279.297L179.194 319.39L188.539 317.781L181.619 277.688Z" fill="#EBEBEB"/>
<path d="M172.274 284.07H162.791V319.4H172.274V284.07Z" fill="#EBEBEB"/>
<path d="M142.052 282.845L132.795 284.9L140.47 319.389L149.728 317.334L142.052 282.845Z" fill="#EBEBEB"/>
<path d="M160.072 276.683H155.331V319.388H160.072V276.683Z" fill="#EBEBEB"/>
<path d="M96.0681 413.648H127.046L127.046 150.11H96.0681L96.0681 413.648Z" fill="#E0E0E0"/>
<path d="M411.637 406.767H385.325L399.157 294.21C399.489 291.858 400.646 289.7 402.422 288.121C404.198 286.541 406.478 285.643 408.855 285.585H523.612L506.783 406.716L411.637 406.767Z" fill="#F5F5F5"/>
<path d="M495.088 406.767H521.4L535.245 294.209C535.414 293.127 535.343 292.022 535.036 290.97C534.73 289.919 534.196 288.947 533.472 288.124C532.749 287.302 531.853 286.648 530.848 286.209C529.844 285.77 528.755 285.557 527.658 285.585H518.618C516.245 285.658 513.973 286.561 512.2 288.138C510.427 289.715 509.266 291.864 508.92 294.209L495.088 406.767Z" fill="#F0F0F0"/>
<path d="M485.402 406.59L490.169 352.167C490.269 350.987 490.773 349.876 491.594 349.022C492.416 348.167 493.506 347.619 494.683 347.47L496.643 347.218C498.225 347.02 499.69 346.284 500.793 345.135C501.896 343.985 502.569 342.491 502.699 340.904L503.572 330.979C503.658 330.017 503.542 329.048 503.232 328.132C502.922 327.217 502.425 326.377 501.772 325.664C501.119 324.951 500.325 324.382 499.439 323.993C498.554 323.604 497.597 323.403 496.63 323.403H540.606C541.573 323.403 542.53 323.604 543.415 323.993C544.301 324.382 545.095 324.951 545.748 325.664C546.401 326.377 546.898 327.217 547.208 328.132C547.518 329.048 547.633 330.017 547.547 330.979L546.675 340.904C546.545 342.491 545.872 343.985 544.769 345.135C543.666 346.284 542.201 347.02 540.619 347.218L538.659 347.47C537.483 347.621 536.394 348.17 535.572 349.024C534.751 349.879 534.248 350.988 534.145 352.167L529.378 406.59C529.207 408.502 528.327 410.282 526.909 411.579C525.491 412.876 523.638 413.596 521.716 413.598H477.74C479.663 413.596 481.515 412.876 482.933 411.579C484.351 410.282 485.232 408.502 485.402 406.59Z" fill="#E6E6E6"/>
<path d="M364.374 338.593C364.025 334.462 362.136 330.612 359.08 327.806C356.024 325 352.025 323.442 347.873 323.441H386.159C390.3 323.458 394.284 325.023 397.326 327.828C400.369 330.632 402.249 334.473 402.597 338.593L406.39 381.727H368.154L364.374 338.593Z" fill="#E6E6E6"/>
<path d="M330.867 323.492H347.861C352.012 323.493 356.012 325.051 359.068 327.857C362.123 330.663 364.013 334.513 364.361 338.644L368.154 381.778H459.343L463.136 338.644C463.481 334.523 465.36 330.68 468.403 327.875C471.446 325.07 475.432 323.506 479.573 323.492H496.58C497.547 323.491 498.504 323.692 499.389 324.081C500.274 324.471 501.069 325.04 501.722 325.752C502.375 326.465 502.872 327.306 503.182 328.221C503.492 329.136 503.607 330.106 503.521 331.068L502.649 340.993C502.519 342.579 501.846 344.073 500.743 345.223C499.64 346.373 498.174 347.108 496.592 347.306L494.632 347.559C493.455 347.708 492.365 348.255 491.544 349.11C490.722 349.965 490.219 351.075 490.118 352.256L485.402 406.59C485.232 408.503 484.351 410.282 482.933 411.579C481.515 412.876 479.663 413.596 477.74 413.598H349.757C347.835 413.596 345.982 412.876 344.564 411.579C343.146 410.282 342.266 408.503 342.095 406.59L337.328 352.167C337.223 350.989 336.719 349.881 335.898 349.027C335.077 348.173 333.99 347.624 332.814 347.47L330.855 347.218C329.272 347.018 327.806 346.282 326.701 345.133C325.597 343.984 324.921 342.491 324.785 340.904L323.926 330.979C323.853 330.024 323.978 329.064 324.293 328.16C324.609 327.255 325.108 326.425 325.76 325.722C326.412 325.019 327.202 324.458 328.08 324.075C328.959 323.691 329.908 323.492 330.867 323.492Z" fill="#F0F0F0"/>
<path d="M129.322 136.978C129.322 136.978 127.918 127.748 134.658 121.825C141.397 115.903 140.803 112.393 138.868 111.939C136.934 111.484 135.176 117.393 132.217 119.022C132.217 119.022 132.116 110.587 135.125 107.494C138.135 104.4 139.715 96.382 136.845 96.2432C133.975 96.1043 133.697 100.991 133.052 104.463C132.407 107.936 129.259 112.81 129.259 112.81C129.259 112.81 128.639 105.234 126.73 102.165C124.821 99.0969 129.967 91.9626 127.994 88.869C126.022 85.7753 122.443 91.6722 122.734 98.3266C123.025 104.981 127.476 112.077 126.439 119.022C126.439 119.022 124.479 114.136 122.722 113.694C120.964 113.252 119.181 110.032 118.005 108.832C116.83 107.633 115.338 111.774 118.005 115.613C120.673 119.452 127.476 129.743 126.439 138.051L129.322 136.978Z" fill="#E6E6E6"/>
<path d="M133.343 132.773L135.555 146.6C135.714 147.604 135.653 148.63 135.377 149.608C135.101 150.586 134.615 151.493 133.954 152.266C133.294 153.039 132.473 153.659 131.549 154.085C130.624 154.511 129.619 154.731 128.601 154.731H126.249C125.232 154.731 124.226 154.511 123.302 154.085C122.378 153.659 121.557 153.039 120.896 152.266C120.235 151.493 119.75 150.586 119.473 149.608C119.197 148.63 119.136 147.604 119.295 146.6L121.533 132.773H133.343Z" fill="#E6E6E6"/>
<path d="M265.738 152.029H272.604V122.545H265.738V152.029Z" fill="#EBEBEB"/>
<path d="M232.535 152.029H239.401V122.545H232.535V152.029Z" fill="#EBEBEB"/>
<path d="M189.829 150.857L196.595 152.022L201.61 122.966L194.844 121.802L189.829 150.857Z" fill="#EBEBEB"/>
<path d="M257.229 152.017H264.094V126.422H257.229V152.017Z" fill="#EBEBEB"/>
<path d="M241.449 152.017H248.314V126.422H241.449V152.017Z" fill="#EBEBEB"/>
<path d="M201.595 152.017H208.461V126.422H201.595V152.017Z" fill="#EBEBEB"/>
<path d="M217.969 150.532L224.672 152.019L230.232 127.034L223.53 125.547L217.969 150.532Z" fill="#EBEBEB"/>
<path d="M251.286 152.029H254.725V121.08H251.286V152.029Z" fill="#EBEBEB"/>
<path d="M210.433 152.029H213.872V121.08H210.433V152.029Z" fill="#EBEBEB"/>
<path d="M185.954 128.619H152.486V151.688H185.954V128.619Z" fill="#EBEBEB"/>
<path d="M300.737 138.064H272.705V155.287H300.737V138.064Z" fill="#EBEBEB"/>
<path d="M294.187 122.924H280.165V140.147H294.187V122.924Z" fill="#EBEBEB"/>
<path d="M528.43 100.132H495.088V238.878H528.43V100.132Z" fill="#E0E0E0"/>
<path d="M400.156 239.257L524.852 239.257V100.145L400.156 100.145V239.257Z" fill="#E0E0E0"/>
<path d="M396.136 239.257L525.509 239.257V100.145L396.136 100.145V239.257Z" fill="#F0F0F0"/>
<path d="M401.674 232.855L520.198 232.855V104.564L401.674 104.564V232.855Z" fill="white"/>
<path d="M401.661 232.855H403.861V104.564H401.661V232.855Z" fill="#E0E0E0"/>
<path d="M403.507 196.83V200.29H520.515V196.83H403.507Z" fill="#E0E0E0"/>
<path d="M401.661 196.817L522.045 196.817V191.009L401.661 191.009V196.817Z" fill="#F0F0F0"/>
<path d="M316.251 470.432C451.646 470.432 561.405 464.033 561.405 456.138C561.405 448.244 451.646 441.845 316.251 441.845C180.856 441.845 71.0962 448.244 71.0962 456.138C71.0962 464.033 180.856 470.432 316.251 470.432Z" fill="#F5F5F5"/>
<path d="M407.224 123.517H181.011C175.899 123.517 171.755 127.656 171.755 132.76V398.761C171.755 403.866 175.899 408.004 181.011 408.004H407.224C412.336 408.004 416.48 403.866 416.48 398.761V132.76C416.48 127.656 412.336 123.517 407.224 123.517Z" fill="#407BFF"/>
<path opacity="0.6" d="M407.224 123.517H181.011C175.899 123.517 171.755 127.656 171.755 132.76V398.761C171.755 403.866 175.899 408.004 181.011 408.004H407.224C412.336 408.004 416.48 403.866 416.48 398.761V132.76C416.48 127.656 412.336 123.517 407.224 123.517Z" fill="white"/>
<path d="M376.841 253.992H211.407V282.277H376.841V253.992Z" fill="white"/>
<g opacity="0.4">
<path d="M226.2 270.887V271.632H220.46V263.526H226.023V264.258H221.319V267.15H225.517V267.87H221.319V270.887H226.2Z" fill="#263238"/>
<path d="M227.351 268.135H230.398V268.842H227.351V268.135Z" fill="#263238"/>
<path d="M242.296 268.097V271.632H241.474V268.173C241.474 266.91 240.829 266.228 239.729 266.228C239.444 266.215 239.159 266.264 238.895 266.372C238.631 266.48 238.394 266.645 238.2 266.854C238.006 267.063 237.86 267.312 237.773 267.584C237.685 267.855 237.658 268.142 237.694 268.425V271.632H236.859V268.173C236.859 266.91 236.214 266.228 235.102 266.228C234.816 266.215 234.532 266.264 234.268 266.372C234.003 266.48 233.766 266.645 233.572 266.854C233.378 267.063 233.232 267.312 233.145 267.584C233.058 267.855 233.031 268.142 233.066 268.425V271.632H232.231V265.534H233.028V266.645C233.266 266.272 233.599 265.969 233.992 265.765C234.384 265.561 234.824 265.464 235.266 265.483C235.713 265.445 236.16 265.546 236.547 265.772C236.934 265.998 237.242 266.338 237.428 266.746C237.681 266.339 238.038 266.007 238.463 265.785C238.888 265.563 239.364 265.459 239.843 265.483C240.186 265.457 240.531 265.508 240.852 265.633C241.172 265.757 241.461 265.952 241.697 266.203C241.932 266.454 242.108 266.754 242.212 267.082C242.315 267.41 242.344 267.757 242.296 268.097Z" fill="#263238"/>
<path d="M249.149 267.844V271.632H248.352V270.673C248.126 271.014 247.812 271.289 247.442 271.466C247.073 271.644 246.662 271.719 246.253 271.683C244.875 271.683 244.028 270.963 244.028 269.915C244.028 268.867 244.635 268.185 246.38 268.185H248.314V267.819C248.314 266.771 247.733 266.203 246.595 266.203C245.852 266.194 245.131 266.449 244.559 266.923L244.192 266.316C244.907 265.743 245.805 265.446 246.721 265.483C247.044 265.444 247.371 265.477 247.679 265.581C247.988 265.685 248.268 265.857 248.501 266.083C248.734 266.31 248.913 266.585 249.025 266.89C249.137 267.195 249.18 267.521 249.149 267.844ZM248.314 269.801V268.804H246.405C245.229 268.804 244.837 269.258 244.837 269.89C244.837 270.521 245.406 271.039 246.38 271.039C246.792 271.066 247.203 270.961 247.551 270.738C247.899 270.515 248.167 270.187 248.314 269.801Z" fill="#263238"/>
<path d="M251.197 263.614C251.199 263.536 251.216 263.459 251.247 263.388C251.279 263.317 251.324 263.252 251.38 263.198C251.437 263.144 251.503 263.102 251.576 263.074C251.649 263.045 251.726 263.032 251.804 263.033C251.881 263.032 251.957 263.045 252.028 263.073C252.099 263.1 252.164 263.142 252.219 263.195C252.274 263.247 252.319 263.31 252.349 263.38C252.38 263.45 252.397 263.525 252.398 263.602C252.4 263.681 252.386 263.759 252.357 263.833C252.328 263.906 252.284 263.973 252.229 264.029C252.174 264.086 252.107 264.131 252.035 264.161C251.962 264.192 251.883 264.208 251.804 264.208C251.725 264.209 251.646 264.195 251.573 264.166C251.499 264.137 251.432 264.094 251.376 264.038C251.319 263.983 251.274 263.917 251.244 263.844C251.213 263.771 251.197 263.693 251.197 263.614ZM251.387 265.534H252.209V271.632H251.387V265.534Z" fill="#263238"/>
<path d="M254.497 263.033H255.319V271.632H254.497V263.033Z" fill="#263238"/>
</g>
<path d="M376.841 292.631H211.407V320.916H376.841V292.631Z" fill="white"/>
<g opacity="0.4">
<path d="M226.807 304.98C226.807 306.71 225.543 307.758 223.494 307.758H221.319V310.284H220.46V302.177H223.494C225.555 302.202 226.807 303.25 226.807 304.98ZM225.947 304.98C225.947 303.718 225.1 302.947 223.418 302.947H221.269V307.001H223.418C225.1 307.001 225.947 306.256 225.947 304.98Z" fill="#263238"/>
<path d="M233.041 306.533V310.322H232.244V309.362C232.018 309.704 231.703 309.978 231.334 310.156C230.964 310.333 230.554 310.408 230.145 310.372C228.767 310.372 227.92 309.652 227.92 308.592C227.92 307.531 228.527 306.837 230.271 306.837H232.206V306.458C232.206 305.422 231.612 304.854 230.474 304.854C229.735 304.844 229.017 305.1 228.451 305.574L228.071 304.955C228.792 304.394 229.687 304.103 230.6 304.134C230.927 304.092 231.26 304.125 231.573 304.23C231.885 304.335 232.17 304.509 232.405 304.74C232.64 304.972 232.82 305.253 232.93 305.564C233.04 305.874 233.078 306.206 233.041 306.533ZM232.219 308.478V307.481H230.271C229.096 307.481 228.716 307.948 228.716 308.579C228.716 309.21 229.273 309.715 230.259 309.715C230.675 309.746 231.09 309.643 231.443 309.42C231.796 309.197 232.068 308.867 232.219 308.478Z" fill="#263238"/>
<path d="M234.431 309.614L234.798 308.97C235.436 309.415 236.195 309.653 236.973 309.652C238.123 309.652 238.604 309.261 238.604 308.655C238.604 307.064 234.646 308.314 234.646 305.915C234.646 304.917 235.506 304.172 237.061 304.172C237.82 304.165 238.566 304.362 239.223 304.74L238.857 305.397C238.325 305.046 237.698 304.866 237.061 304.879C235.961 304.879 235.468 305.309 235.468 305.89C235.468 307.531 239.426 306.294 239.426 308.63C239.426 309.69 238.503 310.372 236.897 310.372C236.014 310.395 235.148 310.129 234.431 309.614Z" fill="#263238"/>
<path d="M240.096 309.614L240.475 308.97C241.106 309.42 241.863 309.659 242.637 309.652C243.801 309.652 244.268 309.261 244.268 308.655C244.268 307.064 240.324 308.314 240.324 305.915C240.324 304.917 241.183 304.172 242.726 304.172C243.485 304.162 244.232 304.359 244.888 304.74L244.534 305.397C243.997 305.047 243.367 304.867 242.726 304.879C241.626 304.879 241.145 305.309 241.145 305.889C241.145 307.531 245.103 306.294 245.103 308.63C245.103 309.69 244.167 310.372 242.574 310.372C241.688 310.393 240.819 310.127 240.096 309.614Z" fill="#263238"/>
<path d="M255.446 304.223L253.144 310.309H252.373L250.502 305.321L248.58 310.309H247.809L245.444 304.223H246.228L248.15 309.4L250.11 304.223H250.818L252.765 309.4L254.7 304.223H255.446Z" fill="#263238"/>
<path d="M255.901 307.266C255.901 306.651 256.083 306.051 256.425 305.54C256.767 305.029 257.253 304.631 257.821 304.396C258.389 304.161 259.015 304.099 259.618 304.219C260.221 304.339 260.776 304.635 261.211 305.069C261.646 305.504 261.942 306.057 262.062 306.66C262.182 307.262 262.12 307.887 261.885 308.455C261.649 309.022 261.251 309.507 260.739 309.849C260.228 310.19 259.626 310.372 259.011 310.372C258.599 310.386 258.188 310.315 257.804 310.164C257.421 310.013 257.072 309.785 256.78 309.494C256.489 309.202 256.26 308.854 256.109 308.471C255.958 308.088 255.887 307.678 255.901 307.266ZM261.275 307.266C261.255 306.821 261.104 306.391 260.842 306.031C260.579 305.67 260.217 305.395 259.799 305.238C259.381 305.082 258.926 305.052 258.491 305.152C258.056 305.252 257.66 305.477 257.353 305.8C257.045 306.122 256.839 306.528 256.76 306.967C256.682 307.406 256.734 307.858 256.911 308.267C257.088 308.676 257.381 309.025 257.755 309.269C258.128 309.513 258.565 309.642 259.011 309.64C259.32 309.646 259.626 309.587 259.911 309.469C260.196 309.35 260.453 309.173 260.666 308.95C260.879 308.727 261.043 308.462 261.148 308.172C261.252 307.882 261.296 307.573 261.275 307.266Z" fill="#263238"/>
<path d="M266.863 304.172V304.968H266.661C266.371 304.954 266.083 305.004 265.815 305.114C265.547 305.224 265.307 305.392 265.112 305.605C264.916 305.819 264.77 306.072 264.684 306.348C264.597 306.625 264.573 306.916 264.612 307.203V310.309H263.791V304.223H264.574V305.41C264.788 304.998 265.12 304.66 265.528 304.439C265.936 304.218 266.401 304.125 266.863 304.172Z" fill="#263238"/>
<path d="M273.855 301.786V310.372H273.071V309.173C272.826 309.572 272.479 309.899 272.066 310.121C271.653 310.342 271.188 310.451 270.72 310.435C269.931 310.385 269.19 310.036 268.649 309.461C268.108 308.885 267.807 308.125 267.807 307.335C267.807 306.546 268.108 305.786 268.649 305.21C269.19 304.634 269.931 304.286 270.72 304.235C271.182 304.225 271.639 304.336 272.045 304.558C272.452 304.779 272.792 305.104 273.033 305.498V301.786H273.855ZM273.046 307.329C273.026 306.884 272.876 306.454 272.613 306.094C272.351 305.733 271.988 305.458 271.57 305.301C271.152 305.145 270.698 305.115 270.263 305.215C269.828 305.315 269.432 305.54 269.124 305.863C268.816 306.186 268.61 306.592 268.532 307.03C268.453 307.469 268.506 307.921 268.683 308.33C268.859 308.739 269.153 309.088 269.526 309.332C269.9 309.576 270.337 309.705 270.783 309.703C271.097 309.71 271.41 309.65 271.699 309.527C271.989 309.405 272.249 309.223 272.463 308.992C272.677 308.762 272.839 308.489 272.94 308.191C273.04 307.894 273.077 307.578 273.046 307.266V307.329Z" fill="#263238"/>
</g>
<path opacity="0.2" d="M376.841 349.768H211.407V378.053H376.841V349.768Z" fill="black"/>
<g opacity="0.5">
<path d="M251.64 336.775H248.934L248.352 338.038H247.821L250.034 333.202H250.54L252.753 338.038H252.222L251.64 336.775ZM251.45 336.358L250.287 333.757L249.124 336.358H251.45Z" fill="black"/>
<path d="M253.461 332.937H253.954V338.063H253.461V332.937Z" fill="black"/>
<path d="M257.165 334.401V334.881H257.039C256.862 334.866 256.685 334.891 256.519 334.954C256.354 335.017 256.204 335.117 256.083 335.245C255.961 335.374 255.87 335.528 255.817 335.697C255.764 335.866 255.749 336.044 255.774 336.22V338.076H255.281V334.439H255.762V335.146C255.889 334.891 256.092 334.682 256.344 334.549C256.596 334.415 256.883 334.364 257.165 334.401Z" fill="black"/>
<path d="M261.186 336.396H258.088C258.098 336.573 258.143 336.747 258.22 336.906C258.297 337.066 258.406 337.208 258.538 337.326C258.671 337.443 258.826 337.533 258.994 337.591C259.162 337.648 259.34 337.671 259.517 337.659C259.727 337.666 259.937 337.628 260.131 337.548C260.325 337.467 260.499 337.346 260.642 337.192L260.908 337.508C260.647 337.782 260.31 337.972 259.941 338.056C259.571 338.139 259.185 338.112 258.831 337.977C258.477 337.842 258.171 337.606 257.951 337.298C257.731 336.989 257.607 336.623 257.595 336.245C257.583 336.005 257.62 335.765 257.705 335.54C257.789 335.315 257.919 335.11 258.086 334.937C258.253 334.764 258.454 334.627 258.677 334.535C258.899 334.443 259.138 334.397 259.378 334.401C259.619 334.395 259.858 334.44 260.08 334.531C260.303 334.623 260.504 334.76 260.67 334.933C260.837 335.107 260.965 335.313 261.047 335.539C261.13 335.765 261.164 336.005 261.148 336.245C261.148 336.245 261.186 336.346 261.186 336.396ZM258.139 336.03H260.668C260.668 335.695 260.535 335.374 260.297 335.137C260.06 334.9 259.739 334.767 259.403 334.767C259.068 334.767 258.746 334.9 258.509 335.137C258.272 335.374 258.139 335.695 258.139 336.03Z" fill="black"/>
<path d="M264.84 335.879V338.126H264.41V337.558C264.276 337.766 264.087 337.932 263.864 338.039C263.641 338.146 263.392 338.19 263.146 338.164C262.324 338.164 261.881 337.735 261.881 337.103C261.881 336.472 262.236 336.068 263.285 336.068H264.41V335.853C264.41 335.235 264.056 334.894 263.373 334.894C262.913 334.877 262.463 335.029 262.109 335.323L261.894 334.957C262.313 334.623 262.837 334.448 263.373 334.464C263.569 334.431 263.77 334.444 263.96 334.502C264.149 334.561 264.323 334.663 264.465 334.801C264.608 334.938 264.717 335.108 264.782 335.295C264.847 335.482 264.867 335.682 264.84 335.879ZM264.36 337.04V336.434H263.209C262.501 336.434 262.273 336.712 262.273 337.091C262.273 337.47 262.615 337.773 263.196 337.773C263.458 337.793 263.72 337.725 263.939 337.582C264.159 337.438 264.324 337.225 264.41 336.977L264.36 337.04Z" fill="black"/>
<path d="M269.468 332.937V338.063H269V337.343C268.856 337.584 268.65 337.782 268.403 337.916C268.156 338.049 267.877 338.113 267.597 338.101C267.132 338.063 266.698 337.851 266.382 337.508C266.066 337.166 265.891 336.717 265.891 336.251C265.891 335.785 266.066 335.337 266.382 334.994C266.698 334.651 267.132 334.44 267.597 334.401C267.87 334.394 268.142 334.456 268.385 334.582C268.628 334.708 268.836 334.893 268.987 335.121V332.937H269.468ZM268.987 336.245C268.975 335.981 268.885 335.726 268.729 335.512C268.573 335.298 268.358 335.135 268.11 335.042C267.862 334.95 267.592 334.932 267.334 334.991C267.076 335.05 266.841 335.183 266.658 335.375C266.475 335.566 266.352 335.806 266.305 336.067C266.258 336.327 266.288 336.595 266.392 336.839C266.496 337.082 266.669 337.289 266.89 337.435C267.111 337.581 267.37 337.659 267.635 337.659C267.823 337.67 268.011 337.641 268.188 337.574C268.364 337.507 268.524 337.403 268.656 337.269C268.789 337.135 268.892 336.974 268.958 336.798C269.024 336.621 269.051 336.433 269.038 336.245H268.987Z" fill="black"/>
<path d="M273.957 334.427L272.136 338.505C271.832 339.212 271.44 339.439 270.871 339.439C270.545 339.448 270.228 339.331 269.986 339.111L270.214 338.745C270.392 338.923 270.633 339.023 270.884 339.023C271.213 339.023 271.428 338.871 271.643 338.404L271.794 338.063L270.163 334.427H270.732L272.111 337.52L273.476 334.427H273.957Z" fill="black"/>
<path d="M279.216 335.879V338.126H278.749V337.558C278.614 337.766 278.425 337.932 278.202 338.039C277.979 338.146 277.73 338.19 277.484 338.164C276.662 338.164 276.22 337.735 276.22 337.103C276.22 336.472 276.574 336.068 277.623 336.068H278.774V335.853C278.774 335.235 278.432 334.894 277.75 334.894C277.29 334.877 276.84 335.029 276.485 335.323L276.258 334.957C276.682 334.623 277.21 334.449 277.75 334.464C277.945 334.431 278.146 334.444 278.336 334.502C278.526 334.561 278.699 334.663 278.842 334.801C278.984 334.938 279.093 335.108 279.158 335.295C279.223 335.482 279.243 335.682 279.216 335.879ZM278.723 337.04V336.434H277.585C276.877 336.434 276.65 336.712 276.65 337.091C276.65 337.47 276.991 337.773 277.573 337.773C277.825 337.783 278.074 337.711 278.281 337.567C278.489 337.424 278.644 337.216 278.723 336.977V337.04Z" fill="black"/>
<path d="M288.434 335.954V338.063H287.953V336.005C287.953 335.235 287.561 334.843 286.904 334.843C286.735 334.83 286.564 334.853 286.405 334.912C286.245 334.971 286.101 335.064 285.98 335.184C285.86 335.304 285.767 335.448 285.709 335.607C285.65 335.767 285.626 335.937 285.64 336.106V338.013H285.159V336.005C285.159 335.235 284.767 334.843 284.097 334.843C283.928 334.83 283.757 334.853 283.598 334.912C283.438 334.971 283.294 335.064 283.173 335.184C283.053 335.304 282.961 335.448 282.902 335.607C282.843 335.767 282.819 335.937 282.833 336.106V338.013H282.339V334.376H282.807V335.045C282.947 334.819 283.145 334.635 283.381 334.513C283.617 334.39 283.882 334.334 284.148 334.351C284.413 334.33 284.678 334.393 284.905 334.532C285.132 334.67 285.309 334.876 285.412 335.121C285.559 334.874 285.771 334.671 286.025 334.535C286.279 334.4 286.566 334.336 286.853 334.351C287.072 334.312 287.296 334.327 287.508 334.394C287.719 334.461 287.911 334.579 288.067 334.737C288.222 334.895 288.337 335.088 288.401 335.3C288.465 335.512 288.476 335.737 288.434 335.954Z" fill="black"/>
<path d="M292.91 336.396H289.863C289.889 336.754 290.055 337.087 290.324 337.323C290.594 337.559 290.946 337.68 291.304 337.659C291.513 337.667 291.72 337.629 291.912 337.549C292.105 337.468 292.277 337.346 292.417 337.192L292.695 337.508C292.517 337.701 292.3 337.854 292.058 337.957C291.816 338.059 291.554 338.108 291.292 338.101C291.041 338.117 290.79 338.08 290.554 337.994C290.319 337.907 290.104 337.771 289.924 337.596C289.744 337.421 289.603 337.211 289.51 336.978C289.416 336.745 289.373 336.495 289.382 336.245C289.382 335.776 289.569 335.326 289.901 334.995C290.233 334.663 290.683 334.477 291.153 334.477C291.622 334.477 292.072 334.663 292.404 334.995C292.736 335.326 292.923 335.776 292.923 336.245C292.923 336.245 292.91 336.346 292.91 336.396ZM289.863 336.03H292.455C292.455 335.687 292.318 335.358 292.075 335.115C291.832 334.872 291.503 334.736 291.159 334.736C290.815 334.736 290.485 334.872 290.242 335.115C289.999 335.358 289.863 335.687 289.863 336.03Z" fill="black"/>
<path d="M299.94 335.954V338.063H299.447V336.005C299.447 335.235 299.067 334.843 298.41 334.843C298.24 334.828 298.069 334.85 297.908 334.908C297.748 334.966 297.602 335.058 297.481 335.179C297.361 335.299 297.268 335.445 297.21 335.605C297.152 335.765 297.13 335.936 297.146 336.106V338.013H296.652V336.005C296.652 335.235 296.273 334.843 295.603 334.843C295.433 334.828 295.262 334.85 295.101 334.908C294.941 334.966 294.795 335.058 294.674 335.179C294.554 335.299 294.461 335.445 294.403 335.605C294.345 335.765 294.323 335.936 294.339 336.106V338.013H293.845V334.376H294.313V335.045C294.452 334.818 294.65 334.633 294.886 334.511C295.122 334.388 295.388 334.333 295.654 334.351C295.919 334.33 296.184 334.393 296.411 334.532C296.638 334.67 296.815 334.876 296.918 335.121C297.065 334.874 297.277 334.671 297.531 334.535C297.785 334.4 298.072 334.336 298.359 334.351C298.578 334.312 298.802 334.327 299.014 334.394C299.225 334.461 299.417 334.579 299.573 334.737C299.728 334.895 299.843 335.088 299.907 335.3C299.971 335.512 299.982 335.737 299.94 335.954Z" fill="black"/>
<path d="M304.972 336.245C304.985 336.488 304.947 336.73 304.861 336.957C304.775 337.185 304.643 337.392 304.473 337.566C304.304 337.74 304.1 337.878 303.875 337.97C303.649 338.062 303.407 338.107 303.164 338.101C302.884 338.113 302.605 338.049 302.358 337.916C302.111 337.782 301.904 337.584 301.761 337.343V338.063H301.28V332.937H301.773V335.121C301.924 334.892 302.132 334.706 302.375 334.58C302.618 334.454 302.89 334.393 303.164 334.401C303.407 334.394 303.648 334.437 303.874 334.528C304.099 334.618 304.303 334.754 304.473 334.927C304.643 335.101 304.775 335.307 304.861 335.534C304.947 335.761 304.985 336.003 304.972 336.245ZM304.479 336.245C304.467 335.981 304.377 335.726 304.221 335.512C304.065 335.298 303.85 335.135 303.602 335.042C303.354 334.95 303.084 334.932 302.826 334.991C302.568 335.05 302.332 335.183 302.15 335.375C301.967 335.566 301.844 335.806 301.797 336.067C301.749 336.327 301.78 336.595 301.884 336.839C301.988 337.082 302.161 337.289 302.382 337.435C302.603 337.581 302.861 337.659 303.126 337.659C303.31 337.663 303.493 337.629 303.664 337.558C303.834 337.488 303.987 337.382 304.115 337.249C304.242 337.116 304.34 336.958 304.403 336.785C304.465 336.612 304.492 336.428 304.479 336.245Z" fill="black"/>
<path d="M309.157 336.396H306.136C306.145 336.573 306.19 336.747 306.267 336.906C306.344 337.066 306.453 337.208 306.586 337.326C306.719 337.443 306.874 337.533 307.042 337.591C307.21 337.648 307.387 337.671 307.564 337.659C307.775 337.659 307.982 337.612 308.172 337.523C308.362 337.433 308.53 337.303 308.664 337.141L308.943 337.457C308.681 337.731 308.345 337.922 307.975 338.005C307.605 338.089 307.219 338.062 306.865 337.927C306.511 337.792 306.205 337.555 305.985 337.247C305.766 336.939 305.642 336.573 305.63 336.194C305.618 335.954 305.655 335.714 305.739 335.489C305.824 335.264 305.954 335.059 306.121 334.886C306.288 334.714 306.489 334.577 306.711 334.485C306.933 334.393 307.172 334.347 307.413 334.351C307.653 334.345 307.891 334.389 308.113 334.481C308.335 334.573 308.535 334.71 308.701 334.883C308.866 335.057 308.994 335.263 309.074 335.489C309.155 335.715 309.188 335.955 309.17 336.194L309.157 336.396ZM306.11 336.03H308.639C308.639 335.695 308.506 335.374 308.269 335.137C308.032 334.9 307.71 334.767 307.375 334.767C307.039 334.767 306.718 334.9 306.481 335.137C306.243 335.374 306.11 335.695 306.11 336.03Z" fill="black"/>
<path d="M312.002 334.401V334.881H311.889C311.712 334.866 311.534 334.891 311.369 334.954C311.203 335.017 311.054 335.117 310.933 335.245C310.811 335.374 310.72 335.528 310.667 335.697C310.613 335.866 310.599 336.044 310.624 336.22V338.076H310.131V334.439H310.599V335.146C310.727 334.893 310.931 334.685 311.182 334.551C311.434 334.418 311.72 334.366 312.002 334.401Z" fill="black"/>
<path d="M315.189 334.464C315.189 333.959 314.784 333.618 314.076 333.618C313.827 333.604 313.578 333.647 313.348 333.743C313.118 333.84 312.913 333.987 312.748 334.174L312.382 333.896C312.597 333.653 312.865 333.462 313.165 333.338C313.465 333.213 313.789 333.158 314.114 333.176C315.087 333.176 315.707 333.644 315.707 334.439C315.707 335.613 314.443 335.702 314.443 336.661H313.924C313.924 335.475 315.189 335.361 315.189 334.464ZM313.823 337.735C313.839 337.651 313.883 337.575 313.949 337.521C314.015 337.466 314.098 337.436 314.183 337.436C314.269 337.436 314.352 337.466 314.417 337.521C314.483 337.575 314.528 337.651 314.544 337.735C314.554 337.788 314.552 337.842 314.538 337.894C314.525 337.946 314.5 337.995 314.466 338.036C314.431 338.078 314.388 338.111 314.339 338.134C314.29 338.157 314.237 338.169 314.183 338.169C314.129 338.169 314.076 338.157 314.027 338.134C313.979 338.111 313.936 338.078 313.901 338.036C313.867 337.995 313.842 337.946 313.828 337.894C313.815 337.842 313.813 337.788 313.823 337.735Z" fill="black"/>
<path d="M318.615 333.227H319.741V337.141H322.168V338.05H318.615V333.227Z" fill="black"/>
<path d="M322.421 336.207C322.396 335.798 322.494 335.391 322.703 335.038C322.912 334.686 323.222 334.404 323.594 334.23C323.965 334.055 324.38 333.996 324.786 334.06C325.191 334.124 325.568 334.309 325.867 334.589C326.166 334.869 326.374 335.233 326.464 335.633C326.554 336.033 326.521 336.45 326.371 336.831C326.22 337.213 325.958 337.54 325.619 337.771C325.28 338.002 324.88 338.125 324.469 338.126C324.206 338.144 323.943 338.107 323.695 338.018C323.447 337.929 323.22 337.791 323.028 337.611C322.836 337.431 322.683 337.213 322.578 336.972C322.474 336.73 322.42 336.47 322.421 336.207ZM325.418 336.207C325.403 336.024 325.335 335.848 325.222 335.703C325.109 335.558 324.957 335.448 324.783 335.388C324.609 335.328 324.421 335.319 324.242 335.364C324.063 335.409 323.902 335.504 323.776 335.639C323.651 335.774 323.568 335.943 323.537 336.124C323.507 336.305 323.529 336.492 323.603 336.66C323.676 336.829 323.797 336.973 323.951 337.074C324.105 337.175 324.285 337.229 324.469 337.23C324.601 337.232 324.732 337.207 324.853 337.155C324.974 337.103 325.083 337.027 325.173 336.93C325.262 336.834 325.33 336.719 325.372 336.595C325.415 336.47 325.43 336.338 325.418 336.207Z" fill="black"/>
<path d="M331.082 334.338V337.444C331.117 337.724 331.086 338.007 330.992 338.272C330.899 338.537 330.745 338.777 330.543 338.973C330.341 339.169 330.096 339.315 329.827 339.401C329.559 339.486 329.274 339.508 328.996 339.465C328.345 339.49 327.704 339.308 327.162 338.947L327.592 338.177C327.962 338.441 328.403 338.586 328.857 338.593C329.615 338.593 329.957 338.253 329.957 337.583V337.419C329.806 337.576 329.622 337.699 329.419 337.78C329.217 337.86 328.999 337.897 328.781 337.886C328.532 337.907 328.281 337.876 328.044 337.795C327.807 337.714 327.59 337.585 327.406 337.416C327.222 337.247 327.075 337.041 326.974 336.813C326.874 336.584 326.822 336.337 326.822 336.087C326.822 335.837 326.874 335.59 326.974 335.361C327.075 335.132 327.222 334.927 327.406 334.758C327.59 334.589 327.807 334.46 328.044 334.379C328.281 334.298 328.532 334.267 328.781 334.288C329.019 334.269 329.258 334.307 329.478 334.399C329.698 334.491 329.892 334.635 330.045 334.818V334.338H331.082ZM330.02 336.093C330.024 335.967 330.001 335.841 329.953 335.724C329.905 335.607 329.832 335.501 329.74 335.414C329.648 335.327 329.539 335.26 329.419 335.219C329.3 335.177 329.173 335.161 329.046 335.172C328.917 335.156 328.786 335.169 328.662 335.208C328.537 335.247 328.423 335.312 328.325 335.398C328.228 335.485 328.15 335.591 328.097 335.709C328.043 335.828 328.016 335.957 328.016 336.087C328.016 336.217 328.043 336.346 328.097 336.465C328.15 336.583 328.228 336.689 328.325 336.776C328.423 336.862 328.537 336.927 328.662 336.966C328.786 337.005 328.917 337.018 329.046 337.002C329.172 337.013 329.298 336.997 329.416 336.956C329.535 336.915 329.644 336.85 329.736 336.764C329.827 336.678 329.9 336.574 329.949 336.459C329.998 336.343 330.022 336.219 330.02 336.093Z" fill="black"/>
<path d="M333.952 333.227C333.954 333.142 333.973 333.059 334.008 332.982C334.043 332.905 334.093 332.836 334.156 332.779C334.219 332.722 334.293 332.679 334.373 332.652C334.453 332.624 334.538 332.614 334.623 332.621C334.705 332.612 334.789 332.621 334.868 332.645C334.948 332.67 335.021 332.711 335.084 332.766C335.147 332.82 335.198 332.887 335.234 332.962C335.27 333.037 335.29 333.119 335.293 333.202C335.293 333.379 335.222 333.549 335.096 333.675C334.971 333.8 334.8 333.871 334.623 333.871C334.445 333.871 334.274 333.8 334.149 333.675C334.023 333.549 333.952 333.379 333.952 333.202V333.227ZM334.079 334.338H335.154V338.126H334.079V334.338Z" fill="black"/>
<path d="M339.946 335.879V338.013H338.871V336.055C338.871 335.449 338.593 335.172 338.112 335.172C337.632 335.172 337.215 335.487 337.215 336.169V338.013H336.14V334.225H337.177V334.666C337.34 334.499 337.537 334.368 337.755 334.283C337.973 334.198 338.207 334.161 338.441 334.174C338.659 334.163 338.878 334.201 339.079 334.286C339.281 334.371 339.46 334.5 339.605 334.664C339.75 334.828 339.855 335.022 339.914 335.232C339.973 335.443 339.984 335.664 339.946 335.879Z" fill="black"/>
</g>
<path d="M376.841 348.038H211.407V376.323H376.841V348.038Z" fill="#407BFF"/>
<path d="M272.755 366.575L270.732 363.658H270.125H267.723V366.6H266.332V356.915H270.125C272.654 356.915 274.159 358.178 274.159 360.299C274.191 360.971 274 361.635 273.616 362.187C273.232 362.74 272.676 363.15 272.035 363.355L274.336 366.6L272.755 366.575ZM272.755 360.261C272.755 358.872 271.832 358.09 270.049 358.09H267.698V362.446H270.049C271.794 362.459 272.717 361.65 272.717 360.274L272.755 360.261Z" fill="white"/>
<path d="M282.769 363.355H276.814C276.908 363.98 277.232 364.546 277.724 364.944C278.215 365.341 278.838 365.54 279.469 365.502C279.866 365.516 280.262 365.444 280.628 365.292C280.995 365.139 281.324 364.909 281.594 364.618L282.327 365.476C281.786 366.025 281.098 366.406 280.345 366.574C279.593 366.741 278.808 366.689 278.084 366.422C277.361 366.156 276.73 365.686 276.267 365.071C275.804 364.455 275.529 363.719 275.474 362.951C275.447 362.455 275.524 361.959 275.699 361.494C275.874 361.03 276.143 360.606 276.49 360.25C276.837 359.895 277.254 359.614 277.714 359.427C278.175 359.24 278.669 359.15 279.166 359.163C279.66 359.149 280.152 359.239 280.609 359.427C281.067 359.615 281.48 359.896 281.822 360.253C282.164 360.61 282.427 361.034 282.594 361.499C282.762 361.964 282.83 362.458 282.795 362.951C282.795 363.065 282.782 363.229 282.769 363.355ZM276.814 362.395H281.518C281.457 361.814 281.183 361.277 280.749 360.885C280.315 360.494 279.751 360.278 279.166 360.278C278.581 360.278 278.017 360.494 277.583 360.885C277.148 361.277 276.874 361.814 276.814 362.395Z" fill="white"/>
<path d="M291.671 359.251V365.565C291.671 368.153 290.343 369.353 287.878 369.353C286.619 369.407 285.381 369.023 284.375 368.267L285.007 367.244C285.816 367.872 286.815 368.206 287.84 368.191C289.572 368.191 290.368 367.396 290.368 365.729V365.148C290.041 365.523 289.634 365.82 289.177 366.016C288.719 366.213 288.223 366.305 287.726 366.284C286.784 366.284 285.88 365.911 285.213 365.245C284.547 364.58 284.173 363.677 284.173 362.736C284.173 361.795 284.547 360.893 285.213 360.227C285.88 359.562 286.784 359.188 287.726 359.188C288.246 359.172 288.763 359.278 289.235 359.498C289.707 359.717 290.121 360.043 290.444 360.451V359.314L291.671 359.251ZM290.406 362.724C290.434 362.219 290.31 361.718 290.049 361.285C289.789 360.852 289.404 360.506 288.946 360.294C288.487 360.081 287.974 360.011 287.475 360.092C286.976 360.173 286.512 360.402 286.144 360.749C285.777 361.096 285.522 361.545 285.412 362.039C285.303 362.532 285.344 363.047 285.531 363.516C285.718 363.986 286.041 364.389 286.459 364.673C286.878 364.957 287.372 365.109 287.878 365.11C288.201 365.129 288.525 365.082 288.829 364.97C289.133 364.858 289.411 364.685 289.645 364.46C289.879 364.236 290.064 363.966 290.188 363.668C290.313 363.369 290.374 363.047 290.368 362.724H290.406Z" fill="white"/>
<path d="M293.972 356.978C293.974 356.862 293.998 356.748 294.044 356.641C294.09 356.534 294.157 356.438 294.24 356.357C294.323 356.276 294.422 356.212 294.53 356.17C294.638 356.127 294.753 356.105 294.87 356.107C294.992 356.092 295.116 356.104 295.234 356.14C295.352 356.177 295.461 356.238 295.553 356.32C295.646 356.402 295.719 356.502 295.77 356.615C295.821 356.727 295.847 356.849 295.847 356.972C295.847 357.095 295.821 357.217 295.77 357.33C295.719 357.442 295.646 357.542 295.553 357.624C295.461 357.706 295.352 357.767 295.234 357.804C295.116 357.841 294.992 357.852 294.87 357.837C294.754 357.84 294.639 357.821 294.531 357.779C294.423 357.738 294.324 357.675 294.241 357.595C294.157 357.515 294.09 357.42 294.044 357.314C293.998 357.208 293.974 357.094 293.972 356.978ZM294.212 359.251H295.54V366.575H294.212V359.251Z" fill="white"/>
<path d="M297.146 365.805L297.702 364.757C298.455 365.245 299.333 365.508 300.231 365.514C301.495 365.514 301.976 365.135 301.976 364.517C301.976 362.875 297.335 364.302 297.335 361.373C297.335 360.11 298.511 359.176 300.395 359.176C301.328 359.161 302.248 359.392 303.063 359.845L302.494 360.893C301.863 360.496 301.128 360.294 300.382 360.312C299.219 360.312 298.65 360.741 298.65 361.322C298.65 363.052 303.303 361.638 303.303 364.491C303.303 365.754 302.039 366.663 300.13 366.663C299.072 366.679 298.033 366.38 297.146 365.805Z" fill="white"/>
<path d="M309.145 366.183C308.685 366.535 308.118 366.717 307.539 366.701C307.227 366.737 306.911 366.702 306.614 366.6C306.317 366.497 306.047 366.329 305.824 366.109C305.601 365.888 305.43 365.621 305.324 365.325C305.218 365.03 305.18 364.715 305.212 364.403V360.375H303.948V359.289H305.212V357.685H306.477V359.289H308.664V360.375H306.553V364.353C306.523 364.515 306.531 364.682 306.576 364.841C306.622 365 306.704 365.146 306.815 365.268C306.926 365.391 307.064 365.485 307.218 365.546C307.373 365.606 307.538 365.63 307.703 365.615C308.077 365.619 308.442 365.499 308.74 365.274L309.145 366.183Z" fill="white"/>
<path d="M317.11 363.355H311.193C311.287 363.982 311.613 364.551 312.108 364.948C312.602 365.346 313.228 365.543 313.861 365.502C314.256 365.517 314.65 365.445 315.014 365.292C315.379 365.14 315.706 364.91 315.972 364.618L316.706 365.476C316.166 366.026 315.479 366.409 314.727 366.577C313.975 366.746 313.19 366.693 312.467 366.426C311.743 366.159 311.113 365.689 310.652 365.073C310.19 364.456 309.917 363.719 309.865 362.951C309.839 362.455 309.916 361.959 310.091 361.494C310.266 361.03 310.535 360.606 310.882 360.25C311.228 359.895 311.645 359.614 312.106 359.427C312.566 359.24 313.06 359.15 313.557 359.163C314.051 359.151 314.542 359.242 314.999 359.431C315.455 359.619 315.867 359.901 316.209 360.257C316.55 360.614 316.814 361.037 316.982 361.501C317.15 361.965 317.22 362.459 317.186 362.951C317.173 363.088 317.148 363.223 317.11 363.355ZM311.193 362.395H315.909C315.836 361.822 315.557 361.295 315.122 360.913C314.688 360.531 314.13 360.321 313.551 360.321C312.973 360.321 312.414 360.531 311.98 360.913C311.546 361.295 311.266 361.822 311.193 362.395Z" fill="white"/>
<path d="M322.939 359.176V360.438H322.636C322.307 360.415 321.977 360.466 321.671 360.588C321.365 360.71 321.091 360.9 320.868 361.143C320.646 361.385 320.481 361.675 320.386 361.991C320.292 362.306 320.27 362.639 320.322 362.964V366.613H318.995V359.289H320.259V360.552C320.526 360.09 320.921 359.714 321.396 359.47C321.872 359.226 322.407 359.123 322.939 359.176Z" fill="white"/>
<g opacity="0.6">
<path d="M265.156 154.82L265.725 153.633C266.706 154.454 267.947 154.902 269.228 154.896C271.061 154.896 271.845 154.189 271.845 153.267C271.845 150.741 265.422 152.307 265.422 148.38C265.422 146.739 266.686 145.35 269.48 145.35C270.684 145.33 271.869 145.654 272.894 146.284L272.389 147.547C271.52 146.991 270.512 146.694 269.48 146.688C267.672 146.688 266.952 147.446 266.952 148.367C266.952 150.893 273.388 149.327 273.388 153.229C273.388 154.845 272.123 156.234 269.278 156.234C267.78 156.266 266.319 155.764 265.156 154.82Z" fill="#263238"/>
<path d="M275.082 145.514C275.083 145.387 275.11 145.261 275.161 145.144C275.212 145.028 275.285 144.922 275.377 144.834C275.468 144.746 275.577 144.677 275.695 144.631C275.814 144.585 275.941 144.563 276.068 144.567C276.194 144.562 276.319 144.582 276.437 144.625C276.555 144.669 276.662 144.736 276.754 144.822C276.846 144.907 276.92 145.01 276.971 145.125C277.023 145.239 277.051 145.363 277.054 145.489C277.054 145.75 276.95 146 276.765 146.185C276.58 146.37 276.33 146.473 276.068 146.473C275.806 146.473 275.556 146.37 275.371 146.185C275.186 146 275.082 145.75 275.082 145.489V145.514ZM275.335 148.039H276.801V156.07H275.335V148.039Z" fill="#263238"/>
<path d="M287.258 148.001V154.933C287.258 157.775 285.816 159.063 283.098 159.063C281.734 159.106 280.396 158.683 279.305 157.863L280 156.739C280.881 157.435 281.975 157.805 283.098 157.787C284.995 157.787 285.854 156.903 285.854 155.085V154.454C285.497 154.866 285.051 155.194 284.55 155.412C284.049 155.631 283.505 155.735 282.959 155.716C282.43 155.747 281.9 155.668 281.402 155.487C280.904 155.305 280.448 155.024 280.063 154.661C279.678 154.297 279.371 153.859 279.161 153.373C278.951 152.887 278.843 152.363 278.843 151.834C278.843 151.304 278.951 150.78 279.161 150.294C279.371 149.808 279.678 149.37 280.063 149.006C280.448 148.643 280.904 148.362 281.402 148.18C281.9 147.999 282.43 147.921 282.959 147.951C283.518 147.922 284.076 148.02 284.591 148.239C285.106 148.458 285.564 148.791 285.93 149.213V147.951L287.258 148.001ZM285.842 151.789C285.87 151.237 285.731 150.69 285.444 150.217C285.157 149.744 284.735 149.368 284.232 149.138C283.729 148.907 283.169 148.832 282.623 148.922C282.077 149.013 281.571 149.265 281.169 149.645C280.768 150.026 280.49 150.518 280.372 151.058C280.253 151.598 280.299 152.161 280.504 152.674C280.709 153.188 281.063 153.628 281.521 153.938C281.979 154.249 282.519 154.415 283.073 154.416C283.434 154.447 283.799 154.403 284.143 154.286C284.486 154.169 284.801 153.981 285.068 153.735C285.335 153.489 285.547 153.19 285.691 152.857C285.835 152.524 285.908 152.165 285.905 151.802L285.842 151.789Z" fill="#263238"/>
<path d="M297.677 151.411V156.032H296.21V151.524C296.21 149.946 295.426 149.176 294.048 149.176C293.698 149.153 293.347 149.207 293.02 149.335C292.693 149.463 292.399 149.661 292.157 149.915C291.916 150.17 291.734 150.474 291.623 150.806C291.513 151.139 291.477 151.492 291.519 151.84V155.982H290.065V147.951H291.468V149.213C291.813 148.786 292.257 148.447 292.761 148.227C293.265 148.008 293.815 147.913 294.364 147.951C294.82 147.92 295.277 147.99 295.703 148.155C296.13 148.32 296.514 148.577 296.83 148.907C297.146 149.237 297.386 149.632 297.532 150.065C297.678 150.497 297.728 150.957 297.677 151.411Z" fill="#263238"/>
<path d="M311.952 148.001V156.032H310.574V154.769C310.253 155.183 309.837 155.513 309.362 155.733C308.887 155.952 308.366 156.055 307.842 156.032C307.372 156.08 306.897 156.023 306.452 155.864C306.007 155.704 305.604 155.447 305.271 155.112C304.939 154.776 304.686 154.371 304.532 153.924C304.377 153.478 304.324 153.003 304.378 152.534V147.913H305.832V152.37C305.832 153.936 306.629 154.731 308.007 154.731C308.358 154.757 308.709 154.704 309.037 154.577C309.365 154.45 309.661 154.252 309.902 153.997C310.144 153.742 310.327 153.437 310.436 153.103C310.546 152.769 310.58 152.416 310.536 152.067V147.913L311.952 148.001Z" fill="#263238"/>
<path d="M323.053 152.017C323.082 152.559 322.997 153.101 322.804 153.608C322.61 154.116 322.313 154.577 321.931 154.964C321.549 155.35 321.091 155.652 320.585 155.851C320.079 156.051 319.538 156.142 318.994 156.12C318.461 156.141 317.929 156.038 317.442 155.819C316.955 155.6 316.526 155.271 316.187 154.858V158.999H314.733V148.039H316.124V149.302C316.458 148.862 316.894 148.51 317.393 148.275C317.893 148.039 318.442 147.928 318.994 147.951C319.535 147.927 320.074 148.017 320.578 148.213C321.082 148.409 321.539 148.708 321.921 149.09C322.303 149.473 322.601 149.931 322.796 150.435C322.991 150.938 323.078 151.477 323.053 152.017ZM321.586 152.017C321.562 151.489 321.383 150.98 321.071 150.553C320.76 150.125 320.33 149.799 319.834 149.613C319.339 149.427 318.8 149.391 318.284 149.508C317.768 149.625 317.298 149.891 316.931 150.272C316.565 150.653 316.319 151.133 316.223 151.653C316.127 152.172 316.185 152.709 316.391 153.195C316.598 153.682 316.942 154.098 317.382 154.391C317.822 154.684 318.339 154.842 318.868 154.845C319.237 154.853 319.603 154.784 319.944 154.643C320.285 154.502 320.593 154.292 320.848 154.026C321.104 153.761 321.301 153.445 321.428 153.099C321.555 152.753 321.609 152.384 321.586 152.017Z" fill="#263238"/>
</g>
<path d="M376.841 215.341H211.407V243.626H376.841V215.341Z" fill="white"/>
<g opacity="0.4">
<path d="M220.46 224.875H221.319V232.236H225.859V232.981H220.46V224.875Z" fill="#263238"/>
<path d="M231.738 229.206V232.994H230.954V232.047C230.724 232.384 230.409 232.656 230.04 232.833C229.672 233.01 229.263 233.088 228.855 233.057C227.477 233.057 226.63 232.337 226.63 231.276C226.63 230.216 227.224 229.559 228.982 229.559H230.916V229.193C230.916 228.145 230.322 227.577 229.184 227.577C228.445 227.567 227.727 227.822 227.161 228.296L226.782 227.678C227.503 227.119 228.398 226.829 229.31 226.857C229.632 226.818 229.958 226.851 230.265 226.955C230.572 227.058 230.852 227.228 231.085 227.453C231.318 227.678 231.497 227.952 231.61 228.256C231.723 228.559 231.767 228.883 231.738 229.206ZM230.916 231.15V230.153H229.007C227.818 230.153 227.439 230.62 227.439 231.251C227.439 231.883 228.008 232.388 228.982 232.388C229.394 232.413 229.803 232.307 230.151 232.084C230.499 231.862 230.767 231.535 230.916 231.15Z" fill="#263238"/>
<path d="M233.129 232.337L233.496 231.693C234.133 232.138 234.893 232.376 235.67 232.375C236.834 232.375 237.301 231.984 237.301 231.377C237.301 229.786 233.357 231.037 233.357 228.637C233.357 227.64 234.204 226.895 235.759 226.895C236.518 226.885 237.265 227.081 237.921 227.463L237.554 228.12C237.022 227.769 236.396 227.588 235.759 227.602C234.659 227.602 234.178 228.031 234.178 228.612C234.178 230.254 238.123 229.016 238.123 231.352C238.123 232.413 237.2 233.095 235.595 233.095C234.712 233.114 233.848 232.848 233.129 232.337Z" fill="#263238"/>
<path d="M242.915 232.615C242.556 232.9 242.109 233.051 241.651 233.044C241.41 233.07 241.167 233.042 240.939 232.962C240.711 232.881 240.504 232.751 240.333 232.58C240.162 232.409 240.031 232.202 239.951 231.975C239.87 231.747 239.842 231.504 239.868 231.264V227.589H238.768V226.895H239.868V225.556H240.69V226.895H242.536V227.589H240.69V231.226C240.668 231.371 240.68 231.52 240.724 231.66C240.768 231.8 240.844 231.929 240.945 232.036C241.046 232.143 241.17 232.225 241.307 232.278C241.445 232.33 241.593 232.35 241.739 232.337C242.071 232.347 242.395 232.235 242.65 232.021L242.915 232.615Z" fill="#263238"/>
<path d="M254.295 224.875V232.981H253.587L248.378 226.402V232.981H247.518V224.875H248.226L253.448 231.453V224.875H254.295Z" fill="#263238"/>
<path d="M261.426 229.206V232.994H260.617V232.047C260.389 232.386 260.074 232.659 259.705 232.837C259.336 233.014 258.926 233.09 258.518 233.057C257.14 233.057 256.293 232.337 256.293 231.276C256.293 230.216 256.9 229.559 258.657 229.559H260.617V229.193C260.617 228.145 260.023 227.577 258.885 227.577C258.146 227.567 257.428 227.822 256.862 228.296L256.482 227.678C257.203 227.116 258.098 226.826 259.011 226.857C259.332 226.82 259.657 226.855 259.962 226.959C260.267 227.063 260.546 227.234 260.777 227.459C261.008 227.683 261.187 227.957 261.299 228.259C261.411 228.561 261.455 228.885 261.426 229.206ZM260.604 231.15V230.153H258.682C257.507 230.153 257.127 230.62 257.127 231.251C257.127 231.883 257.696 232.388 258.67 232.388C259.084 232.416 259.496 232.311 259.847 232.088C260.197 231.865 260.467 231.537 260.617 231.15H260.604Z" fill="#263238"/>
<path d="M273.729 229.446V232.981H272.907V229.534C272.907 228.271 272.25 227.589 271.15 227.589C270.864 227.576 270.58 227.625 270.316 227.733C270.051 227.841 269.814 228.006 269.62 228.215C269.426 228.424 269.28 228.673 269.193 228.945C269.106 229.216 269.079 229.504 269.114 229.786V232.981H268.292V229.534C268.292 228.271 267.635 227.589 266.522 227.589C266.237 227.576 265.952 227.625 265.688 227.733C265.424 227.841 265.186 228.006 264.992 228.215C264.799 228.424 264.653 228.673 264.565 228.945C264.478 229.216 264.451 229.504 264.486 229.786V232.981H263.664V226.895H264.41V228.006C264.649 227.634 264.981 227.331 265.374 227.127C265.767 226.923 266.206 226.825 266.648 226.844C267.097 226.808 267.545 226.909 267.934 227.135C268.323 227.36 268.633 227.7 268.823 228.107C269.073 227.7 269.428 227.368 269.85 227.146C270.273 226.924 270.748 226.819 271.225 226.844C271.571 226.811 271.921 226.856 272.247 226.976C272.573 227.096 272.867 227.289 273.108 227.539C273.349 227.789 273.53 228.091 273.638 228.421C273.745 228.751 273.776 229.102 273.729 229.446Z" fill="#263238"/>
<path d="M281.303 230.191H276.245C276.263 230.488 276.339 230.778 276.469 231.046C276.6 231.313 276.782 231.552 277.005 231.749C277.228 231.946 277.488 232.098 277.77 232.194C278.052 232.291 278.35 232.331 278.647 232.312C278.999 232.323 279.348 232.258 279.671 232.12C279.994 231.983 280.284 231.777 280.519 231.516L280.974 232.047C280.536 232.504 279.972 232.822 279.354 232.961C278.736 233.1 278.091 233.054 277.499 232.829C276.907 232.604 276.394 232.21 276.025 231.696C275.656 231.182 275.447 230.57 275.423 229.938C275.402 229.536 275.464 229.134 275.606 228.757C275.747 228.379 275.964 228.035 276.244 227.745C276.523 227.455 276.86 227.225 277.232 227.071C277.604 226.916 278.004 226.839 278.407 226.844C278.81 226.836 279.21 226.912 279.582 227.067C279.953 227.221 280.289 227.451 280.567 227.742C280.845 228.033 281.06 228.378 281.197 228.756C281.335 229.134 281.392 229.537 281.366 229.938C281.315 230.014 281.303 230.102 281.303 230.191ZM276.245 229.584H280.569C280.569 229.012 280.342 228.463 279.936 228.058C279.531 227.653 278.981 227.425 278.407 227.425C277.834 227.425 277.284 227.653 276.878 228.058C276.473 228.463 276.245 229.012 276.245 229.584Z" fill="#263238"/>
</g>
<path d="M376.841 176.702H211.407V204.987H376.841V176.702Z" fill="white"/>
<g opacity="0.4">
<path d="M221.319 186.981V190.163H225.517V190.908H221.319V194.342H220.46V186.236H226.023V186.981H221.319Z" fill="#263238"/>
<path d="M227.325 186.324C227.323 186.203 227.357 186.084 227.422 185.983C227.488 185.881 227.583 185.802 227.694 185.754C227.806 185.707 227.929 185.694 228.048 185.717C228.166 185.74 228.276 185.798 228.361 185.883C228.447 185.969 228.505 186.078 228.528 186.197C228.551 186.315 228.538 186.438 228.491 186.549C228.443 186.661 228.363 186.755 228.262 186.821C228.16 186.886 228.041 186.92 227.92 186.918C227.762 186.918 227.611 186.855 227.5 186.744C227.388 186.633 227.325 186.482 227.325 186.324ZM227.502 188.256H228.324V194.342H227.502V188.256Z" fill="#263238"/>
<path d="M233.698 188.206V189.001H233.496C233.205 188.987 232.915 189.037 232.646 189.148C232.378 189.259 232.137 189.428 231.941 189.643C231.745 189.858 231.599 190.113 231.514 190.391C231.429 190.668 231.406 190.961 231.447 191.249V194.355H230.625V188.269H231.409V189.405C231.628 189.001 231.963 188.67 232.37 188.457C232.778 188.243 233.24 188.156 233.698 188.206Z" fill="#263238"/>
<path d="M234.381 193.648L234.747 192.991C235.379 193.449 236.142 193.692 236.922 193.686C238.085 193.686 238.553 193.282 238.553 192.688C238.553 191.097 234.608 192.347 234.608 189.936C234.608 188.951 235.455 188.206 237.011 188.206C237.77 188.189 238.52 188.386 239.173 188.774L238.806 189.43C238.274 189.08 237.648 188.899 237.011 188.913C235.911 188.913 235.43 189.342 235.43 189.923C235.43 191.564 239.375 190.327 239.375 192.663C239.375 193.711 238.452 194.393 236.846 194.393C235.966 194.416 235.101 194.155 234.381 193.648Z" fill="#263238"/>
<path d="M244.18 193.976C243.816 194.252 243.371 194.399 242.915 194.393C242.676 194.421 242.432 194.395 242.204 194.316C241.976 194.237 241.769 194.108 241.597 193.938C241.426 193.768 241.295 193.562 241.215 193.335C241.134 193.107 241.106 192.865 241.132 192.625V188.951H240.032V188.256H241.132V186.88H241.954V188.218H243.8V188.913H241.954V192.537C241.933 192.683 241.945 192.832 241.989 192.972C242.033 193.113 242.108 193.242 242.209 193.35C242.31 193.458 242.434 193.542 242.571 193.596C242.709 193.649 242.857 193.672 243.004 193.661C243.335 193.665 243.657 193.553 243.914 193.345L244.18 193.976Z" fill="#263238"/>
<path d="M255.559 186.236V194.342H254.851L249.642 187.764V194.342H248.782V186.236H249.49L254.712 192.815V186.236H255.559Z" fill="#263238"/>
<path d="M262.678 190.567V194.355H261.881V193.408C261.655 193.745 261.342 194.016 260.975 194.191C260.608 194.367 260.2 194.441 259.795 194.406C258.404 194.406 257.557 193.698 257.557 192.638C257.557 191.577 258.164 190.92 259.922 190.92H261.881V190.542C261.881 189.506 261.287 188.938 260.149 188.938C259.41 188.928 258.692 189.184 258.126 189.658L257.747 189.039C258.468 188.479 259.362 188.188 260.276 188.218C260.596 188.181 260.92 188.216 261.225 188.32C261.53 188.424 261.808 188.595 262.038 188.82C262.268 189.045 262.445 189.319 262.556 189.621C262.667 189.923 262.708 190.247 262.678 190.567ZM261.856 192.511V191.514H259.934C258.758 191.514 258.379 191.981 258.379 192.6C258.379 193.219 258.948 193.749 259.922 193.749C260.338 193.778 260.752 193.673 261.104 193.451C261.457 193.228 261.729 192.899 261.881 192.511H261.856Z" fill="#263238"/>
<path d="M274.981 190.807V194.342H274.159V190.895C274.159 189.633 273.501 188.951 272.401 188.951C272.116 188.937 271.831 188.987 271.567 189.095C271.303 189.203 271.066 189.367 270.872 189.577C270.678 189.786 270.532 190.035 270.445 190.306C270.357 190.578 270.33 190.865 270.365 191.148V194.342H269.544V190.895C269.544 189.633 268.886 188.951 267.773 188.951C267.488 188.937 267.204 188.987 266.939 189.095C266.675 189.203 266.438 189.367 266.244 189.577C266.05 189.786 265.904 190.035 265.817 190.306C265.729 190.578 265.702 190.865 265.738 191.148V194.342H264.916V188.256H265.675V189.405C265.913 189.033 266.245 188.73 266.638 188.526C267.031 188.322 267.47 188.225 267.913 188.244C268.361 188.207 268.81 188.308 269.198 188.534C269.587 188.76 269.898 189.099 270.087 189.506C270.335 189.097 270.689 188.764 271.113 188.541C271.536 188.319 272.012 188.216 272.49 188.244C272.831 188.213 273.175 188.259 273.496 188.378C273.818 188.497 274.108 188.686 274.347 188.932C274.586 189.178 274.767 189.473 274.876 189.798C274.986 190.122 275.021 190.467 274.981 190.807Z" fill="#263238"/>
<path d="M282.554 191.552H277.497C277.514 191.849 277.591 192.139 277.721 192.407C277.852 192.674 278.034 192.914 278.257 193.111C278.48 193.308 278.74 193.459 279.022 193.555C279.304 193.652 279.602 193.692 279.899 193.673C280.251 193.685 280.602 193.618 280.925 193.478C281.249 193.339 281.537 193.129 281.77 192.865L282.226 193.408C281.787 193.865 281.224 194.183 280.606 194.322C279.988 194.461 279.343 194.415 278.75 194.19C278.158 193.966 277.646 193.571 277.277 193.057C276.907 192.543 276.698 191.932 276.675 191.299C276.654 190.897 276.716 190.495 276.857 190.118C276.998 189.741 277.215 189.396 277.495 189.106C277.775 188.816 278.111 188.587 278.483 188.432C278.856 188.277 279.256 188.2 279.659 188.206C280.061 188.198 280.461 188.274 280.833 188.428C281.205 188.583 281.54 188.813 281.819 189.103C282.097 189.394 282.311 189.74 282.449 190.118C282.586 190.496 282.644 190.898 282.618 191.299C282.567 191.362 282.554 191.451 282.554 191.552ZM277.497 190.933H281.821C281.821 190.36 281.593 189.811 281.188 189.406C280.782 189.001 280.232 188.774 279.659 188.774C279.085 188.774 278.535 189.001 278.13 189.406C277.724 189.811 277.497 190.36 277.497 190.933Z" fill="#263238"/>
</g>
<path d="M149.16 417.045H147.959C147.959 415.265 149.438 373.545 156.709 366.537C164.181 359.277 172.969 366.436 173.045 366.537L172.286 367.446C171.957 367.181 164.232 360.918 157.531 367.446C150.614 374.025 149.173 416.616 149.16 417.045Z" fill="#407BFF"/>
<path d="M148.553 425.417L147.365 425.303C147.365 424.798 152.068 374.644 133.874 353.784L134.771 353.001C153.307 374.252 148.604 424.912 148.553 425.417Z" fill="#407BFF"/>
<path d="M149.135 420.063C148.983 417.689 145.481 361.979 159.465 349.099L160.274 349.983C146.707 362.433 150.285 419.432 150.323 419.975L149.135 420.063Z" fill="#407BFF"/>
<path d="M147.365 420.025C147.365 419.646 146.935 382.144 136.984 376.5C136.138 375.943 135.17 375.597 134.163 375.491C133.155 375.386 132.136 375.524 131.193 375.894C125.364 378.305 122.266 389.417 122.228 389.531L121.078 389.215C121.204 388.735 124.365 377.434 130.738 374.795C131.848 374.35 133.049 374.178 134.24 374.295C135.431 374.411 136.576 374.812 137.578 375.464C148.111 381.487 148.553 418.396 148.566 420.012L147.365 420.025Z" fill="#407BFF"/>
<path d="M151.461 420.05C151.386 418.788 149.856 390.453 157.91 379.934C160.059 377.144 162.436 375.818 165.016 376.007C170.744 376.399 175.131 384.152 175.371 384.48L174.334 385.073C174.334 384.998 170.01 377.497 164.927 377.194C162.79 377.03 160.742 378.204 158.858 380.667C151.069 390.768 152.637 419.697 152.65 419.987L151.461 420.05Z" fill="#407BFF"/>
<path d="M149.856 423.977L148.667 423.889C148.667 423.207 153.725 355.552 145.38 344.263L146.341 343.556C154.964 355.198 150.071 421.174 149.856 423.977Z" fill="#407BFF"/>
<path d="M128.424 381.525C128.424 381.525 133.583 383.432 132.053 387.915C130.523 392.397 114.187 399.784 114.187 399.784C114.187 399.784 107.347 393.534 113.631 383.369C119.915 373.204 128.285 378.318 128.424 381.525Z" fill="#407BFF"/>
<path opacity="0.2" d="M128.424 381.525C128.424 381.525 133.583 383.432 132.053 387.915C130.523 392.397 114.187 399.784 114.187 399.784C114.187 399.784 107.347 393.534 113.631 383.369C119.915 373.204 128.285 378.318 128.424 381.525Z" fill="black"/>
<path d="M150.867 372.989C150.867 372.989 145.367 372.762 145.051 377.485C144.735 382.207 156.936 395.314 156.936 395.314C156.936 395.314 165.661 392.157 163.789 380.351C161.918 368.545 152.233 370.073 150.867 372.989Z" fill="#407BFF"/>
<path opacity="0.2" d="M150.867 372.989C150.867 372.989 145.367 372.762 145.051 377.485C144.735 382.207 156.936 395.314 156.936 395.314C156.936 395.314 165.661 392.157 163.789 380.351C161.918 368.545 152.233 370.073 150.867 372.989Z" fill="black"/>
<path d="M155.52 350.337C155.52 350.337 151.853 349.945 152.144 347.723C152.435 345.5 166.394 339.755 174.625 348.985C174.625 348.985 169.353 358.026 161.741 358.153C154.129 358.279 155.52 350.337 155.52 350.337Z" fill="#407BFF"/>
<path opacity="0.2" d="M155.52 350.337C155.52 350.337 151.853 349.945 152.144 347.723C152.435 345.5 166.394 339.755 174.625 348.985C174.625 348.985 169.353 358.026 161.741 358.153C154.129 358.279 155.52 350.337 155.52 350.337Z" fill="black"/>
<path d="M148.692 344.92C148.692 344.92 152.005 346.523 152.941 344.478C153.876 342.432 145.064 330.196 133.166 333.719C133.166 333.719 132.849 344.175 139.247 348.304C145.645 352.433 148.692 344.92 148.692 344.92Z" fill="#407BFF"/>
<path opacity="0.2" d="M148.692 344.92C148.692 344.92 152.005 346.523 152.941 344.478C153.876 342.432 145.064 330.196 133.166 333.719C133.166 333.719 132.849 344.175 139.247 348.304C145.645 352.433 148.692 344.92 148.692 344.92Z" fill="black"/>
<path d="M166.04 379.732C166.04 379.732 163.511 377.687 166.242 376.689C168.973 375.692 182.363 375.982 182.503 389.228C182.503 389.228 166.9 391.816 164.978 386.766C163.056 381.715 166.04 379.732 166.04 379.732Z" fill="#407BFF"/>
<path opacity="0.2" d="M166.04 379.732C166.04 379.732 163.511 377.687 166.242 376.689C168.973 375.692 182.363 375.982 182.503 389.228C182.503 389.228 166.9 391.816 164.978 386.766C163.056 381.715 166.04 379.732 166.04 379.732Z" fill="black"/>
<path d="M134.177 350.008C134.177 350.008 136.706 347.963 133.975 346.978C131.244 345.993 117.854 346.258 117.715 359.504C117.715 359.504 133.317 362.105 135.239 357.054C137.161 352.003 134.177 350.008 134.177 350.008Z" fill="#407BFF"/>
<path opacity="0.2" d="M134.177 350.008C134.177 350.008 136.706 347.963 133.975 346.978C131.244 345.993 117.854 346.258 117.715 359.504C117.715 359.504 133.317 362.105 135.239 357.054C137.161 352.003 134.177 350.008 134.177 350.008Z" fill="black"/>
<path d="M142.472 360.678C142.472 360.678 142.699 358.153 140.689 359.176C138.678 360.198 131.712 367.673 138.944 374.808C138.944 374.808 148.692 367.598 146.935 363.847C145.177 360.097 142.472 360.678 142.472 360.678Z" fill="#407BFF"/>
<path opacity="0.2" d="M142.472 360.678C142.472 360.678 142.699 358.153 140.689 359.176C138.678 360.198 131.712 367.673 138.944 374.808C138.944 374.808 148.692 367.598 146.935 363.847C145.177 360.097 142.472 360.678 142.472 360.678Z" fill="black"/>
<path d="M168.316 364.214C168.316 364.214 166.799 362.231 169.024 361.991C171.249 361.751 181.162 364.39 178.848 374.29C178.848 374.29 166.761 373.381 166.204 369.239C165.648 365.098 168.316 364.214 168.316 364.214Z" fill="#407BFF"/>
<path opacity="0.2" d="M168.316 364.214C168.316 364.214 166.799 362.231 169.024 361.991C171.249 361.751 181.162 364.39 178.848 374.29C178.848 374.29 166.761 373.381 166.204 369.239C165.648 365.098 168.316 364.214 168.316 364.214Z" fill="black"/>
<path d="M129.322 456.744H168.404L173.601 418.788H124.125L129.322 456.744Z" fill="#263238"/>
<path opacity="0.2" d="M129.322 456.744H168.404L173.601 418.788H124.125L129.322 456.744Z" fill="white"/>
<path d="M178.507 415.707V419.318C178.507 420.477 178.046 421.588 177.226 422.407C176.405 423.227 175.292 423.687 174.132 423.687H123.114C121.953 423.687 120.841 423.227 120.02 422.407C119.2 421.588 118.739 420.477 118.739 419.318V415.707H178.507Z" fill="#263238"/>
<path d="M504.166 55.9503H467.84C464.875 55.9503 462.032 57.1263 459.936 59.2197C457.84 61.313 456.662 64.1522 456.662 67.1126V98.6801C456.661 100.147 456.949 101.6 457.51 102.956C458.071 104.311 458.894 105.543 459.932 106.581C460.97 107.619 462.203 108.442 463.559 109.004C464.916 109.566 466.371 109.855 467.84 109.855H478.448L475.919 119.818L486.035 109.855H504.229C507.197 109.855 510.043 108.678 512.142 106.582C514.24 104.486 515.419 101.644 515.419 98.6801V67.1126C515.419 65.6403 515.128 64.1826 514.561 62.8234C513.995 61.4642 513.165 60.2303 512.119 59.1928C511.073 58.1552 509.832 57.3346 508.467 56.7781C507.102 56.2217 505.64 55.9403 504.166 55.9503Z" fill="#407BFF"/>
<path opacity="0.7" d="M504.166 55.9503H467.84C464.875 55.9503 462.032 57.1263 459.936 59.2197C457.84 61.313 456.662 64.1522 456.662 67.1126V98.6801C456.661 100.147 456.949 101.6 457.51 102.956C458.071 104.311 458.894 105.543 459.932 106.581C460.97 107.619 462.203 108.442 463.559 109.004C464.916 109.566 466.371 109.855 467.84 109.855H478.448L475.919 119.818L486.035 109.855H504.229C507.197 109.855 510.043 108.678 512.142 106.582C514.24 104.486 515.419 101.644 515.419 98.6801V67.1126C515.419 65.6403 515.128 64.1826 514.561 62.8234C513.995 61.4642 513.165 60.2303 512.119 59.1928C511.073 58.1552 509.832 57.3346 508.467 56.7781C507.102 56.2217 505.64 55.9403 504.166 55.9503Z" fill="white"/>
<path d="M486.009 96.8492C493.795 96.8492 500.107 90.5458 500.107 82.7701C500.107 74.9944 493.795 68.6909 486.009 68.6909C478.223 68.6909 471.911 74.9944 471.911 82.7701C471.911 90.5458 478.223 96.8492 486.009 96.8492Z" fill="white"/>
<path d="M486.009 64.764C482.443 64.764 478.957 65.82 475.992 67.7985C473.027 69.7771 470.716 72.5892 469.351 75.8794C467.987 79.1696 467.63 82.79 468.325 86.2829C469.021 89.7757 470.738 92.9841 473.26 95.5023C475.781 98.0205 478.994 99.7354 482.492 100.43C485.989 101.125 489.614 100.768 492.909 99.4056C496.204 98.0427 499.02 95.7348 501.001 92.7737C502.982 89.8126 504.039 86.3314 504.039 82.7701C504.041 80.405 503.576 78.0628 502.67 75.8775C501.765 73.6921 500.437 71.7065 498.762 70.0341C497.088 68.3618 495.099 67.0355 492.911 66.1312C490.723 65.2269 488.377 64.7623 486.009 64.764ZM496.238 77.391L485.377 90.1695C485.223 90.3542 485.029 90.5021 484.81 90.6026C484.592 90.7031 484.353 90.7536 484.113 90.7504C483.872 90.7518 483.634 90.7005 483.416 90.6002C483.197 90.4998 483.004 90.3528 482.848 90.1695L475.78 81.8483C475.631 81.6838 475.516 81.4909 475.443 81.2812C475.37 81.0714 475.34 80.8492 475.355 80.6276C475.369 80.406 475.429 80.1897 475.529 79.9915C475.629 79.7933 475.768 79.6172 475.938 79.4739C476.108 79.3306 476.305 79.2229 476.518 79.1572C476.73 79.0916 476.953 79.0693 477.175 79.0917C477.396 79.1141 477.61 79.1808 477.805 79.2878C478 79.3948 478.171 79.5398 478.309 79.7143L484.113 86.5456L493.709 75.257C493.998 74.9393 494.398 74.7459 494.827 74.7174C495.255 74.689 495.678 74.8277 496.006 75.1045C496.334 75.3812 496.541 75.7742 496.584 76.2008C496.628 76.6273 496.504 77.0541 496.238 77.391Z" fill="#407BFF"/>
<path d="M497.869 250.722C497.869 250.722 475.856 247.944 442.501 257.036C442.501 257.036 437.14 197.512 437.772 189.33C438.404 181.147 489.271 183.546 489.271 183.546C489.271 183.546 490.536 207.374 493.848 221.743C497.161 236.113 499.589 247.957 497.869 250.722Z" fill="#407BFF"/>
<path opacity="0.2" d="M497.869 250.722C497.869 250.722 475.856 247.944 442.501 257.036C442.501 257.036 437.14 197.512 437.772 189.33C438.404 181.147 489.271 183.546 489.271 183.546C489.271 183.546 490.536 207.374 493.848 221.743C497.161 236.113 499.589 247.957 497.869 250.722Z" fill="black"/>
<path d="M426.418 447.779L435.395 450.317L437.532 436.364L438.683 428.902L429.705 426.364L428.175 436.364L426.418 447.779Z" fill="#E4897B"/>
<path d="M478.031 448.512L487.286 449.736L487.375 436.364L487.438 428.056L478.17 426.844L478.107 436.364L478.031 448.512Z" fill="#E4897B"/>
<path opacity="0.2" d="M478.17 426.844L478.107 436.364H487.375L487.438 428.056L478.17 426.844Z" fill="black"/>
<path opacity="0.2" d="M428.175 436.364H437.532L438.682 428.902L429.705 426.364L428.175 436.364Z" fill="black"/>
<path d="M386.564 194.216L377.65 191.59L379.281 201.754C379.281 201.754 387.373 203.611 388.132 199.406L386.564 194.216Z" fill="#E4897B"/>
<path d="M368.749 193.951L373.123 202.209L379.281 201.754L377.65 191.59L368.749 193.951Z" fill="#E4897B"/>
<path d="M398.867 196.817L384.225 193.547L382.897 200.643L396.186 203.876L398.867 196.817Z" fill="#E4897B"/>
<path d="M443.159 190.403L442.299 191.426C440.453 193.585 435.977 198.8 431.311 203.295C427.518 206.957 423.725 210.151 421.196 210.795C414.027 212.639 387.968 204.974 387.968 204.974L390.661 194.418C390.661 194.418 414.937 197.638 416.821 197.638C418.25 197.638 433.018 176.273 436.596 174.518L443.159 190.403Z" fill="#407BFF"/>
<path opacity="0.2" d="M442.299 191.426C440.453 193.585 435.977 198.8 431.311 203.295C432.247 195.896 434.965 189.102 438.544 184.809C438.877 184.395 439.259 184.022 439.681 183.698L442.299 191.426Z" fill="black"/>
<path d="M426.532 446.378L436.723 446.112C436.907 446.107 437.087 446.164 437.234 446.274C437.381 446.384 437.486 446.541 437.532 446.719L439.681 454.914C439.733 455.11 439.739 455.315 439.7 455.514C439.662 455.713 439.578 455.901 439.457 456.063C439.335 456.226 439.179 456.359 438.999 456.453C438.819 456.547 438.62 456.599 438.417 456.606C434.738 456.606 429.415 456.606 424.8 456.694C419.388 456.845 415.949 456.58 409.627 456.694C405.834 456.795 404.569 452.982 406.188 452.59C413.433 450.797 418.174 451.151 424.344 447.11C424.996 446.677 425.75 446.424 426.532 446.378Z" fill="#263238"/>
<path d="M425.647 447.691C424.155 448.019 421.499 448.461 420.437 447.59C420.283 447.462 420.161 447.299 420.081 447.114C420.002 446.93 419.968 446.729 419.982 446.529C419.982 446.409 420.013 446.291 420.073 446.187C420.133 446.082 420.219 445.996 420.324 445.936C421.449 445.266 425.255 447.072 425.697 447.274C425.736 447.295 425.768 447.326 425.791 447.364C425.813 447.402 425.824 447.445 425.824 447.489C425.822 447.538 425.803 447.584 425.771 447.621C425.739 447.658 425.695 447.682 425.647 447.691ZM420.589 446.289H420.513C420.471 446.314 420.436 446.349 420.412 446.391C420.387 446.433 420.374 446.481 420.374 446.529C420.364 446.66 420.385 446.791 420.435 446.912C420.486 447.032 420.565 447.139 420.665 447.224C421.259 447.716 422.802 447.767 424.85 447.363C423.371 446.744 421.31 446.024 420.614 446.289H420.589Z" fill="#407BFF"/>
<path d="M425.647 447.691H425.495C424.344 447.211 422.043 445.267 422.17 444.218C422.17 443.966 422.372 443.65 422.979 443.575C423.202 443.545 423.428 443.561 423.645 443.619C423.862 443.678 424.065 443.778 424.243 443.915C425.508 444.862 425.798 447.35 425.824 447.451C425.827 447.489 425.821 447.528 425.806 447.563C425.79 447.599 425.766 447.63 425.735 447.653L425.647 447.691ZM422.814 444.067C422.625 444.13 422.612 444.231 422.612 444.269C422.536 444.9 424.104 446.441 425.28 447.097C425.144 446.037 424.675 445.046 423.94 444.269C423.815 444.164 423.669 444.087 423.512 444.044C423.355 444 423.19 443.991 423.029 444.016C422.956 444.023 422.883 444.04 422.814 444.067Z" fill="#407BFF"/>
<path d="M478.397 446.378L488.588 446.112C488.774 446.106 488.956 446.162 489.105 446.272C489.254 446.383 489.362 446.54 489.41 446.719L491.547 454.913C491.601 455.11 491.609 455.316 491.572 455.516C491.534 455.716 491.451 455.905 491.329 456.068C491.207 456.231 491.049 456.364 490.868 456.457C490.687 456.551 490.487 456.601 490.283 456.606C486.603 456.606 481.28 456.606 476.653 456.694C471.254 456.845 467.802 456.58 461.48 456.694C457.686 456.795 456.422 452.982 458.041 452.59C465.286 450.797 470.014 451.151 476.185 447.11C476.843 446.672 477.607 446.419 478.397 446.378Z" fill="#263238"/>
<path d="M477.525 447.691C476.033 448.019 473.365 448.461 472.316 447.59C472.161 447.462 472.039 447.299 471.96 447.114C471.88 446.93 471.847 446.729 471.86 446.529C471.86 446.409 471.891 446.291 471.951 446.187C472.011 446.082 472.098 445.996 472.202 445.936C473.315 445.266 477.133 447.072 477.563 447.274C477.605 447.291 477.64 447.321 477.663 447.36C477.686 447.399 477.695 447.444 477.689 447.489C477.686 447.535 477.668 447.58 477.639 447.616C477.61 447.652 477.57 447.678 477.525 447.691ZM472.467 446.289H472.392C472.35 446.313 472.316 446.348 472.293 446.391C472.271 446.433 472.261 446.481 472.265 446.529C472.252 446.66 472.272 446.792 472.323 446.913C472.374 447.034 472.454 447.141 472.556 447.224C473.15 447.716 474.68 447.767 476.741 447.363C475.236 446.744 473.175 446.024 472.48 446.289H472.467Z" fill="#407BFF"/>
<path d="M477.525 447.691H477.361C476.223 447.211 473.909 445.266 474.048 444.218C474.048 443.966 474.238 443.65 474.845 443.574C475.067 443.544 475.294 443.558 475.511 443.617C475.729 443.676 475.932 443.777 476.109 443.915C476.994 444.9 477.546 446.136 477.689 447.451C477.696 447.49 477.691 447.529 477.675 447.565C477.66 447.601 477.634 447.631 477.601 447.653L477.525 447.691ZM474.68 444.067C474.503 444.13 474.491 444.231 474.491 444.269C474.402 444.9 475.983 446.441 477.158 447.097C477.014 446.039 476.546 445.052 475.818 444.269C475.693 444.165 475.547 444.089 475.39 444.045C475.233 444.002 475.069 443.992 474.908 444.016L474.68 444.067Z" fill="#407BFF"/>
<path d="M497.123 245.292C502.029 266.518 493.608 433.511 493.608 433.511H477.348L470.394 294.348L444.79 433.511L427.404 432.248C438.784 324.439 448.81 260.079 448.81 260.079V251.947L497.123 245.292Z" fill="#263238"/>
<path opacity="0.4" d="M427.404 432.248L444.79 433.511L464.944 323.959L470.394 294.348L477.348 433.511H493.608C493.608 433.511 502.029 266.518 497.123 245.292L448.785 251.947V260.079C448.785 260.079 438.771 324.439 427.404 432.248Z" fill="white"/>
<path d="M488.361 166.677C487.862 176.825 488.12 186.997 489.132 197.108C489.815 204.179 490.751 210.859 491.749 216.882C494.089 231.011 496.744 241.605 497.123 245.305L448.785 251.959C431.159 202.714 437.798 174.101 437.798 174.101C441.412 172.611 445.115 171.346 448.886 170.313C449.683 170.099 450.492 169.897 451.327 169.707C458.116 168.373 464.976 167.429 471.873 166.879C473.137 166.765 474.516 166.677 475.805 166.613C482.406 166.285 488.361 166.677 488.361 166.677Z" fill="#263238"/>
<path d="M462.491 144.516C462.845 151.272 463.566 163.949 469.193 167.169C469.193 167.169 465.69 173.824 458.116 174.505C452.389 175.01 452.768 169.366 452.768 169.366C456.081 166.904 455.297 162.724 452.768 158.002L462.491 144.516Z" fill="#E4897B"/>
<path opacity="0.2" d="M458.521 150.022L452.806 158.002C453.408 159.093 453.915 160.234 454.323 161.411C456.978 160.35 460.026 156.36 459.583 153.469C459.445 152.264 459.084 151.096 458.521 150.022Z" fill="black"/>
<path d="M437.836 130.917C436.735 134.427 437.342 141.625 442.236 139.289C447.129 136.953 439.732 124.894 437.836 130.917Z" fill="#263238"/>
<path d="M463.123 135.665C463.667 144.668 464.388 149.908 460.456 155.009C454.475 162.674 442.893 159.82 439.656 151.133C436.748 143.304 436.356 129.894 444.714 125.348C446.566 124.342 448.644 123.821 450.753 123.835C452.862 123.849 454.933 124.396 456.773 125.427C458.612 126.458 460.159 127.938 461.27 129.728C462.381 131.518 463.018 133.561 463.123 135.665Z" fill="#E4897B"/>
<path d="M456.802 130.765V120.664C456.802 120.664 467.524 119.868 467.043 125.348C472.986 128.29 470.179 137.521 462.2 142.041C457.826 138.544 458.331 130.134 458.331 130.134C457.864 130.374 457.333 130.576 456.802 130.765Z" fill="#263238"/>
<path d="M467.486 142.685C467.279 143.787 466.854 144.836 466.235 145.77C465.616 146.705 464.816 147.506 463.882 148.128C461.353 149.782 459.166 147.749 459.077 144.908C459.002 142.382 460.203 138.392 463.111 137.887C463.747 137.788 464.398 137.848 465.005 138.062C465.612 138.275 466.157 138.636 466.59 139.111C467.024 139.587 467.332 140.162 467.489 140.786C467.645 141.409 467.644 142.062 467.486 142.685Z" fill="#E4897B"/>
<path d="M449.809 139.68C449.898 140.412 449.582 141.044 449.101 141.094C448.621 141.145 448.166 140.602 448.077 139.832C447.989 139.061 448.305 138.468 448.773 138.417C449.24 138.367 449.721 138.897 449.809 139.68Z" fill="#263238"/>
<path d="M441.54 140.602C441.629 141.334 441.313 141.966 440.832 142.016C440.352 142.067 439.896 141.524 439.808 140.753C439.719 139.983 440.036 139.39 440.516 139.339C440.996 139.289 441.426 139.869 441.54 140.602Z" fill="#263238"/>
<path d="M444.208 140.665C443.569 142.923 442.62 145.082 441.388 147.079C441.934 147.359 442.532 147.521 443.145 147.554C443.757 147.586 444.369 147.489 444.941 147.269L444.208 140.665Z" fill="#DE5753"/>
<path d="M449.202 149.618C448.89 149.697 448.574 149.756 448.254 149.794C448.197 149.794 448.142 149.772 448.102 149.731C448.062 149.691 448.039 149.637 448.039 149.58C448.039 149.523 448.062 149.468 448.102 149.428C448.142 149.388 448.197 149.365 448.254 149.365C449.162 149.283 450.038 148.988 450.811 148.506C451.584 148.023 452.233 147.366 452.705 146.587C452.716 146.562 452.732 146.538 452.752 146.519C452.772 146.5 452.796 146.486 452.822 146.476C452.848 146.467 452.876 146.463 452.903 146.464C452.931 146.466 452.958 146.473 452.983 146.486C453.009 146.498 453.032 146.515 453.051 146.537C453.071 146.558 453.085 146.583 453.095 146.61C453.104 146.637 453.108 146.666 453.106 146.694C453.105 146.723 453.097 146.751 453.084 146.776C452.671 147.494 452.112 148.117 451.443 148.606C450.775 149.095 450.012 149.44 449.202 149.618Z" fill="#263238"/>
<path d="M452.035 136.738C451.958 136.756 451.879 136.753 451.803 136.731C451.728 136.709 451.66 136.668 451.605 136.612C451.239 136.211 450.784 135.901 450.277 135.706C449.77 135.511 449.225 135.436 448.684 135.488C448.628 135.501 448.57 135.502 448.514 135.492C448.458 135.481 448.404 135.459 448.357 135.427C448.31 135.395 448.269 135.354 448.238 135.306C448.208 135.257 448.187 135.203 448.178 135.147C448.167 135.091 448.167 135.034 448.179 134.979C448.19 134.923 448.212 134.87 448.244 134.823C448.275 134.777 448.316 134.736 448.364 134.705C448.411 134.674 448.464 134.652 448.52 134.642C449.202 134.561 449.894 134.643 450.539 134.883C451.183 135.122 451.761 135.511 452.224 136.018C452.266 136.057 452.299 136.104 452.321 136.156C452.344 136.208 452.355 136.265 452.355 136.321C452.355 136.378 452.344 136.434 452.321 136.486C452.299 136.538 452.266 136.585 452.224 136.624C452.17 136.676 452.106 136.715 452.035 136.738Z" fill="#263238"/>
<path d="M437.633 138.165C437.552 138.196 437.462 138.196 437.38 138.165C437.273 138.128 437.185 138.05 437.136 137.948C437.086 137.846 437.078 137.729 437.115 137.622C437.324 136.972 437.687 136.382 438.173 135.903C438.66 135.423 439.255 135.069 439.909 134.869C440.02 134.841 440.137 134.857 440.236 134.915C440.334 134.973 440.405 135.068 440.434 135.179C440.462 135.289 440.446 135.406 440.388 135.505C440.329 135.603 440.235 135.674 440.124 135.703C439.607 135.862 439.137 136.145 438.756 136.528C438.374 136.912 438.093 137.382 437.937 137.9C437.913 137.966 437.872 138.025 437.819 138.071C437.766 138.118 437.702 138.15 437.633 138.165Z" fill="#263238"/>
<path d="M461.556 134.503C461.556 134.503 455.234 132.192 452.351 128.53C452.351 128.53 446.61 130.033 445.435 132.319C444.898 131.86 444.551 131.219 444.46 130.519C444.369 129.819 444.54 129.111 444.941 128.53C444.941 128.53 440.642 129.44 439.795 132.319C439.097 131.986 438.523 131.439 438.159 130.757C437.795 130.075 437.659 129.295 437.772 128.53C437.772 128.53 435.863 129.25 435.243 132.319C435.243 132.319 430.502 122.444 446.168 119.616C444.983 119.214 443.74 119.005 442.489 118.997C442.489 118.997 453.426 114.59 462.087 118.618C470.748 122.646 469.243 130.45 461.556 134.503Z" fill="#263238"/>
<path d="M500.853 253.803L485.68 255.823C485.68 255.823 479.422 212.146 476.665 198.042V167.939L484.593 165.856L490.738 167.939C492.423 173.996 493.72 180.153 494.62 186.375C495.366 191.097 496.036 196.148 496.63 201.262C497.452 208.232 498.135 215.328 498.716 221.97C499.627 232.691 500.234 242.174 500.562 247.969C500.752 251.606 500.853 253.803 500.853 253.803Z" fill="#407BFF"/>
<path d="M476.678 198.017C476.678 198.017 477.942 176.766 484.606 165.805C484.606 165.805 484.441 162.674 483.114 162.169C481.786 161.664 476.678 164.694 476.678 164.694C476.678 164.694 473.504 162.522 472.809 163.533C472.113 164.543 470.419 171.26 476.678 198.017Z" fill="#407BFF"/>
<path opacity="0.7" d="M476.678 198.017C476.678 198.017 477.942 176.766 484.606 165.805C484.606 165.805 484.441 162.674 483.114 162.169C481.786 161.664 476.678 164.694 476.678 164.694C476.678 164.694 473.504 162.522 472.809 163.533C472.113 164.543 470.419 171.26 476.678 198.017Z" fill="white"/>
<path d="M442.185 259.624L443.917 260.887C443.917 260.887 441.388 246.808 442.425 211.199C442.425 209.482 442.539 207.828 442.602 206.25C443.867 176.122 448.57 170.642 448.924 170.313L444.549 171.803L436.622 174.531C434.232 200.227 442.185 259.624 442.185 259.624Z" fill="#407BFF"/>
<path d="M442.868 201.06C442.868 201.06 438.493 180.402 439.795 173.281C441.098 166.159 445.763 169.328 445.763 169.328C445.763 169.328 450.05 165.868 451.327 169.682C451.327 169.682 445.435 173.824 442.868 201.06Z" fill="#407BFF"/>
<path opacity="0.7" d="M442.868 201.06C442.868 201.06 438.493 180.402 439.795 173.281C441.098 166.159 445.763 169.328 445.763 169.328C445.763 169.328 450.05 165.868 451.327 169.682C451.327 169.682 445.435 173.824 442.868 201.06Z" fill="white"/>
<path opacity="0.2" d="M496.605 201.212C490.131 197.588 489.271 188.13 489.271 188.13C489.663 187.978 492.066 187.158 494.594 186.324C495.34 191.047 496.011 196.098 496.605 201.212Z" fill="black"/>
<path opacity="0.2" d="M464.944 323.959L470.394 294.348L469.344 278.678C469.344 278.678 461.872 305.852 464.944 323.959Z" fill="black"/>
<path opacity="0.2" d="M500.537 247.919C496.466 247.641 492.951 247.376 492.951 247.376L492.179 230.847C493.448 230.054 494.972 229.774 496.44 230.064C497.441 227.424 498.198 224.698 498.704 221.92C499.589 232.64 500.208 242.136 500.537 247.919Z" fill="black"/>
<path d="M501.928 221.907L494 234.623L500.272 238.221L507.719 226.769L501.928 221.907Z" fill="#E4897B"/>
<path d="M490.397 167.737C495.733 168.318 518.416 199.406 519.415 208.775C520.414 218.144 506.088 234.32 506.088 234.32L496.529 228.701C496.529 228.701 506.24 213.788 506.745 209.76C507.251 205.732 488.981 189.456 488.981 189.456C487.599 185.706 486.839 181.757 486.73 177.763C486.477 170.919 490.397 167.737 490.397 167.737Z" fill="#407BFF"/>
<path d="M492.167 230.86C492.167 230.86 500.322 232.602 503.61 237.729C503.61 237.729 500.196 248.399 497.755 249.56C495.315 250.722 489.271 250.722 489.271 250.722C489.271 250.722 488.879 238.853 492.167 230.86Z" fill="#407BFF"/>
</svg>
